<svg width="503" height="196" fill="none" xmlns="http://www.w3.org/2000/svg"><path d="M218.5 143.25L251 127l32.5 16.25L251 159.5l-32.5-16.25z" fill="#A5F6E2"/><path d="M238 144l-.4-7.9s.4 4.9 12.9 4.9 13.25-4.7 13.25-4.7l-.4 7.7s-1.35 5-12.85 5c-11 0-12.5-5-12.5-5z" fill="#61F0CC"/><path d="M263.7 136c0 2.761-5.843 5-13.05 5-7.207 0-13.05-2.239-13.05-5s5.843-5 13.05-5c7.207 0 13.05 2.239 13.05 5z" fill="#C7FAED"/><path d="M218.5 179v-35.75L251 159.5v35.75L218.5 179z" fill="#1DE9B6"/><path d="M251 159.5v35.75L283.5 179v-35.75L251 159.5z" fill="#61F0CC"/><path opacity=".4" fill-rule="evenodd" clip-rule="evenodd" d="M.004 1.063c0-.001 0-.002.496-.063L.996.939v.003l.002.011.006.048.027.194c.025.171.064.428.12.761.11.668.288 1.647.554 2.886a89.748 89.748 0 002.842 10.136C7.39 23.266 12.354 34.05 20.85 44.051c8.492 9.998 20.514 19.22 37.487 24.392 16.976 5.174 38.933 6.304 67.306.069 28.502-6.265 50.638-5.145 67.811.088 17.176 5.234 29.356 14.574 37.958 24.701 8.599 10.123 13.617 21.027 16.487 29.396a90.754 90.754 0 012.873 10.25c.271 1.256.451 2.25.564 2.933.057.341.097.604.122.783l.029.203.007.053.001.014.001.004c0 .001 0 .002-.496.063l-.496.061-.001-.003-.001-.011-.006-.048-.027-.194a41.595 41.595 0 00-.119-.762 63.688 63.688 0 00-.555-2.885 89.818 89.818 0 00-2.842-10.137c-2.842-8.287-7.808-19.07-16.303-29.072-8.492-9.998-20.515-19.22-37.487-24.393-16.976-5.173-38.933-6.303-67.306-.068-28.502 6.265-50.639 5.145-67.811-.088C40.87 64.166 28.689 54.826 20.088 44.7 11.489 34.576 6.47 23.67 3.6 15.303A90.743 90.743 0 01.727 5.053C.457 3.796.277 2.802.164 2.12a37.358 37.358 0 01-.15-.987l-.008-.052-.002-.014v-.004z" fill="url(#paint0_linear)"/><path opacity=".4" fill-rule="evenodd" clip-rule="evenodd" d="M502.496 1.063c0-.001 0-.002-.496-.063l-.496-.061-.001.003-.001.011-.006.048-.027.194c-.025.171-.064.428-.119.761a63.418 63.418 0 01-.555 2.886 89.814 89.814 0 01-2.842 10.136c-2.842 8.288-7.807 19.071-16.303 29.073-8.492 9.998-20.514 19.22-37.487 24.392-16.976 5.174-38.933 6.304-67.306.069-28.502-6.265-50.638-5.145-67.811.088-17.176 5.234-29.356 14.574-37.958 24.701-8.599 10.123-13.617 21.027-16.487 29.396a90.754 90.754 0 00-2.873 10.25 61.934 61.934 0 00-.564 2.933c-.057.341-.097.604-.122.783l-.029.203-.007.053-.001.014-.001.004c0 .001 0 .002.496.063l.496.061.001-.003.001-.011.006-.048.027-.194c.025-.172.064-.428.119-.762.111-.667.289-1.646.555-2.885a89.818 89.818 0 012.842-10.137c2.842-8.287 7.808-19.07 16.303-29.072 8.492-9.998 20.515-19.22 37.487-24.393 16.976-5.173 38.933-6.303 67.306-.068 28.502 6.265 50.639 5.145 67.811-.088 17.176-5.234 29.357-14.574 37.958-24.701 8.599-10.123 13.617-21.028 16.487-29.396a90.95 90.95 0 002.874-10.25c.27-1.256.45-2.25.563-2.933.057-.341.097-.604.123-.783l.028-.204.007-.052.002-.014v-.004z" fill="url(#paint1_linear)"/><defs><linearGradient id="paint0_linear" x1="125.75" y1=".939" x2="125.75" y2="137.061" gradientUnits="userSpaceOnUse"><stop offset=".224" stop-color="#7B61FF"/><stop offset="1" stop-color="#1DE9B6"/></linearGradient><linearGradient id="paint1_linear" x1="376.75" y1=".939" x2="376.75" y2="137.061" gradientUnits="userSpaceOnUse"><stop offset=".234" stop-color="#FFAF6D"/><stop offset="1" stop-color="#1DE9B6"/></linearGradient></defs></svg>
