<svg width="636" height="433" viewBox="0 0 636 433" fill="none" xmlns="http://www.w3.org/2000/svg">
<g clip-path="url(#clip0)">
<path opacity="0.5" d="M187.609 49.1208L235.432 25.2095L283.255 49.1208L235.432 73.0321L187.609 49.1208Z" fill="white" fill-opacity="0.18" stroke="black" stroke-width="1.19184"/>
<path opacity="0.5" d="M426.722 25.2839L474.545 1.37256L522.367 25.2839L474.545 49.1952L426.722 25.2839Z" fill="white" fill-opacity="0.18" stroke="black" stroke-width="1.19184"/>
<path opacity="0.5" d="M235.432 73.0319L283.254 49.1206L331.077 73.0319L283.254 96.9432L235.432 73.0319Z" fill="white" fill-opacity="0.18" stroke="black" stroke-width="1.19184"/>
<path d="M522.367 73.0319L570.19 49.1206L618.012 73.0319L570.19 96.9432L522.367 73.0319Z" fill="white" fill-opacity="0.18" stroke="black" stroke-width="1.19184"/>
<path opacity="0.5" d="M139.787 73.0319L187.609 49.1206L235.432 73.0319L187.609 96.9432L139.787 73.0319Z" fill="white" fill-opacity="0.18" stroke="black" stroke-width="1.19184"/>
<path d="M378.899 96.943L426.722 73.0317L474.545 96.943L426.722 120.854L378.899 96.943Z" fill="white" fill-opacity="0.18" stroke="black" stroke-width="1.19184"/>
<path d="M474.545 96.943L522.368 73.0317L570.19 96.943L522.368 120.854L474.545 96.943Z" fill="white" fill-opacity="0.18" stroke="black" stroke-width="1.19184"/>
<path d="M570.19 96.943L618.013 73.0317L665.835 96.943L618.013 120.854L570.19 96.943Z" fill="white" fill-opacity="0.18" stroke="black" stroke-width="1.19184"/>
<path opacity="0.5" d="M187.609 96.943L235.432 73.0317L283.255 96.943L235.432 120.854L187.609 96.943Z" fill="white" fill-opacity="0.18" stroke="black" stroke-width="1.19184"/>
<path opacity="0.5" d="M235.432 120.855L283.254 96.9434L331.077 120.855L283.254 144.766L235.432 120.855Z" fill="white" fill-opacity="0.18" stroke="black" stroke-width="1.19184"/>
<path opacity="0.6" d="M331.077 120.855L378.9 96.9434L426.722 120.855L378.9 144.766L331.077 120.855Z" fill="white" fill-opacity="0.18" stroke="black" stroke-width="1.19184"/>
<path d="M426.722 120.855L474.545 96.9434L522.367 120.855L474.545 144.766L426.722 120.855Z" fill="white" fill-opacity="0.18" stroke="black" stroke-width="1.19184"/>
<path d="M522.367 120.855L570.19 96.9434L618.012 120.855L570.19 144.766L522.367 120.855Z" fill="white" fill-opacity="0.18" stroke="black" stroke-width="1.19184"/>
<path opacity="0.5" d="M283.254 144.766L331.077 120.854L378.9 144.766L331.077 168.677L283.254 144.766Z" fill="white" fill-opacity="0.18" stroke="black" stroke-width="1.19184"/>
<path d="M474.545 144.766L522.368 120.854L570.19 144.766L522.368 168.677L474.545 144.766Z" fill="white" fill-opacity="0.18" stroke="black" stroke-width="1.19184"/>
<path d="M570.19 144.766L618.013 120.854L665.835 144.766L618.013 168.677L570.19 144.766Z" fill="white" fill-opacity="0.18" stroke="black" stroke-width="1.19184"/>
<path d="M522.367 168.677L570.19 144.766L618.012 168.677L570.19 192.588L522.367 168.677Z" fill="white" fill-opacity="0.18" stroke="black" stroke-width="1.19184"/>
<path d="M138.787 165.677L186.609 141.766L234.432 165.677L186.609 189.588L138.787 165.677Z" stroke="#6366F1" stroke-width="2"/>
<path d="M378.899 192.589L426.722 168.677L474.545 192.589L426.722 216.5L378.899 192.589Z" fill="white" fill-opacity="0.18" stroke="black" stroke-width="1.19184"/>
<path d="M474.545 192.589L522.368 168.677L570.19 192.589L522.368 216.5L474.545 192.589Z" fill="white" fill-opacity="0.18" stroke="black" stroke-width="1.19184"/>
<path d="M570.19 192.589L618.013 168.677L665.835 192.589L618.013 216.5L570.19 192.589Z" fill="white" fill-opacity="0.18" stroke="black" stroke-width="1.19184"/>
<path opacity="0.5" d="M235.432 216.5L283.254 192.588L331.077 216.5L283.254 240.411L235.432 216.5Z" fill="white" fill-opacity="0.18" stroke="black" stroke-width="1.19184"/>
<path opacity="0.6" d="M331.077 216.5L378.9 192.588L426.722 216.5L378.9 240.411L331.077 216.5Z" fill="white" fill-opacity="0.18" stroke="black" stroke-width="1.19184"/>
<path d="M426.722 216.5L474.545 192.588L522.367 216.5L474.545 240.411L426.722 216.5Z" fill="white" fill-opacity="0.18" stroke="black" stroke-width="1.19184"/>
<path d="M522.367 216.5L570.19 192.588L618.012 216.5L570.19 240.411L522.367 216.5Z" fill="white" fill-opacity="0.18" stroke="black" stroke-width="1.19184"/>
<path opacity="0.5" d="M139.787 216.5L187.609 192.588L235.432 216.5L187.609 240.411L139.787 216.5Z" fill="white" fill-opacity="0.18" stroke="black" stroke-width="1.19184"/>
<path opacity="0.6" d="M283.254 240.411L331.077 216.5L378.9 240.411L331.077 264.322L283.254 240.411Z" fill="white" fill-opacity="0.18" stroke="black" stroke-width="1.19184"/>
<path opacity="0.6" d="M378.899 240.411L426.722 216.5L474.545 240.411L426.722 264.322L378.899 240.411Z" fill="white" fill-opacity="0.18" stroke="black" stroke-width="1.19184"/>
<path d="M570.19 240.411L618.013 216.5L665.835 240.411L618.013 264.322L570.19 240.411Z" fill="white" fill-opacity="0.18" stroke="black" stroke-width="1.19184"/>
<path opacity="0.5" d="M187.609 240.411L235.432 216.5L283.255 240.411L235.432 264.322L187.609 240.411Z" fill="white" fill-opacity="0.18" stroke="black" stroke-width="1.19184"/>
<path opacity="0.5" d="M235.432 264.322L283.254 240.411L331.077 264.322L283.254 288.234L235.432 264.322Z" fill="white" fill-opacity="0.18" stroke="black" stroke-width="1.19184"/>
<path opacity="0.6" d="M331.077 264.322L378.9 240.411L426.722 264.322L378.9 288.234L331.077 264.322Z" fill="white" fill-opacity="0.18" stroke="black" stroke-width="1.19184"/>
<path d="M426.722 264.322L474.545 240.411L522.367 264.322L474.545 288.234L426.722 264.322Z" fill="white" fill-opacity="0.18" stroke="black" stroke-width="1.19184"/>
<path d="M522.367 264.322L570.19 240.411L618.012 264.322L570.19 288.234L522.367 264.322Z" fill="white" fill-opacity="0.18" stroke="black" stroke-width="1.19184"/>
<path opacity="0.6" d="M283.254 288.234L331.077 264.322L378.9 288.234L331.077 312.145L283.254 288.234Z" fill="white" fill-opacity="0.18" stroke="black" stroke-width="1.19184"/>
<path opacity="0.6" d="M378.899 288.234L426.722 264.322L474.545 288.234L426.722 312.145L378.899 288.234Z" fill="white" fill-opacity="0.18" stroke="black" stroke-width="1.19184"/>
<path d="M474.545 288.234L522.368 264.322L570.19 288.234L522.368 312.145L474.545 288.234Z" fill="white" fill-opacity="0.18" stroke="black" stroke-width="1.19184"/>
<path d="M570.19 288.234L618.013 264.322L665.835 288.234L618.013 312.145L570.19 288.234Z" fill="white" fill-opacity="0.18" stroke="black" stroke-width="1.19184"/>
<path opacity="0.5" d="M187.609 288.234L235.432 264.322L283.255 288.234L235.432 312.145L187.609 288.234Z" fill="white" fill-opacity="0.18" stroke="black" stroke-width="1.19184"/>
<path d="M426.722 312.145L474.545 288.233L522.367 312.145L474.545 336.056L426.722 312.145Z" fill="white" fill-opacity="0.18" stroke="black" stroke-width="1.19184"/>
<path d="M522.367 312.145L570.19 288.233L618.012 312.145L570.19 336.056L522.367 312.145Z" fill="white" fill-opacity="0.18" stroke="black" stroke-width="1.19184"/>
<path d="M378.899 336.056L426.722 312.145L474.545 336.056L426.722 359.968L378.899 336.056Z" fill="white" fill-opacity="0.18" stroke="black" stroke-width="1.19184"/>
<path opacity="0.5" d="M235.581 24.9113L283.403 1L331.226 24.9113L283.403 48.8226L235.581 24.9113Z" fill="white" fill-opacity="0.18" stroke="black" stroke-width="1.19184"/>
<path opacity="0.8" d="M474.545 336.056L522.368 312.145L570.19 336.056L522.368 359.968L474.545 336.056Z" fill="white" fill-opacity="0.18" stroke="black" stroke-width="1.19184"/>
<path opacity="0.5" d="M331.226 24.9113L379.049 1L426.871 24.9113L379.049 48.8226L331.226 24.9113Z" fill="white" fill-opacity="0.18" stroke="black" stroke-width="1.19184"/>
<path opacity="0.8" d="M570.19 336.056L618.013 312.145L665.835 336.056L618.013 359.968L570.19 336.056Z" fill="white" fill-opacity="0.18" stroke="black" stroke-width="1.19184"/>
<path opacity="0.6" d="M331.077 359.967L378.9 336.056L426.722 359.967L378.9 383.879L331.077 359.967Z" fill="white" fill-opacity="0.18" stroke="black" stroke-width="1.19184"/>
<path opacity="0.6" d="M522.367 359.967L570.19 336.056L618.012 359.967L570.19 383.879L522.367 359.967Z" fill="white" fill-opacity="0.18" stroke="black" stroke-width="1.19184"/>
<path d="M379.048 48.8224L426.871 24.9111L474.694 48.8224L426.871 72.7337L379.048 48.8224Z" fill="white" fill-opacity="0.18" stroke="black" stroke-width="1.19184"/>
<path opacity="0.8" d="M426.573 360.042L474.396 336.131L522.218 360.042L474.396 383.953L426.573 360.042Z" fill="white" fill-opacity="0.18" stroke="black" stroke-width="1.19184"/>
<path opacity="0.6" d="M570.19 383.879L618.013 359.967L665.835 383.879L618.013 407.79L570.19 383.879Z" fill="white" fill-opacity="0.18" stroke="black" stroke-width="1.19184"/>
<path d="M426.871 72.7341L474.694 48.8228L522.516 72.7341L474.694 96.6454L426.871 72.7341Z" fill="white" fill-opacity="0.18" stroke="black" stroke-width="1.19184"/>
<path opacity="0.8" d="M331.077 407.79L378.9 383.879L426.722 407.79L378.9 431.702L331.077 407.79Z" fill="white" fill-opacity="0.18" stroke="black" stroke-width="1.19184"/>
<path opacity="0.7" d="M377.856 384.028L425.679 360.116L473.502 384.028L425.679 407.939L377.856 384.028Z" fill="white" fill-opacity="0.18" stroke="black" stroke-width="1.19184"/>
<path d="M179.796 100.91C179.936 102.92 177.793 106.22 177.583 107.691C177.52 108.199 177.588 108.724 177.778 109.192C177.968 109.66 178.271 110.048 178.646 110.304C177.5 109.97 176.451 109.178 176.347 107.697C176.212 105.766 177.121 104.601 177.017 103.115L179.796 100.91Z" fill="#FF5A72"/>
<path d="M196.54 105.91C196.399 107.92 198.543 111.22 198.752 112.691C198.816 113.199 198.748 113.724 198.557 114.192C198.367 114.66 198.064 115.048 197.69 115.304C198.835 114.97 199.885 114.178 199.988 112.697C200.123 110.766 199.215 108.601 199.319 107.115L196.54 105.91Z" fill="#FF5A72"/>
<path d="M204.54 109.91C204.399 111.92 206.543 115.22 206.752 116.691C206.816 117.199 206.748 117.724 206.557 118.192C206.367 118.66 206.064 119.048 205.69 119.304C206.835 118.97 207.885 118.178 207.988 116.697C208.123 114.766 207.215 112.601 207.319 111.115L204.54 109.91Z" fill="#8B5CF6"/>
<path d="M168.796 107.91C168.936 109.92 166.793 112.22 166.583 113.691C166.52 114.199 166.588 114.724 166.778 115.192C166.968 115.66 167.271 116.048 167.646 116.304C166.5 115.97 165.451 115.178 165.347 113.697C165.212 111.766 166.121 111.601 166.017 110.115L168.796 107.91Z" fill="#8B5CF6"/>
<path d="M159.199 112.375C159.34 114.386 157.196 116.685 156.986 118.156C156.923 118.665 156.991 119.189 157.181 119.657C157.372 120.125 157.675 120.513 158.049 120.769C156.904 120.435 155.854 119.643 155.751 118.162C155.616 116.232 156.524 116.067 156.42 114.58L159.199 112.375Z" fill="#1DE9B6"/>
<path d="M184.796 128.91C184.936 130.92 182.793 133.22 182.583 134.691C182.52 135.199 182.588 135.724 182.778 136.192C182.968 136.66 183.271 137.048 183.646 137.304C182.5 136.97 181.451 136.178 181.347 134.697C181.212 132.766 182.121 132.601 182.017 131.115L184.796 128.91Z" fill="#8B5CF6"/>
<path d="M184.796 128.91C184.936 130.92 182.793 132.22 182.583 133.691C182.52 134.199 182.588 134.724 182.778 135.192C182.968 135.66 183.271 136.048 183.646 136.304C182.5 135.97 181.451 135.178 181.347 133.697C181.212 131.766 182.121 130.601 182.017 129.115L184.796 128.91Z" fill="#8B5CF6"/>
<path d="M146.365 122.5L186.49 102.438L226.615 122.5L186.49 142.562L146.365 122.5Z" fill="#C7D2FE"/>
<path d="M146.365 166.637V122.5L186.49 142.562V186.7L146.365 166.637Z" fill="#A5B4FC"/>
<path d="M186.49 142.562V186.7L226.615 166.637V122.5L186.49 142.562Z" fill="#818CF8"/>
<path d="M200.669 167.751V179.193L213.009 172.923L200.938 165.103C200.764 165.975 200.673 166.862 200.669 167.751Z" fill="url(#paint0_linear)"/>
<path d="M206.839 155.565C204.056 157.175 201.708 161.113 200.938 165.102L213.009 172.923V160.626C213.009 155.86 210.251 153.596 206.839 155.565Z" fill="url(#paint1_linear)"/>
<path d="M170.349 167.021V178.463L158.009 172.193L170.079 164.373C170.254 165.245 170.344 166.132 170.349 167.021Z" fill="url(#paint2_linear)"/>
<path d="M164.179 154.835C166.962 156.445 169.309 160.383 170.079 164.373L158.009 172.193V159.896C158.009 155.13 160.766 152.866 164.179 154.835Z" fill="url(#paint3_linear)"/>
<path d="M221.62 117.565C221.62 117.565 215.429 116.946 212.587 113.049C209.745 109.152 205.637 112.275 203.555 108.533C201.472 104.79 197.42 108.533 194.522 104.016C191.624 99.5 185.49 99.5 185.49 99.5" stroke="white"/>
<path d="M165.176 126.856C163.796 128.688 165.485 131.594 164.836 133.175C164.602 133.714 164.205 134.168 163.702 134.472C163.199 134.777 162.614 134.918 162.027 134.876C163.552 135.437 165.243 135.482 166.26 134.133C167.585 132.375 167.241 130.551 168.262 129.197L165.176 126.856Z" fill="#8B5CF6"/>
<path d="M156.176 121.856C154.796 123.688 156.485 126.594 155.836 128.175C155.601 128.714 155.205 129.168 154.702 129.472C154.199 129.777 153.613 129.918 153.027 129.876C154.551 130.437 156.243 130.482 157.259 129.133C158.584 127.375 158.241 125.551 159.261 124.197L156.176 121.856Z" fill="#FFEF6B"/>
<path d="M176.177 132.856C174.797 134.688 176.486 137.594 175.837 139.175C175.602 139.714 175.206 140.168 174.703 140.472C174.2 140.777 173.614 140.918 173.028 140.876C174.552 141.437 176.244 141.482 177.26 140.133C178.585 138.375 178.242 136.551 179.262 135.197L176.177 132.856Z" fill="#FF5A72"/>
<path d="M186.708 88.625V105.575C186.705 105.623 186.688 105.669 186.66 105.708C186.631 105.747 186.593 105.777 186.548 105.795C186.43 105.854 186.3 105.885 186.168 105.885C186.036 105.885 185.906 105.854 185.788 105.795C185.744 105.777 185.705 105.747 185.677 105.708C185.649 105.669 185.632 105.623 185.628 105.575V88.625H186.708Z" fill="#BBC0E6"/>
<path d="M185.628 90.0156C181.866 90.0156 179.724 95.0987 177.013 95.8091C176.074 96.0343 175.089 95.9628 174.193 95.6043C173.297 95.2459 172.534 94.6182 172.01 93.8079C172.78 96.3594 174.391 98.6208 177.163 98.6208C180.775 98.6208 182.826 96.3694 185.608 96.3694L185.628 90.0156Z" fill="#FF5A72"/>
<path d="M185.62 137.565C185.62 137.565 179.429 136.946 176.587 133.049C173.745 129.152 169.637 132.275 167.555 128.533C165.472 124.79 161.42 128.533 158.522 124.016C155.624 119.5 149.49 119.5 149.49 119.5" stroke="white"/>
<path d="M221.01 107.625V124.575C221.014 124.623 221.03 124.669 221.059 124.708C221.087 124.747 221.125 124.777 221.17 124.795C221.288 124.854 221.418 124.885 221.55 124.885C221.682 124.885 221.812 124.854 221.93 124.795C221.975 124.777 222.013 124.747 222.041 124.708C222.07 124.669 222.087 124.623 222.09 124.575V107.625H221.01Z" fill="#F2F3FC"/>
<path d="M222.09 109.016C225.853 109.016 227.994 114.099 230.706 114.809C231.644 115.034 232.629 114.963 233.525 114.604C234.421 114.246 235.184 113.618 235.708 112.808C234.938 115.359 233.327 117.621 230.555 117.621C226.943 117.621 224.892 115.369 222.11 115.369L222.09 109.016Z" fill="#FFEF6B"/>
<path d="M186.708 123.625V140.575C186.705 140.623 186.688 140.669 186.66 140.708C186.631 140.747 186.593 140.777 186.548 140.795C186.43 140.854 186.3 140.885 186.168 140.885C186.036 140.885 185.906 140.854 185.788 140.795C185.744 140.777 185.705 140.747 185.677 140.708C185.649 140.669 185.632 140.623 185.628 140.575V123.625H186.708Z" fill="#F2F3FC"/>
<path d="M185.628 125.016C181.866 125.016 179.724 130.099 177.013 130.809C176.074 131.034 175.089 130.963 174.193 130.604C173.297 130.246 172.534 129.618 172.01 128.808C172.78 131.359 174.391 133.621 177.163 133.621C180.775 133.621 182.826 131.369 185.608 131.369L185.628 125.016Z" fill="#1DE9B6"/>
<path d="M196 131.607C196.99 133.636 195.729 136.925 196.128 138.54C196.276 139.095 196.566 139.611 196.96 140.017C197.355 140.423 197.832 140.699 198.328 140.808C196.999 140.942 195.576 140.56 194.847 139.065C193.897 137.117 194.615 135.455 193.883 133.954L196 131.607Z" fill="#8B5CF6"/>
<path d="M207.02 126.609C208.009 128.638 206.748 131.927 207.147 133.542C207.295 134.097 207.585 134.613 207.98 135.019C208.374 135.425 208.851 135.701 209.347 135.81C208.018 135.944 206.595 135.562 205.866 134.067C204.916 132.118 205.478 129.347 204.747 127.847L207.02 126.609Z" fill="#FF5A72"/>
<path d="M216.959 120.614C218.094 122.842 216.761 126.508 217.234 128.29C217.408 128.901 217.741 129.467 218.185 129.909C218.629 130.351 219.163 130.648 219.715 130.758C218.245 130.933 216.662 130.537 215.826 128.896C214.736 126.756 215.305 123.676 214.466 122.029L216.959 120.614Z" fill="#FFEF6B"/>
<rect width="79" height="16" transform="translate(149.365 70.375)" fill="#A5B4FC"/>
<path d="M154.203 82.2578V76.4688C154.203 76.3906 154.244 76.3516 154.326 76.3516H155.023C155.101 76.3516 155.14 76.3906 155.14 76.4688V77.1309C155.269 76.8848 155.482 76.6738 155.779 76.498C156.08 76.3184 156.39 76.2285 156.71 76.2285C157.109 76.2285 157.427 76.3066 157.666 76.4629C157.904 76.6191 158.089 76.8652 158.222 77.2012C158.398 76.9121 158.636 76.6777 158.937 76.498C159.238 76.3184 159.56 76.2285 159.904 76.2285C160.462 76.2285 160.873 76.3789 161.134 76.6797C161.396 76.9805 161.527 77.4473 161.527 78.0801V82.2578C161.527 82.3359 161.486 82.375 161.404 82.375H160.707C160.628 82.375 160.589 82.3359 160.589 82.2578V78.2441C160.589 77.4941 160.269 77.1191 159.628 77.1191C159.625 77.1191 159.621 77.1191 159.617 77.1191C159.234 77.1191 158.923 77.3105 158.685 77.6934C158.451 78.0723 158.333 78.5762 158.333 79.2051V82.2578C158.333 82.3359 158.292 82.375 158.21 82.375H157.519C157.441 82.375 157.4 82.3359 157.396 82.2578V78.2441C157.396 77.4941 157.076 77.1191 156.435 77.1191C156.431 77.1191 156.427 77.1191 156.423 77.1191C156.041 77.1191 155.73 77.3105 155.492 77.6934C155.257 78.0723 155.14 78.5762 155.14 79.2051V82.2578C155.14 82.3359 155.101 82.375 155.023 82.375H154.326C154.244 82.375 154.203 82.3359 154.203 82.2578ZM162.365 83.8398C162.365 83.7617 162.398 83.7207 162.464 83.7168C162.496 83.7168 162.595 83.7598 162.763 83.8457C162.931 83.9355 163.119 83.9805 163.326 83.9805C163.623 83.9805 163.861 83.8555 164.041 83.6055C164.22 83.3594 164.386 82.957 164.539 82.3984L162.429 76.5449C162.414 76.498 162.406 76.4648 162.406 76.4453C162.406 76.3828 162.437 76.3516 162.5 76.3516H163.361C163.439 76.3516 163.492 76.3906 163.519 76.4688L165.007 81.0449L166.425 76.4688C166.449 76.3906 166.5 76.3516 166.578 76.3516H167.41C167.472 76.3516 167.503 76.3789 167.503 76.4336C167.503 76.4648 167.5 76.4941 167.492 76.5215L165.365 82.9609C165.126 83.6875 164.853 84.1875 164.544 84.4609C164.236 84.7344 163.847 84.8711 163.378 84.8711C163.066 84.8711 162.769 84.8066 162.488 84.6777C162.41 84.6309 162.369 84.5664 162.365 84.4844V83.8398ZM168.335 82.4922C168.335 82.4141 168.375 82.375 168.453 82.375H173.304C173.382 82.375 173.421 82.4141 173.421 82.4922V83.1895C173.421 83.2676 173.382 83.3086 173.304 83.3125H168.453C168.375 83.3125 168.335 83.2715 168.335 83.1895V82.4922ZM174.335 77.1191V76.4688C174.335 76.3906 174.375 76.3516 174.453 76.3516H175.537V74.623C175.537 74.5449 175.576 74.5059 175.654 74.5059H176.351C176.429 74.5059 176.468 74.5449 176.468 74.623V76.3516H178.765C178.843 76.3516 178.882 76.3906 178.882 76.4688V77.1191C178.882 77.1973 178.843 77.2363 178.765 77.2363H176.468V80.0488C176.468 81.0879 176.861 81.6074 177.646 81.6074C178.021 81.6074 178.296 81.5078 178.472 81.3086C178.648 81.1094 178.765 80.7969 178.824 80.3711C178.832 80.3008 178.875 80.2656 178.953 80.2656H179.65H179.697C179.705 80.2656 179.714 80.2695 179.726 80.2773C179.742 80.2852 179.751 80.2969 179.755 80.3125C179.759 80.3281 179.761 80.3477 179.761 80.3711C179.761 80.9648 179.576 81.4668 179.205 81.877C178.837 82.2871 178.318 82.4922 177.646 82.4922C176.958 82.4922 176.435 82.2871 176.076 81.877C175.716 81.4668 175.537 80.8613 175.537 80.0605V77.2363H174.453C174.375 77.2363 174.335 77.1973 174.335 77.1191ZM180.541 79.3633C180.541 78.4688 180.806 77.7227 181.337 77.125C181.869 76.5273 182.558 76.2285 183.406 76.2285C184.277 76.2285 184.957 76.5312 185.445 77.1367C185.937 77.7422 186.183 78.4844 186.183 79.3633V79.5332C186.183 79.6113 186.142 79.6504 186.06 79.6504H181.548C181.595 80.2441 181.777 80.7188 182.093 81.0742C182.41 81.4297 182.847 81.6074 183.406 81.6074C183.839 81.6074 184.185 81.5195 184.443 81.3438C184.705 81.168 184.908 80.8887 185.052 80.5059C185.076 80.4355 185.132 80.3984 185.222 80.3945H186.001C186.056 80.3945 186.083 80.4219 186.083 80.4766C186.083 80.5078 186.076 80.5488 186.06 80.5996C185.626 81.8613 184.746 82.4922 183.417 82.4922C183.414 82.4922 183.41 82.4922 183.406 82.4922C182.503 82.4922 181.8 82.2012 181.296 81.6191C180.792 81.0371 180.541 80.2852 180.541 79.3633ZM181.595 78.7656H185.169C185.072 78.2695 184.861 77.8711 184.537 77.5703C184.216 77.2695 183.839 77.1191 183.406 77.1191C182.949 77.1191 182.556 77.2676 182.228 77.5645C181.904 77.8613 181.693 78.2617 181.595 78.7656ZM187.115 80.541C187.115 80.4629 187.154 80.4219 187.232 80.418H188C188.07 80.418 188.111 80.459 188.123 80.541C188.169 80.8848 188.31 81.1484 188.544 81.332C188.783 81.5156 189.097 81.6074 189.488 81.6074C189.847 81.6074 190.158 81.5312 190.419 81.3789C190.681 81.2266 190.812 81.0098 190.812 80.7285C190.812 80.5918 190.779 80.4707 190.712 80.3652C190.65 80.2559 190.58 80.1719 190.501 80.1133C190.427 80.0547 190.3 79.998 190.121 79.9434C189.941 79.8848 189.794 79.8457 189.681 79.8262L189.13 79.7207C188.466 79.6074 187.988 79.4141 187.695 79.1406C187.402 78.8633 187.255 78.4648 187.255 77.9453C187.255 77.4023 187.464 76.9805 187.882 76.6797C188.304 76.3789 188.796 76.2285 189.359 76.2285C190.031 76.2285 190.57 76.3867 190.976 76.7031C191.386 77.0195 191.591 77.4375 191.591 77.957C191.591 78.0352 191.55 78.0762 191.468 78.0801H190.794C190.74 78.0801 190.701 78.0391 190.677 77.957C190.541 77.3984 190.105 77.1191 189.371 77.1191C189.035 77.1191 188.753 77.1914 188.527 77.3359C188.304 77.4805 188.193 77.6836 188.193 77.9453C188.193 78.1914 188.3 78.3984 188.515 78.5664C188.734 78.7305 189.13 78.8594 189.705 78.9531C190.376 79.0664 190.892 79.2422 191.251 79.4805C191.611 79.7148 191.791 80.0918 191.791 80.6113C191.791 81.1777 191.566 81.6328 191.117 81.9766C190.671 82.3203 190.117 82.4922 189.453 82.4922C188.765 82.4922 188.203 82.3086 187.765 81.9414C187.332 81.5742 187.115 81.1074 187.115 80.541ZM192.253 77.1191V76.4688C192.253 76.3906 192.292 76.3516 192.371 76.3516H193.455V74.623C193.455 74.5449 193.494 74.5059 193.572 74.5059H194.269C194.347 74.5059 194.386 74.5449 194.386 74.623V76.3516H196.683C196.761 76.3516 196.8 76.3906 196.8 76.4688V77.1191C196.8 77.1973 196.761 77.2363 196.683 77.2363H194.386V80.0488C194.386 81.0879 194.779 81.6074 195.564 81.6074C195.939 81.6074 196.214 81.5078 196.39 81.3086C196.566 81.1094 196.683 80.7969 196.742 80.3711C196.75 80.3008 196.792 80.2656 196.871 80.2656H197.568H197.615C197.623 80.2656 197.632 80.2695 197.644 80.2773C197.66 80.2852 197.669 80.2969 197.673 80.3125C197.677 80.3281 197.679 80.3477 197.679 80.3711C197.679 80.9648 197.494 81.4668 197.123 81.877C196.755 82.2871 196.236 82.4922 195.564 82.4922C194.876 82.4922 194.353 82.2871 193.994 81.877C193.634 81.4668 193.455 80.8613 193.455 80.0605V77.2363H192.371C192.292 77.2363 192.253 77.1973 192.253 77.1191ZM198.664 82.4922C198.664 82.4141 198.703 82.375 198.781 82.375H203.632C203.71 82.375 203.75 82.4141 203.75 82.4922V83.1895C203.75 83.2676 203.71 83.3086 203.632 83.3125H198.781C198.703 83.3125 198.664 83.2715 198.664 83.1895V82.4922ZM204.939 80.5879C204.939 79.9473 205.171 79.4531 205.636 79.1055C206.101 78.7578 206.689 78.584 207.4 78.584C207.927 78.584 208.451 78.668 208.97 78.8359V78.5371C208.97 77.5918 208.486 77.1191 207.517 77.1191C206.861 77.1191 206.414 77.4238 206.175 78.0332C206.152 78.1035 206.095 78.1387 206.005 78.1387H205.238C205.183 78.1387 205.156 78.1152 205.156 78.0684C205.156 78.0176 205.16 77.9766 205.167 77.9453C205.296 77.4648 205.564 77.0586 205.97 76.7266C206.38 76.3945 206.896 76.2285 207.517 76.2285C208.212 76.2285 208.785 76.4219 209.234 76.8086C209.683 77.1914 209.908 77.6875 209.908 78.2969V81.2207C209.908 81.6621 209.976 82.0078 210.113 82.2578C210.128 82.2812 210.136 82.3008 210.136 82.3164C210.136 82.3555 210.099 82.375 210.025 82.375H209.093C209.015 82.375 208.974 82.3359 208.97 82.2578V81.6309C208.556 82.2051 207.945 82.4922 207.136 82.4922C206.527 82.4922 206.007 82.3301 205.578 82.0059C205.152 81.6777 204.939 81.2051 204.939 80.5879ZM205.923 80.5879C205.923 80.9004 206.037 81.1484 206.263 81.332C206.494 81.5156 206.816 81.6074 207.23 81.6074C207.71 81.6074 208.121 81.4375 208.46 81.0977C208.8 80.7578 208.97 80.2988 208.97 79.7207C208.482 79.5527 207.962 79.4688 207.412 79.4688C206.978 79.4688 206.621 79.5664 206.339 79.7617C206.062 79.9531 205.923 80.2285 205.923 80.5879ZM211.472 84.6309V76.4688C211.472 76.3906 211.513 76.3516 211.595 76.3516H212.292C212.371 76.3516 212.41 76.3906 212.41 76.4688V77.0371C212.824 76.502 213.445 76.2324 214.273 76.2285C215.058 76.2285 215.683 76.5117 216.148 77.0781C216.617 77.6406 216.851 78.4023 216.851 79.3633C216.851 80.3242 216.617 81.0859 216.148 81.6484C215.679 82.2109 215.054 82.4922 214.273 82.4922C213.906 82.4922 213.556 82.4199 213.224 82.2754C212.896 82.127 212.625 81.9316 212.41 81.6895V84.6309C212.41 84.709 212.371 84.75 212.292 84.7539H211.595C211.513 84.75 211.472 84.709 211.472 84.6309ZM212.779 77.752C212.47 78.1699 212.316 78.707 212.316 79.3633C212.316 80.0195 212.47 80.5586 212.779 80.9805C213.091 81.3984 213.523 81.6074 214.074 81.6074C214.628 81.6074 215.066 81.3965 215.386 80.9746C215.707 80.5488 215.867 80.0117 215.867 79.3633C215.867 78.7148 215.707 78.1797 215.386 77.7578C215.066 77.332 214.628 77.1191 214.074 77.1191C213.523 77.1191 213.091 77.3301 212.779 77.752ZM218.175 84.6309V76.4688C218.175 76.3906 218.216 76.3516 218.298 76.3516H218.996C219.074 76.3516 219.113 76.3906 219.113 76.4688V77.0371C219.527 76.502 220.148 76.2324 220.976 76.2285C221.761 76.2285 222.386 76.5117 222.851 77.0781C223.32 77.6406 223.554 78.4023 223.554 79.3633C223.554 80.3242 223.32 81.0859 222.851 81.6484C222.382 82.2109 221.757 82.4922 220.976 82.4922C220.609 82.4922 220.259 82.4199 219.927 82.2754C219.599 82.127 219.328 81.9316 219.113 81.6895V84.6309C219.113 84.709 219.074 84.75 218.996 84.7539H218.298C218.216 84.75 218.175 84.709 218.175 84.6309ZM219.482 77.752C219.173 78.1699 219.019 78.707 219.019 79.3633C219.019 80.0195 219.173 80.5586 219.482 80.9805C219.794 81.3984 220.226 81.6074 220.777 81.6074C221.332 81.6074 221.769 81.3965 222.089 80.9746C222.41 80.5488 222.57 80.0117 222.57 79.3633C222.57 78.7148 222.41 78.1797 222.089 77.7578C221.769 77.332 221.332 77.1191 220.777 77.1191C220.226 77.1191 219.794 77.3301 219.482 77.752Z" fill="#060606"/>
<rect x="188.365" y="86.375" width="1" height="34" rx="0.5" fill="#A5B4FC"/>
<path d="M185.49 137.565C185.49 137.565 191.68 136.946 194.522 133.049C197.364 129.152 201.472 132.275 203.555 128.533C205.637 124.79 209.689 128.533 212.587 124.016C215.486 119.5 221.62 119.5 221.62 119.5" stroke="white"/>
<path d="M149.708 105.625V122.575C149.704 122.623 149.687 122.669 149.659 122.708C149.63 122.747 149.592 122.777 149.547 122.795C149.429 122.854 149.299 122.885 149.167 122.885C149.035 122.885 148.905 122.854 148.787 122.795C148.743 122.777 148.704 122.747 148.676 122.708C148.648 122.669 148.631 122.623 148.627 122.575V105.625H149.708Z" fill="#F2F3FC"/>
<path d="M148.627 107.016C144.865 107.016 142.723 112.099 140.012 112.809C139.073 113.034 138.088 112.963 137.192 112.604C136.296 112.246 135.533 111.618 135.009 110.808C135.779 113.359 137.39 115.621 140.162 115.621C143.774 115.621 145.825 113.369 148.607 113.369L148.627 107.016Z" fill="#8B5CF6"/>
<path d="M149.49 117.565C149.49 117.565 155.68 116.946 158.522 113.049C161.364 109.152 165.472 112.275 167.555 108.533C169.637 104.79 173.689 108.533 176.587 104.016C179.486 99.5 185.62 99.5 185.62 99.5" stroke="white"/>
<path d="M165.509 163.625L96.0088 201.052" stroke="#FCD34D" stroke-width="1.19184" stroke-linecap="round"/>
<mask id="mask0" mask-type="alpha" maskUnits="userSpaceOnUse" x="158" y="154" width="13" height="19">
<path d="M164.179 154.835C166.962 156.445 169.309 160.383 170.079 164.373L158.009 172.193V159.896C158.009 155.13 160.766 152.866 164.179 154.835Z" fill="url(#paint4_linear)"/>
</mask>
<g mask="url(#mask0)">
<path d="M170.009 161.125L92.9639 202.802" stroke="#FCD34D" stroke-width="1.19184" stroke-linecap="round"/>
</g>
<path d="M95.3472 193.267L101.902 189.768" stroke="#FCD34D" stroke-width="1.19184" stroke-linecap="round"/>
<path d="M95.3472 195.651L98.6247 193.901L100.264 193.026" stroke="#FCD34D" stroke-width="1.19184" stroke-linecap="round"/>
<path d="M82.774 205.73L83.1655 206.797L83.65 207.818L82.774 205.73ZM82.3016 203.502L82.774 205.73L83.65 207.818L82.3016 203.502ZM83.65 207.818L84.2197 208.78L84.8668 209.672L83.65 207.818ZM82.3016 203.502L82.4834 204.627L82.774 205.73L82.3016 203.502ZM83.65 207.818L84.8668 209.672L86.3623 211.197L83.65 207.818ZM82.3016 203.502L83.65 207.818L86.3623 211.197L82.3016 203.502ZM84.8668 209.672L85.5836 210.481L86.3623 211.197L84.8668 209.672ZM82.2946 201.266L82.2368 202.366L82.3016 203.502L82.2946 201.266ZM82.7551 199.31L82.2946 201.266L82.3016 203.502L82.7551 199.31ZM86.3623 211.197L87.1952 211.805L88.0748 212.295L86.3623 211.197ZM82.7551 199.31L82.4699 200.245L82.2946 201.266L82.7551 199.31ZM84.8413 196.594L82.3016 203.502L86.3623 211.197L84.8413 196.594ZM86.3623 211.197L88.0748 212.295L89.9132 212.862L86.3623 211.197ZM84.8413 196.594L82.7551 199.31L82.3016 203.502L84.8413 196.594ZM88.0748 212.295L88.9932 212.654L89.9132 212.862L88.0748 212.295ZM83.6246 197.733L83.1426 198.471L82.7551 199.31L83.6246 197.733ZM86.3623 211.197L89.9132 212.862L93.1526 212.216L86.3623 211.197ZM84.8413 196.594L83.6246 197.733L82.7551 199.31L84.8413 196.594ZM89.9132 212.862L90.7974 212.916L91.6375 212.822L89.9132 212.862ZM84.8413 196.594L84.1934 197.105L83.6246 197.733L84.8413 196.594Z" fill="#FFEF6B"/>
<path d="M92.4248 212.586L94.313 211.754L95.0402 211.384L92.4248 212.586Z" fill="#FDE68A"/>
<path d="M89.9141 212.862L91.6383 212.821L93.1534 212.215L89.9141 212.862Z" fill="#FFEF6B"/>
<path d="M86.3428 195.956L88.2489 195.167L87.4663 195.42L86.3428 195.956ZM93.1522 212.216L95.0403 211.384L95.6987 210.887L93.1522 212.216ZM85.5601 196.209L86.3428 195.956L87.4663 195.42L85.5601 196.209ZM93.1522 212.216L92.4249 212.586L95.0403 211.384L93.1522 212.216Z" fill="#FDE68A"/>
<path d="M91.6377 212.821L92.4255 212.586L93.1528 212.215L91.6377 212.821Z" fill="#FFEF6B"/>
<path d="M87.1816 195.845L89.0874 195.055L88.2494 195.167L87.1816 195.845Z" fill="#FDE68A"/>
<path d="M84.8413 196.594L86.3623 211.196L95.7794 205.306L84.8413 196.594ZM86.3433 195.956L85.5606 196.208L84.8413 196.594L86.3433 195.956Z" fill="#FFEF6B"/>
<path d="M93.8109 211.718L95.6992 210.887L96.2804 210.27L93.8109 211.718ZM86.3433 195.956L87.1816 195.845L88.2493 195.167L86.3433 195.956Z" fill="#FDE68A"/>
<path d="M86.3623 211.196L93.1527 212.215L95.7795 205.306L86.3623 211.196Z" fill="#FFEF6B"/>
<path d="M93.8112 211.718L93.1529 212.216L95.6994 210.887L93.8112 211.718ZM88.0679 195.883L89.9732 195.092L89.0876 195.055L88.0679 195.883Z" fill="#FDE68A"/>
<path d="M88.0676 195.883L86.3433 195.956L84.8413 196.594L88.0676 195.883Z" fill="#FFEF6B"/>
<path d="M94.3919 211.1L96.2804 210.27L96.7759 209.54L94.3919 211.1ZM87.1816 195.845L88.0676 195.883L89.0874 195.055L87.1816 195.845ZM94.3919 211.1L93.811 211.718L96.2804 210.27L94.3919 211.1Z" fill="#FDE68A"/>
<path d="M93.1533 212.215L93.8117 211.718L94.3926 211.1L93.1533 212.215Z" fill="#FFEF6B"/>
<path d="M88.9932 196.077L90.8978 195.285L89.9729 195.092L88.9932 196.077Z" fill="#FDE68A"/>
<path d="M88.0676 195.882L87.1816 195.845L86.3433 195.956L88.0676 195.882Z" fill="#FFEF6B"/>
<path d="M94.8873 210.368L96.7761 209.54L97.1774 208.704L94.8873 210.368ZM88.0679 195.882L88.9934 196.077L89.9732 195.092L88.0679 195.882ZM94.8873 210.368L94.3922 211.1L96.7761 209.54L94.8873 210.368Z" fill="#FDE68A"/>
<path d="M93.1533 212.216L94.3926 211.1L95.2885 209.531L93.1533 212.216Z" fill="#FFEF6B"/>
<path d="M89.9214 196.425L91.8252 195.632L90.8988 195.286L89.9214 196.425Z" fill="#FDE68A"/>
<path d="M91.6567 197.515L88.0676 195.883L84.8413 196.594L91.6567 197.515Z" fill="#FFEF6B"/>
<path d="M95.2878 209.531L97.1772 208.704L97.4757 207.77L95.2878 209.531ZM88.9932 196.077L89.9204 196.425L90.8978 195.286L88.9932 196.077ZM95.2878 209.531L94.887 210.369L97.1772 208.704L95.2878 209.531ZM90.8111 196.908L92.714 196.113L91.8242 195.632L90.8111 196.908Z" fill="#FDE68A"/>
<path d="M94.3916 211.1L94.8867 210.369L95.2875 209.531L94.3916 211.1Z" fill="#FFEF6B"/>
<path d="M95.5859 208.595L97.476 207.77L97.6632 206.744L95.5859 208.595Z" fill="#FDE68A"/>
<path d="M89.9204 196.425L88.9932 196.078L88.0676 195.883L89.9204 196.425ZM95.7794 205.306L91.6567 197.515L84.8413 196.594L95.7794 205.306Z" fill="#FFEF6B"/>
<path d="M89.9214 196.425L90.8121 196.908L91.8252 195.632L89.9214 196.425Z" fill="#FDE68A"/>
<path d="M93.1533 212.215L95.2885 209.531L95.7801 205.306L93.1533 212.215Z" fill="#FFEF6B"/>
<path d="M95.5853 208.595L95.2874 209.531L97.4753 207.769L95.5853 208.595ZM91.6562 197.515L93.5582 196.717L92.7136 196.113L91.6562 197.515ZM95.7717 207.567L97.6626 206.744L97.73 205.635L95.7717 207.567Z" fill="#FDE68A"/>
<path d="M91.657 197.515L89.9207 196.425L88.0679 195.883L91.657 197.515Z" fill="#FFEF6B"/>
<path d="M92.4486 198.232L94.3496 197.432L93.5586 196.717L92.4486 198.232ZM90.811 196.908L91.6566 197.515L92.714 196.113L90.811 196.908ZM95.7721 207.567L95.5856 208.595L97.663 206.744L95.7721 207.567ZM95.8386 206.456L97.7304 205.635L97.6722 204.487L95.8386 206.456ZM93.1785 199.048L95.0783 198.246L94.3496 197.432L93.1785 199.048Z" fill="#FDE68A"/>
<path d="M95.2881 209.532L95.586 208.595L95.7724 207.568L95.2881 209.532Z" fill="#FFEF6B"/>
<path d="M95.779 205.306L97.6718 204.487L97.493 203.349L95.779 205.306ZM91.6562 197.515L92.4483 198.232L93.5582 196.717L91.6562 197.515Z" fill="#FDE68A"/>
<path d="M91.6577 197.515L90.8121 196.908L89.9214 196.425L91.6577 197.515Z" fill="#FFEF6B"/>
<path d="M95.8392 206.456L95.7727 207.567L97.731 205.635L95.8392 206.456ZM93.8384 199.95L95.737 199.146L95.0789 198.246L93.8384 199.95ZM95.6001 204.165L97.494 203.349L97.2028 202.233L95.6001 204.165ZM94.4185 200.926L96.316 200.118L95.737 199.146L94.4185 200.926Z" fill="#FDE68A"/>
<path d="M95.2881 209.531L95.7724 207.567L95.7797 205.306L95.2881 209.531Z" fill="#FFEF6B"/>
<path d="M95.3077 203.046L97.2028 202.233L96.8073 201.152L95.3077 203.046ZM94.911 201.962L96.8073 201.152L96.3159 200.118L94.911 201.962ZM92.4492 198.232L93.1791 199.048L94.3501 197.433L92.4492 198.232ZM95.7799 205.306L95.8392 206.456L97.6728 204.487L95.7799 205.306ZM93.1791 199.048L93.8383 199.95L95.0789 198.246L93.1791 199.048ZM95.6 204.165L95.7799 205.306L97.494 203.349L95.6 204.165Z" fill="#FDE68A"/>
<path d="M95.7725 207.567L95.839 206.456L95.7797 205.306L95.7725 207.567Z" fill="#FFEF6B"/>
<path d="M93.8384 199.95L94.4185 200.926L95.737 199.146L93.8384 199.95ZM95.3077 203.046L95.6001 204.164L97.2028 202.233L95.3077 203.046Z" fill="#FDE68A"/>
<path d="M93.1781 199.048L92.4483 198.232L91.6562 197.515L93.1781 199.048Z" fill="#FFEF6B"/>
<path d="M94.4175 200.926L94.91 201.962L96.3149 200.118L94.4175 200.926ZM94.91 201.962L95.3067 203.045L96.8063 201.151L94.91 201.962Z" fill="#FDE68A"/>
<path d="M95.779 205.306L94.4175 200.926L91.6562 197.515L95.779 205.306ZM94.4175 200.926L93.1781 199.048L91.6562 197.515L94.4175 200.926ZM95.779 205.306L95.5991 204.165L95.3067 203.046L95.779 205.306ZM94.4175 200.926L93.8374 199.95L93.1781 199.048L94.4175 200.926ZM95.779 205.306L95.3067 203.046L94.4175 200.926L95.779 205.306ZM95.3067 203.046L94.9101 201.962L94.4175 200.926L95.3067 203.046Z" fill="#FFEF6B"/>
<path d="M75.6231 209.305L76.0146 210.373L76.4992 211.393L75.6231 209.305ZM75.1507 207.078L75.6231 209.305L76.4992 211.393L75.1507 207.078ZM76.4992 211.393L77.0689 212.356L77.7159 213.248L76.4992 211.393ZM75.1507 207.078L75.3325 208.203L75.6231 209.305L75.1507 207.078ZM76.4992 211.393L77.7159 213.248L79.2114 214.772L76.4992 211.393ZM75.1507 207.078L76.4992 211.393L79.2114 214.772L75.1507 207.078ZM77.7159 213.248L78.4327 214.057L79.2114 214.772L77.7159 213.248ZM75.1437 204.841L75.0859 205.942L75.1507 207.078L75.1437 204.841ZM75.6043 202.886L75.1437 204.841L75.1507 207.078L75.6043 202.886ZM79.2114 214.772L80.0443 215.381L80.9239 215.871L79.2114 214.772ZM75.6043 202.886L75.319 203.82L75.1437 204.841L75.6043 202.886ZM77.6904 200.17L75.1507 207.078L79.2114 214.772L77.6904 200.17ZM79.2114 214.772L80.9239 215.871L82.7624 216.438L79.2114 214.772ZM77.6904 200.17L75.6043 202.886L75.1507 207.078L77.6904 200.17ZM80.9239 215.871L81.8423 216.229L82.7624 216.438L80.9239 215.871ZM76.4737 201.309L75.9917 202.046L75.6043 202.886L76.4737 201.309ZM79.2114 214.772L82.7624 216.438L86.0018 215.791L79.2114 214.772ZM77.6904 200.17L76.4737 201.309L75.6043 202.886L77.6904 200.17ZM82.7624 216.438L83.6465 216.492L84.4866 216.397L82.7624 216.438ZM77.6904 200.17L77.0425 200.681L76.4737 201.309L77.6904 200.17Z" fill="#FFEF6B"/>
<path d="M85.2739 216.161L87.1621 215.33L87.8893 214.96L85.2739 216.161Z" fill="#FDE68A"/>
<path d="M82.7632 216.438L84.4875 216.397L86.0026 215.791L82.7632 216.438Z" fill="#FFEF6B"/>
<path d="M79.1919 199.532L81.098 198.743L80.3154 198.995L79.1919 199.532ZM86.0013 215.791L87.8894 214.96L88.5478 214.463L86.0013 215.791ZM78.4092 199.784L79.1919 199.532L80.3154 198.995L78.4092 199.784ZM86.0013 215.791L85.274 216.161L87.8894 214.96L86.0013 215.791Z" fill="#FDE68A"/>
<path d="M84.4868 216.397L85.2747 216.161L86.0019 215.791L84.4868 216.397Z" fill="#FFEF6B"/>
<path d="M80.0303 199.421L81.936 198.631L81.098 198.743L80.0303 199.421Z" fill="#FDE68A"/>
<path d="M77.6904 200.17L79.2114 214.773L88.6286 208.882L77.6904 200.17ZM79.1924 199.532L78.4097 199.785L77.6904 200.17L79.1924 199.532Z" fill="#FFEF6B"/>
<path d="M86.6596 215.294L88.5478 214.463L89.129 213.846L86.6596 215.294ZM79.1919 199.532L80.0302 199.42L81.098 198.743L79.1919 199.532Z" fill="#FDE68A"/>
<path d="M79.2109 214.772L86.0013 215.791L88.6281 208.881L79.2109 214.772Z" fill="#FFEF6B"/>
<path d="M86.6603 215.294L86.002 215.791L88.5485 214.463L86.6603 215.294ZM80.917 199.458L82.8223 198.668L81.9368 198.631L80.917 199.458Z" fill="#FDE68A"/>
<path d="M80.9168 199.458L79.1924 199.532L77.6904 200.17L80.9168 199.458Z" fill="#FFEF6B"/>
<path d="M87.2406 214.676L89.129 213.846L89.6245 213.116L87.2406 214.676ZM80.0303 199.421L80.9163 199.458L81.936 198.631L80.0303 199.421ZM87.2406 214.676L86.6596 215.294L89.129 213.846L87.2406 214.676Z" fill="#FDE68A"/>
<path d="M86.002 215.791L86.6603 215.294L87.2413 214.676L86.002 215.791Z" fill="#FFEF6B"/>
<path d="M81.8418 199.653L83.7464 198.861L82.8215 198.667L81.8418 199.653Z" fill="#FDE68A"/>
<path d="M80.9162 199.458L80.0302 199.42L79.1919 199.532L80.9162 199.458Z" fill="#FFEF6B"/>
<path d="M87.7364 213.944L89.6253 213.115L90.0266 212.279L87.7364 213.944ZM80.917 199.458L81.8426 199.653L82.8223 198.667L80.917 199.458ZM87.7364 213.944L87.2413 214.675L89.6253 213.115L87.7364 213.944Z" fill="#FDE68A"/>
<path d="M86.002 215.791L87.2413 214.676L88.1371 213.107L86.002 215.791Z" fill="#FFEF6B"/>
<path d="M82.77 200.001L84.6739 199.207L83.7474 198.861L82.77 200.001Z" fill="#FDE68A"/>
<path d="M84.5059 201.091L80.9168 199.458L77.6904 200.17L84.5059 201.091Z" fill="#FFEF6B"/>
<path d="M88.1364 213.107L90.0258 212.28L90.3243 211.345L88.1364 213.107ZM81.8418 199.653L82.769 200.001L83.7464 198.861L81.8418 199.653ZM88.1364 213.107L87.7357 213.944L90.0258 212.28L88.1364 213.107ZM83.6597 200.484L85.5627 199.689L84.6729 199.207L83.6597 200.484Z" fill="#FDE68A"/>
<path d="M87.2407 214.676L87.7358 213.944L88.1366 213.107L87.2407 214.676Z" fill="#FFEF6B"/>
<path d="M88.4351 212.171L90.3251 211.345L90.5124 210.32L88.4351 212.171Z" fill="#FDE68A"/>
<path d="M82.7696 200.001L81.8423 199.653L80.9168 199.458L82.7696 200.001ZM88.6286 208.882L84.5059 201.091L77.6904 200.17L88.6286 208.882Z" fill="#FFEF6B"/>
<path d="M82.77 200.001L83.6607 200.484L84.6739 199.208L82.77 200.001Z" fill="#FDE68A"/>
<path d="M86.002 215.791L88.1371 213.107L88.6287 208.881L86.002 215.791Z" fill="#FFEF6B"/>
<path d="M88.4339 212.171L88.136 213.107L90.3239 211.345L88.4339 212.171ZM84.5049 201.09L86.4068 200.293L85.5622 199.688L84.5049 201.09ZM88.6203 211.143L90.5112 210.32L90.5787 209.211L88.6203 211.143Z" fill="#FDE68A"/>
<path d="M84.5061 201.091L82.7698 200.001L80.917 199.458L84.5061 201.091Z" fill="#FFEF6B"/>
<path d="M85.2978 201.808L87.1987 201.008L86.4077 200.293L85.2978 201.808ZM83.6602 200.484L84.5058 201.09L85.5631 199.688L83.6602 200.484ZM88.6212 211.143L88.4348 212.171L90.5121 210.32L88.6212 211.143ZM88.6877 210.032L90.5795 209.211L90.5213 208.063L88.6877 210.032ZM86.0276 202.624L87.9274 201.822L87.1987 201.008L86.0276 202.624Z" fill="#FDE68A"/>
<path d="M88.1372 213.107L88.4351 212.171L88.6216 211.144L88.1372 213.107Z" fill="#FFEF6B"/>
<path d="M88.6276 208.882L90.5204 208.063L90.3417 206.925L88.6276 208.882ZM84.5049 201.091L85.2969 201.808L86.4068 200.293L84.5049 201.091Z" fill="#FDE68A"/>
<path d="M84.5063 201.091L83.6607 200.484L82.77 200.001L84.5063 201.091Z" fill="#FFEF6B"/>
<path d="M88.6884 210.032L88.6218 211.143L90.5802 209.211L88.6884 210.032ZM86.6875 203.526L88.5861 202.721L87.9281 201.822L86.6875 203.526ZM88.4492 207.74L90.3432 206.925L90.0519 205.808L88.4492 207.74ZM87.2676 204.501L89.1651 203.694L88.5861 202.721L87.2676 204.501Z" fill="#FDE68A"/>
<path d="M88.1372 213.107L88.6216 211.143L88.6288 208.881L88.1372 213.107Z" fill="#FFEF6B"/>
<path d="M88.1563 206.621L90.0514 205.809L89.6559 204.727L88.1563 206.621ZM87.7597 205.537L89.6559 204.727L89.1645 203.694L87.7597 205.537ZM85.2979 201.808L86.0277 202.624L87.1988 201.008L85.2979 201.808ZM88.6286 208.881L88.6878 210.032L90.5214 208.063L88.6286 208.881ZM86.0277 202.624L86.687 203.526L87.9275 201.822L86.0277 202.624ZM88.4487 207.74L88.6286 208.881L90.3426 206.925L88.4487 207.74Z" fill="#FDE68A"/>
<path d="M88.6211 211.143L88.6876 210.032L88.6283 208.881L88.6211 211.143Z" fill="#FFEF6B"/>
<path d="M86.6875 203.526L87.2676 204.501L88.5861 202.721L86.6875 203.526ZM88.1568 206.621L88.4492 207.74L90.0519 205.808L88.1568 206.621Z" fill="#FDE68A"/>
<path d="M86.0268 202.624L85.2969 201.808L84.5049 201.09L86.0268 202.624Z" fill="#FFEF6B"/>
<path d="M87.2666 204.502L87.7592 205.538L89.1641 203.694L87.2666 204.502ZM87.7592 205.538L88.1558 206.622L89.6554 204.728L87.7592 205.538Z" fill="#FDE68A"/>
<path d="M88.6276 208.881L87.2661 204.501L84.5049 201.09L88.6276 208.881ZM87.2661 204.501L86.0268 202.624L84.5049 201.09L87.2661 204.501ZM88.6276 208.881L88.4477 207.74L88.1553 206.621L88.6276 208.881ZM87.2661 204.501L86.686 203.526L86.0268 202.624L87.2661 204.501ZM88.6276 208.881L88.1553 206.621L87.2661 204.501L88.6276 208.881ZM88.1553 206.621L87.7587 205.537L87.2661 204.501L88.1553 206.621Z" fill="#FFEF6B"/>
<path d="M68.4717 214.072L68.8633 215.14L69.3478 216.16L68.4717 214.072ZM67.9994 211.845L68.4717 214.072L69.3478 216.16L67.9994 211.845ZM69.3478 216.16L69.9175 217.123L70.5646 218.015L69.3478 216.16ZM67.9994 211.845L68.1811 212.97L68.4717 214.072L67.9994 211.845ZM69.3478 216.16L70.5646 218.015L72.06 219.539L69.3478 216.16ZM67.9994 211.845L69.3478 216.16L72.06 219.539L67.9994 211.845ZM70.5646 218.015L71.2813 218.824L72.06 219.539L70.5646 218.015ZM67.9923 209.608L67.9346 210.709L67.9994 211.845L67.9923 209.608ZM68.4529 207.653L67.9923 209.608L67.9994 211.845L68.4529 207.653ZM72.06 219.539L72.893 220.148L73.7725 220.638L72.06 219.539ZM68.4529 207.653L68.1677 208.587L67.9923 209.608L68.4529 207.653ZM70.539 204.937L67.9994 211.845L72.06 219.539L70.539 204.937ZM72.06 219.539L73.7725 220.638L75.611 221.205L72.06 219.539ZM70.539 204.937L68.4529 207.653L67.9994 211.845L70.539 204.937ZM73.7725 220.638L74.6909 220.996L75.611 221.205L73.7725 220.638ZM69.3223 206.076L68.8403 206.814L68.4529 207.653L69.3223 206.076ZM72.06 219.539L75.611 221.205L78.8504 220.558L72.06 219.539ZM70.539 204.937L69.3223 206.076L68.4529 207.653L70.539 204.937ZM75.611 221.205L76.4952 221.259L77.3353 221.164L75.611 221.205ZM70.539 204.937L69.8911 205.448L69.3223 206.076L70.539 204.937Z" fill="#FFEF6B"/>
<path d="M78.1226 220.929L80.0107 220.097L80.7379 219.727L78.1226 220.929Z" fill="#FDE68A"/>
<path d="M75.6118 221.205L77.3361 221.164L78.8512 220.558L75.6118 221.205Z" fill="#FFEF6B"/>
<path d="M72.0406 204.299L73.9466 203.51L73.1641 203.762L72.0406 204.299ZM78.8499 220.558L80.738 219.727L81.3965 219.23L78.8499 220.558ZM71.2578 204.551L72.0406 204.299L73.1641 203.762L71.2578 204.551ZM78.8499 220.558L78.1226 220.928L80.738 219.727L78.8499 220.558Z" fill="#FDE68A"/>
<path d="M77.3354 221.164L78.1233 220.928L78.8506 220.558L77.3354 221.164Z" fill="#FFEF6B"/>
<path d="M72.8789 204.188L74.7847 203.398L73.9466 203.51L72.8789 204.188Z" fill="#FDE68A"/>
<path d="M70.5391 204.937L72.06 219.54L81.4772 213.649L70.5391 204.937ZM72.0411 204.299L71.2583 204.552L70.5391 204.937L72.0411 204.299Z" fill="#FFEF6B"/>
<path d="M79.5087 220.061L81.3969 219.23L81.9781 218.613L79.5087 220.061ZM72.041 204.299L72.8794 204.188L73.9471 203.51L72.041 204.299Z" fill="#FDE68A"/>
<path d="M72.0596 219.539L78.8499 220.558L81.4767 213.648L72.0596 219.539Z" fill="#FFEF6B"/>
<path d="M79.509 220.061L78.8506 220.558L81.3972 219.23L79.509 220.061ZM73.7656 204.225L75.6709 203.435L74.7854 203.398L73.7656 204.225Z" fill="#FDE68A"/>
<path d="M73.7654 204.226L72.0411 204.299L70.5391 204.937L73.7654 204.226Z" fill="#FFEF6B"/>
<path d="M80.0892 219.443L81.9777 218.613L82.4732 217.883L80.0892 219.443ZM72.8789 204.188L73.7649 204.225L74.7847 203.398L72.8789 204.188ZM80.0892 219.443L79.5082 220.061L81.9777 218.613L80.0892 219.443Z" fill="#FDE68A"/>
<path d="M78.8511 220.558L79.5094 220.061L80.0904 219.443L78.8511 220.558Z" fill="#FFEF6B"/>
<path d="M74.6909 204.42L76.5956 203.628L75.6706 203.435L74.6909 204.42Z" fill="#FDE68A"/>
<path d="M73.7654 204.225L72.8794 204.188L72.041 204.299L73.7654 204.225Z" fill="#FFEF6B"/>
<path d="M80.5851 218.711L82.4739 217.882L82.8752 217.047L80.5851 218.711ZM73.7656 204.225L74.6912 204.42L75.6709 203.435L73.7656 204.225ZM80.5851 218.711L80.0899 219.442L82.4739 217.882L80.5851 218.711Z" fill="#FDE68A"/>
<path d="M78.8511 220.558L80.0904 219.443L80.9863 217.874L78.8511 220.558Z" fill="#FFEF6B"/>
<path d="M75.6191 204.768L77.523 203.975L76.5965 203.628L75.6191 204.768Z" fill="#FDE68A"/>
<path d="M77.3545 205.858L73.7654 204.226L70.5391 204.937L77.3545 205.858Z" fill="#FFEF6B"/>
<path d="M80.9856 217.874L82.8749 217.047L83.1735 216.113L80.9856 217.874ZM74.6909 204.42L75.6181 204.768L76.5956 203.628L74.6909 204.42ZM80.9856 217.874L80.5848 218.712L82.8749 217.047L80.9856 217.874ZM76.5088 205.251L78.4118 204.456L77.522 203.975L76.5088 205.251Z" fill="#FDE68A"/>
<path d="M80.0894 219.443L80.5845 218.711L80.9852 217.874L80.0894 219.443Z" fill="#FFEF6B"/>
<path d="M81.2837 216.938L83.1737 216.112L83.361 215.087L81.2837 216.938Z" fill="#FDE68A"/>
<path d="M75.6182 204.768L74.691 204.42L73.7654 204.226L75.6182 204.768ZM81.4772 213.649L77.3545 205.858L70.5391 204.937L81.4772 213.649Z" fill="#FFEF6B"/>
<path d="M75.6191 204.768L76.5098 205.251L77.523 203.975L75.6191 204.768Z" fill="#FDE68A"/>
<path d="M78.8511 220.558L80.9863 217.874L81.4779 213.648L78.8511 220.558Z" fill="#FFEF6B"/>
<path d="M81.283 216.938L80.9851 217.874L83.173 216.112L81.283 216.938ZM77.354 205.857L79.256 205.06L78.4113 204.456L77.354 205.857ZM81.4695 215.91L83.3603 215.087L83.4278 213.978L81.4695 215.91Z" fill="#FDE68A"/>
<path d="M77.3547 205.858L75.6184 204.768L73.7656 204.226L77.3547 205.858Z" fill="#FFEF6B"/>
<path d="M78.1464 206.575L80.0473 205.775L79.2564 205.06L78.1464 206.575ZM76.5088 205.251L77.3544 205.857L78.4117 204.456L76.5088 205.251ZM81.4699 215.91L81.2834 216.938L83.3607 215.087L81.4699 215.91ZM81.5364 214.799L83.4282 213.978L83.37 212.83L81.5364 214.799ZM78.8763 207.391L80.7761 206.589L80.0473 205.775L78.8763 207.391Z" fill="#FDE68A"/>
<path d="M80.9858 217.874L81.2837 216.938L81.4702 215.911L80.9858 217.874Z" fill="#FFEF6B"/>
<path d="M81.4767 213.649L83.3696 212.831L83.1908 211.692L81.4767 213.649ZM77.354 205.858L78.146 206.575L79.256 205.061L77.354 205.858Z" fill="#FDE68A"/>
<path d="M77.3554 205.858L76.5098 205.251L75.6191 204.768L77.3554 205.858Z" fill="#FFEF6B"/>
<path d="M81.537 214.799L81.4705 215.911L83.4288 213.978L81.537 214.799ZM79.5361 208.293L81.4348 207.489L80.7767 206.589L79.5361 208.293ZM81.2978 212.508L83.1918 211.692L82.9006 210.576L81.2978 212.508ZM80.1163 209.269L82.0137 208.462L81.4348 207.489L80.1163 209.269Z" fill="#FDE68A"/>
<path d="M80.9858 217.874L81.4702 215.91L81.4774 213.648L80.9858 217.874Z" fill="#FFEF6B"/>
<path d="M81.0049 211.388L82.9 210.576L82.5046 209.494L81.0049 211.388ZM80.6083 210.305L82.5046 209.494L82.0132 208.461L80.6083 210.305ZM78.1465 206.575L78.8764 207.391L80.0474 205.775L78.1465 206.575ZM81.4772 213.649L81.5365 214.799L83.37 212.83L81.4772 213.649ZM78.8764 207.391L79.5356 208.293L80.7762 206.589L78.8764 207.391ZM81.2973 212.507L81.4772 213.649L83.1912 211.692L81.2973 212.507Z" fill="#FDE68A"/>
<path d="M81.4697 215.91L81.5362 214.799L81.477 213.648L81.4697 215.91Z" fill="#FFEF6B"/>
<path d="M79.5361 208.293L80.1163 209.269L81.4348 207.489L79.5361 208.293ZM81.0055 211.389L81.2978 212.508L82.9006 210.576L81.0055 211.389Z" fill="#FDE68A"/>
<path d="M78.8759 207.391L78.146 206.575L77.354 205.857L78.8759 207.391Z" fill="#FFEF6B"/>
<path d="M80.1152 209.269L80.6078 210.305L82.0127 208.461L80.1152 209.269ZM80.6078 210.305L81.0044 211.389L82.5041 209.495L80.6078 210.305Z" fill="#FDE68A"/>
<path d="M81.4767 213.649L80.1152 209.269L77.354 205.857L81.4767 213.649ZM80.1152 209.269L78.8759 207.391L77.354 205.857L80.1152 209.269ZM81.4767 213.649L81.2968 212.507L81.0044 211.388L81.4767 213.649ZM80.1152 209.269L79.5351 208.293L78.8759 207.391L80.1152 209.269ZM81.4767 213.649L81.0044 211.388L80.1152 209.269L81.4767 213.649ZM81.0044 211.388L80.6078 210.305L80.1152 209.269L81.0044 211.388Z" fill="#FFEF6B"/>
<path d="M60.129 218.84L60.5205 219.907L61.005 220.928L60.129 218.84ZM59.6566 216.613L60.129 218.84L61.005 220.928L59.6566 216.613ZM61.005 220.928L61.5747 221.89L62.2218 222.782L61.005 220.928ZM59.6566 216.613L59.8384 217.738L60.129 218.84L59.6566 216.613ZM61.005 220.928L62.2218 222.782L63.7172 224.307L61.005 220.928ZM59.6566 216.613L61.005 220.928L63.7172 224.307L59.6566 216.613ZM62.2218 222.782L62.9386 223.592L63.7172 224.307L62.2218 222.782ZM59.6495 214.376L59.5918 215.477L59.6566 216.613L59.6495 214.376ZM60.1101 212.421L59.6495 214.376L59.6566 216.613L60.1101 212.421ZM63.7172 224.307L64.5502 224.916L65.4297 225.405L63.7172 224.307ZM60.1101 212.421L59.8249 213.355L59.6495 214.376L60.1101 212.421ZM62.1963 209.705L59.6566 216.613L63.7172 224.307L62.1963 209.705ZM63.7172 224.307L65.4297 225.405L67.2682 225.973L63.7172 224.307ZM62.1963 209.705L60.1101 212.421L59.6566 216.613L62.1963 209.705ZM65.4297 225.405L66.3482 225.764L67.2682 225.973L65.4297 225.405ZM60.9795 210.843L60.4976 211.581L60.1101 212.421L60.9795 210.843ZM63.7172 224.307L67.2682 225.973L70.5076 225.326L63.7172 224.307ZM62.1963 209.705L60.9795 210.843L60.1101 212.421L62.1963 209.705ZM67.2682 225.973L68.1524 226.026L68.9925 225.932L67.2682 225.973ZM62.1963 209.705L61.5483 210.215L60.9795 210.843L62.1963 209.705Z" fill="#FFEF6B"/>
<path d="M69.7798 225.696L71.6679 224.865L72.3952 224.495L69.7798 225.696Z" fill="#FDE68A"/>
<path d="M67.269 225.972L68.9933 225.932L70.5084 225.326L67.269 225.972Z" fill="#FFEF6B"/>
<path d="M63.6978 209.067L65.6039 208.277L64.8213 208.53L63.6978 209.067ZM70.5071 225.326L72.3953 224.495L73.0537 223.997L70.5071 225.326ZM62.915 209.319L63.6978 209.067L64.8213 208.53L62.915 209.319ZM70.5071 225.326L69.7799 225.696L72.3953 224.495L70.5071 225.326Z" fill="#FDE68A"/>
<path d="M68.9927 225.932L69.7805 225.696L70.5078 225.326L68.9927 225.932Z" fill="#FFEF6B"/>
<path d="M64.5361 208.955L66.4419 208.166L65.6039 208.277L64.5361 208.955Z" fill="#FDE68A"/>
<path d="M62.1963 209.705L63.7173 224.307L73.1344 218.417L62.1963 209.705ZM63.6983 209.067L62.9155 209.319L62.1963 209.705L63.6983 209.067Z" fill="#FFEF6B"/>
<path d="M71.1659 224.828L73.0541 223.997L73.6353 223.38L71.1659 224.828ZM63.6982 209.067L64.5366 208.955L65.6043 208.277L63.6982 209.067Z" fill="#FDE68A"/>
<path d="M63.7168 224.307L70.5072 225.326L73.1339 218.416L63.7168 224.307Z" fill="#FFEF6B"/>
<path d="M71.1662 224.828L70.5079 225.326L73.0544 223.997L71.1662 224.828ZM65.4229 208.993L67.3281 208.202L66.4426 208.166L65.4229 208.993Z" fill="#FDE68A"/>
<path d="M65.4226 208.993L63.6983 209.067L62.1963 209.705L65.4226 208.993Z" fill="#FFEF6B"/>
<path d="M71.7464 224.21L73.6349 223.38L74.1304 222.65L71.7464 224.21ZM64.5361 208.955L65.4221 208.993L66.4419 208.166L64.5361 208.955ZM71.7464 224.21L71.1655 224.828L73.6349 223.38L71.7464 224.21Z" fill="#FDE68A"/>
<path d="M70.5083 225.326L71.1666 224.828L71.7476 224.21L70.5083 225.326Z" fill="#FFEF6B"/>
<path d="M66.3481 209.187L68.2528 208.396L67.3279 208.202L66.3481 209.187Z" fill="#FDE68A"/>
<path d="M65.4226 208.993L64.5366 208.955L63.6982 209.066L65.4226 208.993Z" fill="#FFEF6B"/>
<path d="M72.2423 223.479L74.1311 222.65L74.5324 221.814L72.2423 223.479ZM65.4229 208.993L66.3484 209.187L67.3281 208.202L65.4229 208.993ZM72.2423 223.479L71.7472 224.21L74.1311 222.65L72.2423 223.479Z" fill="#FDE68A"/>
<path d="M70.5083 225.326L71.7476 224.21L72.6435 222.642L70.5083 225.326Z" fill="#FFEF6B"/>
<path d="M67.2764 209.535L69.1802 208.742L68.2538 208.396L67.2764 209.535Z" fill="#FDE68A"/>
<path d="M69.0117 210.625L65.4226 208.993L62.1963 209.705L69.0117 210.625Z" fill="#FFEF6B"/>
<path d="M72.6428 222.642L74.5321 221.814L74.8307 220.88L72.6428 222.642ZM66.3481 209.188L67.2754 209.535L68.2528 208.396L66.3481 209.188ZM72.6428 222.642L72.242 223.479L74.5321 221.814L72.6428 222.642ZM68.1661 210.019L70.069 209.224L69.1792 208.742L68.1661 210.019Z" fill="#FDE68A"/>
<path d="M71.7466 224.21L72.2417 223.479L72.6425 222.642L71.7466 224.21Z" fill="#FFEF6B"/>
<path d="M72.9409 221.705L74.831 220.88L75.0182 219.854L72.9409 221.705Z" fill="#FDE68A"/>
<path d="M67.2754 209.536L66.3482 209.188L65.4226 208.993L67.2754 209.536ZM73.1344 218.416L69.0117 210.625L62.1963 209.705L73.1344 218.416Z" fill="#FFEF6B"/>
<path d="M67.2764 209.536L68.167 210.019L69.1802 208.742L67.2764 209.536Z" fill="#FDE68A"/>
<path d="M70.5083 225.326L72.6435 222.641L73.1351 218.416L70.5083 225.326Z" fill="#FFEF6B"/>
<path d="M72.9402 221.705L72.6423 222.641L74.8303 220.88L72.9402 221.705ZM69.0112 210.625L70.9132 209.828L70.0686 209.223L69.0112 210.625ZM73.1267 220.678L75.0175 219.854L75.085 218.745L73.1267 220.678Z" fill="#FDE68A"/>
<path d="M69.0119 210.625L67.2757 209.536L65.4229 208.993L69.0119 210.625Z" fill="#FFEF6B"/>
<path d="M69.8036 211.342L71.7045 210.543L70.9136 209.828L69.8036 211.342ZM68.166 210.018L69.0116 210.625L70.069 209.223L68.166 210.018ZM73.1271 220.678L72.9406 221.705L75.0179 219.854L73.1271 220.678ZM73.1936 219.566L75.0854 218.745L75.0272 217.598L73.1936 219.566ZM70.5335 212.159L72.4333 211.356L71.7045 210.543L70.5335 212.159Z" fill="#FDE68A"/>
<path d="M72.6431 222.642L72.9409 221.706L73.1274 220.678L72.6431 222.642Z" fill="#FFEF6B"/>
<path d="M73.1339 218.416L75.0268 217.598L74.848 216.459L73.1339 218.416ZM69.0112 210.625L69.8032 211.342L70.9132 209.828L69.0112 210.625Z" fill="#FDE68A"/>
<path d="M69.0127 210.625L68.167 210.019L67.2764 209.536L69.0127 210.625Z" fill="#FFEF6B"/>
<path d="M73.1942 219.566L73.1277 220.678L75.086 218.745L73.1942 219.566ZM71.1934 213.061L73.092 212.256L72.4339 211.356L71.1934 213.061ZM72.9551 217.275L74.849 216.459L74.5578 215.343L72.9551 217.275ZM71.7735 214.036L73.6709 213.229L73.092 212.256L71.7735 214.036Z" fill="#FDE68A"/>
<path d="M72.6431 222.641L73.1274 220.678L73.1347 218.416L72.6431 222.641Z" fill="#FFEF6B"/>
<path d="M72.6621 216.156L74.5572 215.343L74.1618 214.262L72.6621 216.156ZM72.2655 215.072L74.1618 214.262L73.6704 213.229L72.2655 215.072ZM69.8037 211.343L70.5336 212.159L71.7046 210.543L69.8037 211.343ZM73.1344 218.416L73.1937 219.567L75.0273 217.598L73.1344 218.416ZM70.5336 212.159L71.1928 213.061L72.4334 211.357L70.5336 212.159ZM72.9545 217.275L73.1344 218.416L74.8485 216.459L72.9545 217.275Z" fill="#FDE68A"/>
<path d="M73.127 220.678L73.1935 219.566L73.1342 218.416L73.127 220.678Z" fill="#FFEF6B"/>
<path d="M71.1934 213.061L71.7735 214.036L73.092 212.256L71.1934 213.061ZM72.6627 216.156L72.9551 217.275L74.5578 215.343L72.6627 216.156Z" fill="#FDE68A"/>
<path d="M70.5331 212.159L69.8032 211.343L69.0112 210.625L70.5331 212.159Z" fill="#FFEF6B"/>
<path d="M71.7725 214.036L72.265 215.072L73.6699 213.229L71.7725 214.036ZM72.265 215.072L72.6617 216.156L74.1613 214.262L72.265 215.072Z" fill="#FDE68A"/>
<path d="M73.1339 218.416L71.7725 214.036L69.0112 210.625L73.1339 218.416ZM71.7725 214.036L70.5331 212.159L69.0112 210.625L71.7725 214.036ZM73.1339 218.416L72.954 217.275L72.6617 216.156L73.1339 218.416ZM71.7725 214.036L71.1923 213.061L70.5331 212.159L71.7725 214.036ZM73.1339 218.416L72.6617 216.156L71.7725 214.036L73.1339 218.416ZM72.6617 216.156L72.265 215.072L71.7725 214.036L72.6617 216.156Z" fill="#FFEF6B"/>
<rect x="78.3994" y="180.229" width="0.786615" height="26.7449" rx="0.393307" fill="#FDE68A"/>
<rect width="17.0195" height="13.1102" transform="translate(70.2827 172.148)" fill="#FCD34D"/>
<path d="M73.7334 179.194C73.7334 179.133 73.7641 179.102 73.8256 179.102H74.4294C74.4908 179.102 74.5231 179.133 74.5262 179.194C74.5262 179.483 74.6183 179.746 74.8027 179.982C74.9871 180.219 75.2467 180.374 75.5816 180.448V177.996C75.0163 177.833 74.5922 177.622 74.3095 177.364C74.0299 177.106 73.8901 176.741 73.8901 176.267C73.8901 175.77 74.0484 175.363 74.3648 175.046C74.6844 174.73 75.09 174.539 75.5816 174.475V173.691C75.5816 173.63 75.6124 173.599 75.6738 173.599H76.2776C76.3391 173.599 76.3713 173.63 76.3744 173.691V174.484C76.8906 174.561 77.2993 174.763 77.6004 175.092C77.9046 175.418 78.0567 175.803 78.0567 176.249C78.0567 176.31 78.0244 176.343 77.9599 176.346H77.3561C77.2947 176.346 77.2624 176.314 77.2593 176.249C77.2593 176.022 77.1779 175.814 77.0151 175.627C76.8522 175.436 76.6386 175.307 76.3744 175.24V177.438C77.0043 177.619 77.4729 177.833 77.7802 178.079C78.0874 178.325 78.2411 178.687 78.2411 179.167C78.2411 179.784 78.0659 180.267 77.7156 180.614C77.3684 180.958 76.9213 181.161 76.3744 181.222V181.997C76.3744 182.058 76.3421 182.09 76.2776 182.093H75.6738C75.6124 182.093 75.5816 182.061 75.5816 181.997V181.204C75.0224 181.127 74.5738 180.91 74.2358 180.554C73.9009 180.194 73.7334 179.741 73.7334 179.194ZM74.6829 176.212C74.6829 176.47 74.7581 176.675 74.9087 176.825C75.0623 176.976 75.2867 177.105 75.5816 177.212V175.23C75.3112 175.286 75.0931 175.402 74.9271 175.581C74.7643 175.756 74.6829 175.966 74.6829 176.212ZM76.3744 180.471C77.0903 180.37 77.4483 179.956 77.4483 179.231C77.4483 178.979 77.3561 178.775 77.1718 178.618C76.9874 178.461 76.7216 178.329 76.3744 178.222V180.471ZM78.8679 179.194C78.8679 179.133 78.8986 179.102 78.9601 179.102H79.5639C79.6253 179.102 79.6576 179.133 79.6607 179.194C79.6607 179.483 79.7528 179.746 79.9372 179.982C80.1216 180.219 80.3812 180.374 80.7161 180.448V177.996C80.1508 177.833 79.7267 177.622 79.444 177.364C79.1644 177.106 79.0246 176.741 79.0246 176.267C79.0246 175.77 79.1829 175.363 79.4993 175.046C79.8189 174.73 80.2245 174.539 80.7161 174.475V173.691C80.7161 173.63 80.7469 173.599 80.8083 173.599H81.4121C81.4736 173.599 81.5058 173.63 81.5089 173.691V174.484C82.0251 174.561 82.4338 174.763 82.7349 175.092C83.0391 175.418 83.1912 175.803 83.1912 176.249C83.1912 176.31 83.1589 176.343 83.0944 176.346H82.4906C82.4292 176.346 82.3969 176.314 82.3938 176.249C82.3938 176.022 82.3124 175.814 82.1496 175.627C81.9867 175.436 81.7732 175.307 81.5089 175.24V177.438C82.1388 177.619 82.6074 177.833 82.9147 178.079C83.2219 178.325 83.3756 178.687 83.3756 179.167C83.3756 179.784 83.2004 180.267 82.8501 180.614C82.5029 180.958 82.0558 181.161 81.5089 181.222V181.997C81.5089 182.058 81.4766 182.09 81.4121 182.093H80.8083C80.7469 182.093 80.7161 182.061 80.7161 181.997V181.204C80.1569 181.127 79.7083 180.91 79.3703 180.554C79.0354 180.194 78.8679 179.741 78.8679 179.194ZM79.8174 176.212C79.8174 176.47 79.8927 176.675 80.0432 176.825C80.1969 176.976 80.4212 177.105 80.7161 177.212V175.23C80.4457 175.286 80.2276 175.402 80.0617 175.581C79.8988 175.756 79.8174 175.966 79.8174 176.212ZM81.5089 180.471C82.2248 180.37 82.5828 179.956 82.5828 179.231C82.5828 178.979 82.4906 178.775 82.3063 178.618C82.1219 178.461 81.8561 178.329 81.5089 178.222V180.471Z" fill="#B45309"/>
<path d="M65.5514 217.7L30.3921 236.472L12.8125 245.857" stroke="#FCD34D" stroke-width="1.19184" stroke-linecap="round"/>
<path d="M0.510747 244.403L0.833491 245.267L1.22284 246.097L0.510747 244.403ZM0.0878334 242.603L0.510747 244.403L1.22284 246.097L0.0878334 242.603ZM1.22284 246.097L1.67348 246.884L2.18035 247.62L1.22284 246.097ZM0.0878334 242.603L0.260208 243.512L0.510747 244.403L0.0878334 242.603ZM1.22284 246.097L2.18035 247.62L3.34337 248.905L1.22284 246.097ZM2.18035 247.62L2.73855 248.297L3.34337 248.905L2.18035 247.62ZM2.57919e-05 240.842L0 241.682L0.0878334 242.603L2.57919e-05 240.842ZM0.232487 239.322L0.0878334 242.603L1.22284 246.097L0.232487 239.322ZM0.232487 239.322L2.57919e-05 240.842L0.0878334 242.603L0.232487 239.322ZM3.34337 248.905L3.99015 249.435L4.67431 249.876L3.34337 248.905ZM0.232487 239.322L0.078704 240.054L2.57919e-05 240.842L0.232487 239.322ZM0.751716 238.046L0.457948 238.651L0.232487 239.322L0.751716 238.046ZM3.75304 236.165L0.232487 239.322L1.22284 246.097L3.75304 236.165ZM1.53062 237.061L0.751716 238.046L0.232487 239.322L1.53062 237.061ZM1.53062 237.061L1.11042 237.514L0.751716 238.046L1.53062 237.061ZM3.75304 236.165L1.53062 237.061L0.232487 239.322L3.75304 236.165Z" fill="#0EA5E9"/>
<path d="M3.12402 236.236L5.006 235.588L4.42252 235.767L3.12402 236.236Z" fill="#0369A1"/>
<path d="M2.54104 236.415L2.00861 236.692L1.53044 237.061L2.54104 236.415ZM1.22266 246.097L3.34318 248.905L18.8079 255.51L1.22266 246.097Z" fill="#0EA5E9"/>
<path d="M2.5415 236.415L3.12431 236.237L4.4228 235.768L2.5415 236.415ZM3.75332 236.165L5.63501 235.514L5.00628 235.589L3.75332 236.165Z" fill="#0369A1"/>
<path d="M3.34351 248.905L4.67446 249.876L18.8082 255.509L3.34351 248.905ZM3.75319 236.165L2.54137 236.415L1.53076 237.061L3.75319 236.165Z" fill="#0EA5E9"/>
<path d="M3.12402 236.237L3.75304 236.165L5.006 235.589L3.12402 236.237ZM4.42383 236.207L6.30419 235.551L5.63473 235.514L4.42383 236.207Z" fill="#0369A1"/>
<path d="M4.67459 249.876L5.39159 250.218L18.8083 255.509L4.67459 249.876ZM3.75332 236.165L3.12431 236.237L2.5415 236.415L3.75332 236.165Z" fill="#0EA5E9"/>
<path d="M3.75293 236.165L4.42372 236.207L5.63462 235.514L3.75293 236.165Z" fill="#0369A1"/>
<path d="M4.35137 235.847L4.38622 236.027L4.42365 236.206L4.35137 235.847ZM4.28957 235.485L4.35137 235.847L4.42365 236.206L4.28957 235.485ZM4.28957 235.485L4.31915 235.667L4.35137 235.847L4.28957 235.485ZM4.19843 234.754L4.28957 235.485L4.42365 236.206L4.19843 234.754ZM4.2385 235.121L4.26268 235.303L4.28957 235.485L4.2385 235.121ZM4.19843 234.754L4.2385 235.121L4.28957 235.485L4.19843 234.754ZM4.19843 234.754L4.21707 234.937L4.2385 235.121L4.19843 234.754ZM4.16963 234.385L4.1826 234.57L4.19843 234.754L4.16963 234.385ZM4.1524 234.014L4.16963 234.385L4.19843 234.754L4.1524 234.014ZM4.1524 234.014L4.15956 234.2L4.16963 234.385L4.1524 234.014ZM3.75286 236.165L1.22266 246.097L23.2122 255.933L3.75286 236.165ZM4.90274 229.894L4.19843 234.754L4.42365 236.206L4.90274 229.894ZM4.31141 231.809L4.17527 232.879L4.1524 234.014L4.31141 231.809ZM4.90274 229.894L4.1524 234.014L4.19843 234.754L4.90274 229.894ZM4.90274 229.894L4.31141 231.809L4.1524 234.014L4.90274 229.894ZM4.90274 229.894L4.55557 230.811L4.31141 231.809L4.90274 229.894ZM1.22266 246.097L18.8079 255.509L23.2122 255.933L1.22266 246.097ZM4.42365 236.206L3.75286 236.165L23.2122 255.933L4.42365 236.206ZM5.88629 228.335L5.34797 229.065L4.90274 229.894L5.88629 228.335ZM7.22147 227.214L5.88629 228.335L4.90274 229.894L7.22147 227.214ZM7.22147 227.214L6.51259 227.714L5.88629 228.335L7.22147 227.214ZM16.5938 231.409L4.90274 229.894L4.42365 236.206L16.5938 231.409Z" fill="#0EA5E9"/>
<path d="M8.86377 226.624L10.7997 226.11L9.94499 226.332L8.86377 226.624Z" fill="#0369A1"/>
<path d="M10.76 226.667L7.22156 227.214L4.90283 229.894L10.76 226.667Z" fill="#0EA5E9"/>
<path d="M8.00732 226.846L8.86363 226.624L9.94484 226.332L8.00732 226.846Z" fill="#0369A1"/>
<path d="M18.8081 255.509L19.9539 255.876L21.077 256.067L18.8081 255.509ZM8.86369 226.624L8.00739 226.846L7.22168 227.214L8.86369 226.624Z" fill="#0EA5E9"/>
<path d="M9.78385 226.56L11.7165 226.043L10.7997 226.11L9.78385 226.56ZM8.86377 226.624L9.78385 226.56L10.7997 226.11L8.86377 226.624Z" fill="#0369A1"/>
<path d="M4.42383 236.206L23.2124 255.933L18.0633 235.486L4.42383 236.206ZM18.808 255.509L21.077 256.067L23.2124 255.933L18.808 255.509Z" fill="#0EA5E9"/>
<path d="M10.7603 226.667L12.688 226.144L11.7165 226.043L10.7603 226.667Z" fill="#0369A1"/>
<path d="M10.7601 226.667L8.86369 226.624L7.22168 227.214L10.7601 226.667Z" fill="#0EA5E9"/>
<path d="M9.78369 226.56L10.7601 226.667L11.7163 226.043L9.78369 226.56Z" fill="#0369A1"/>
<path d="M21.0769 256.067L22.1669 256.085L23.2123 255.933L21.0769 256.067ZM16.5939 231.41L10.76 226.667L4.90283 229.894L16.5939 231.41Z" fill="#0EA5E9"/>
<path d="M11.6055 226.897L13.5277 226.366L12.6878 226.144L11.6055 226.897Z" fill="#0369A1"/>
<path d="M18.0633 235.486L16.5939 231.409L4.42383 236.206L18.0633 235.486ZM10.7601 226.667L9.78374 226.56L8.86366 226.624L10.7601 226.667Z" fill="#0EA5E9"/>
<path d="M10.7603 226.667L11.6057 226.897L12.688 226.144L10.7603 226.667ZM12.4329 227.245L14.3488 226.704L13.5279 226.366L12.4329 227.245ZM11.6057 226.897L12.4329 227.245L13.5279 226.366L11.6057 226.897ZM13.2345 227.706L15.1432 227.153L14.3488 226.704L13.2345 227.706ZM14.003 228.271L15.9039 227.704L15.1432 227.153L14.003 228.271Z" fill="#0369A1"/>
<path d="M12.4329 227.246L11.6057 226.897L10.7603 226.667L12.4329 227.246Z" fill="#0EA5E9"/>
<path d="M12.4326 227.246L13.2342 227.706L14.3485 226.705L12.4326 227.246ZM25.1188 255.127L26.7845 254.006L27.6155 253.362L25.1188 255.127Z" fill="#0369A1"/>
<path d="M23.2124 255.933L24.2008 255.613L25.1189 255.127L23.2124 255.933Z" fill="#0EA5E9"/>
<path d="M14.7305 228.933L16.623 228.35L15.9036 227.704L14.7305 228.933Z" fill="#0369A1"/>
<path d="M14.003 228.272L12.4329 227.246L10.7603 226.667L14.003 228.272Z" fill="#0EA5E9"/>
<path d="M13.2344 227.706L14.0029 228.271L15.1431 227.153L13.2344 227.706ZM15.41 229.683L17.2939 229.082L16.6232 228.35L15.41 229.683ZM16.0336 230.511L17.9085 229.892L17.2939 229.082L16.0336 230.511ZM14.0029 228.271L14.7306 228.933L15.9038 227.704L14.0029 228.271ZM18.1631 235.495L19.9934 234.772L19.8943 234.764L18.1631 235.495ZM18.0633 235.486L19.8943 234.764L19.6641 233.714L18.0633 235.486ZM25.9525 254.479L27.6157 253.362L28.3484 252.564L25.9525 254.479ZM18.2634 235.506L20.093 234.782L19.9934 234.772L18.2634 235.506Z" fill="#0369A1"/>
<path d="M14.0027 228.271L13.2342 227.706L12.4326 227.246L14.0027 228.271Z" fill="#0EA5E9"/>
<path d="M16.5938 231.409L18.4595 230.771L17.9082 229.893L16.5938 231.409ZM18.3639 235.519L20.1928 234.794L20.0928 234.783L18.3639 235.519ZM17.8247 234.416L19.6639 233.714L19.344 232.692L17.8247 234.416ZM25.9523 254.48L25.1188 255.127L27.6154 253.362L25.9523 254.48Z" fill="#0369A1"/>
<path d="M16.5941 231.41L14.003 228.272L10.7603 226.667L16.5941 231.41Z" fill="#0EA5E9"/>
<path d="M17.084 232.367L18.9407 231.708L18.4598 230.771L17.084 232.367ZM17.4965 233.372L19.3443 232.692L18.9407 231.708L17.4965 233.372ZM18.4654 235.533L20.2935 234.807L20.1931 234.794L18.4654 235.533Z" fill="#0369A1"/>
<path d="M23.2124 255.933L25.1189 255.128L26.6863 253.674L23.2124 255.933Z" fill="#0EA5E9"/>
<path d="M18.5668 235.548L20.3942 234.821L20.2933 234.807L18.5668 235.548ZM14.7305 228.933L15.4099 229.683L16.623 228.35L14.7305 228.933ZM18.6689 235.564L20.4955 234.837L20.3942 234.821L18.6689 235.564ZM18.7714 235.582L20.5973 234.854L20.4955 234.837L18.7714 235.582ZM18.8744 235.602L20.6994 234.873L20.5973 234.854L18.8744 235.602ZM15.4099 229.683L16.0335 230.511L17.2937 229.083L15.4099 229.683ZM18.9777 235.623L20.802 234.893L20.6994 234.873L18.9777 235.623ZM18.0632 235.486L18.163 235.496L19.8942 234.764L18.0632 235.486ZM19.0816 235.645L20.905 234.914L20.802 234.893L19.0816 235.645ZM18.163 235.496L18.2632 235.507L19.9933 234.773L18.163 235.496ZM19.1858 235.669L21.0084 234.937L20.905 234.914L19.1858 235.669ZM17.8248 234.416L18.0632 235.486L19.664 233.714L17.8248 234.416ZM16.0335 230.511L16.5938 231.409L17.9083 229.893L16.0335 230.511ZM18.2632 235.507L18.364 235.519L20.0928 234.783L18.2632 235.507ZM19.2904 235.695L21.1121 234.961L21.0084 234.937L19.2904 235.695ZM17.4963 233.372L17.8248 234.416L19.3441 232.692L17.4963 233.372Z" fill="#0369A1"/>
<path d="M15.4101 229.683L14.7307 228.933L14.0029 228.271L15.4101 229.683Z" fill="#0EA5E9"/>
<path d="M16.5938 231.41L17.0837 232.367L18.4595 230.771L16.5938 231.41ZM26.6861 253.674L28.3482 252.564L28.967 251.617L26.6861 253.674ZM18.3639 235.519L18.4651 235.533L20.1928 234.794L18.3639 235.519ZM17.0837 232.367L17.4962 233.372L18.9403 231.708L17.0837 232.367ZM18.4651 235.533L18.5667 235.548L20.2932 234.807L18.4651 235.533ZM26.6861 253.674L25.9523 254.48L28.3482 252.564L26.6861 253.674ZM18.5667 235.548L18.6688 235.565L20.3941 234.822L18.5667 235.548Z" fill="#0369A1"/>
<path d="M16.594 231.409L15.4101 229.683L14.0029 228.271L16.594 231.409Z" fill="#0EA5E9"/>
<path d="M18.6689 235.564L18.7715 235.582L20.4956 234.837L18.6689 235.564Z" fill="#0369A1"/>
<path d="M25.1187 255.128L25.9522 254.48L26.686 253.674L25.1187 255.128Z" fill="#0EA5E9"/>
<path d="M18.7715 235.582L18.8744 235.602L20.5973 234.854L18.7715 235.582ZM18.8744 235.602L18.9778 235.623L20.6995 234.873L18.8744 235.602ZM18.9778 235.623L19.0816 235.645L20.8021 234.893L18.9778 235.623Z" fill="#0369A1"/>
<path d="M16.5941 231.409L16.0337 230.511L15.4102 229.683L16.5941 231.409Z" fill="#0EA5E9"/>
<path d="M20.5249 236.103L22.3356 235.355L21.1122 234.961L20.5249 236.103Z" fill="#0369A1"/>
<path d="M18.2635 235.507L18.1633 235.496L18.0635 235.486L18.2635 235.507Z" fill="#0EA5E9"/>
<path d="M19.0815 235.645L19.1858 235.669L20.905 234.914L19.0815 235.645Z" fill="#0369A1"/>
<path d="M18.0631 235.487L17.8247 234.416L17.4962 233.372L18.0631 235.487ZM18.4651 235.533L18.2631 235.507L18.0631 235.487L18.4651 235.533ZM18.0631 235.487L17.4962 233.372L16.5938 231.41L18.0631 235.487Z" fill="#0EA5E9"/>
<path d="M19.186 235.669L19.2907 235.695L21.0086 234.937L19.186 235.669Z" fill="#0369A1"/>
<path d="M18.4651 235.533L18.3639 235.519L18.2631 235.507L18.4651 235.533ZM17.4962 233.372L17.0837 232.367L16.5938 231.41L17.4962 233.372ZM23.2122 255.933L23.9446 238.369L18.0631 235.487L23.2122 255.933ZM18.8743 235.602L18.4651 235.533L18.0631 235.487L18.8743 235.602Z" fill="#0EA5E9"/>
<path d="M27.3047 252.715L28.9671 251.617L29.4561 250.525L27.3047 252.715Z" fill="#0369A1"/>
<path d="M18.6691 235.564L18.567 235.548L18.4653 235.533L18.6691 235.564ZM18.8745 235.602L18.6691 235.564L18.4653 235.533L18.8745 235.602ZM23.2125 255.933L26.6864 253.674L28.3047 248.984L23.2125 255.933Z" fill="#0EA5E9"/>
<path d="M19.2905 235.695L20.525 236.103L21.1123 234.961L19.2905 235.695ZM27.3048 252.715L26.6863 253.674L28.9672 251.616L27.3048 252.715Z" fill="#0369A1"/>
<path d="M18.8744 235.602L18.7715 235.583L18.6689 235.564L18.8744 235.602ZM19.0816 235.646L18.9778 235.623L18.8744 235.602L19.0816 235.646ZM19.2905 235.695L19.0816 235.646L18.8744 235.602L19.2905 235.695Z" fill="#0EA5E9"/>
<path d="M21.7227 236.694L23.5211 235.928L22.3358 235.355L21.7227 236.694Z" fill="#0369A1"/>
<path d="M19.2904 235.695L19.1858 235.669L19.0815 235.646L19.2904 235.695Z" fill="#0EA5E9"/>
<path d="M27.7915 251.609L29.4561 250.525L29.7989 249.298L27.7915 251.609ZM20.5249 236.103L21.7224 236.694L22.3356 235.355L20.5249 236.103ZM27.7915 251.609L27.3047 252.715L29.4561 250.525L27.7915 251.609Z" fill="#0369A1"/>
<path d="M23.9449 238.368L18.8747 235.602L18.0635 235.486L23.9449 238.368ZM23.2126 255.933L28.3048 248.983L23.9449 238.368L23.2126 255.933ZM26.6865 253.674L27.305 252.715L27.7918 251.608L26.6865 253.674Z" fill="#0EA5E9"/>
<path d="M22.8677 237.454L24.6529 236.666L23.521 235.927L22.8677 237.454ZM28.1304 250.361L29.7989 249.298L29.9792 247.943L28.1304 250.361Z" fill="#0369A1"/>
<path d="M21.7226 236.694L20.525 236.103L19.2906 235.695L21.7226 236.694ZM23.9448 238.369L19.2906 235.695L18.8745 235.602L23.9448 238.369Z" fill="#0EA5E9"/>
<path d="M28.1305 250.361L27.7918 251.608L29.7991 249.298L28.1305 250.361ZM21.7227 236.694L22.8678 237.454L23.5211 235.927L21.7227 236.694ZM23.9449 238.368L25.7162 237.557L24.653 236.666L23.9449 238.368Z" fill="#0369A1"/>
<path d="M26.6865 253.674L27.7919 251.608L28.3048 248.983L26.6865 253.674Z" fill="#0EA5E9"/>
<path d="M28.3047 248.983L29.9793 247.943L29.9821 246.518L28.3047 248.983Z" fill="#0369A1"/>
<path d="M23.9447 238.368L21.7225 236.694L19.2905 235.695L23.9447 238.368Z" fill="#0EA5E9"/>
<path d="M24.9379 239.42L26.695 238.582L25.7161 237.556L24.9379 239.42ZM22.8677 237.454L23.9447 238.368L24.6529 236.666L22.8677 237.454ZM28.3046 248.983L28.1304 250.361L29.9792 247.943L28.3046 248.983ZM28.2994 247.531L29.982 246.517L29.8089 245.085L28.2994 247.531ZM25.8316 240.592L27.5744 239.726L26.695 238.582L25.8316 240.592Z" fill="#0369A1"/>
<path d="M27.7915 251.608L28.1303 250.362L28.3045 248.983L27.7915 251.608Z" fill="#0EA5E9"/>
<path d="M28.1167 246.071L29.809 245.086L29.4698 243.669L28.1167 246.071ZM26.6106 241.864L28.3396 240.969L27.5745 239.726L26.6106 241.864ZM23.9448 238.369L24.938 239.421L25.7162 237.557L23.9448 238.369Z" fill="#0369A1"/>
<path d="M23.9449 238.368L22.8678 237.454L21.7227 236.693L23.9449 238.368Z" fill="#0EA5E9"/>
<path d="M27.7664 244.625L29.4698 243.669L28.9758 242.289L27.7664 244.625ZM28.2995 247.531L28.3047 248.983L29.9821 246.518L28.2995 247.531ZM27.2601 243.215L28.9758 242.289L28.3396 240.968L27.2601 243.215ZM24.938 239.42L25.8317 240.592L26.6951 238.583L24.938 239.42ZM28.1167 246.071L28.2995 247.531L29.809 245.086L28.1167 246.071ZM25.8317 240.592L26.6106 241.864L27.5745 239.726L25.8317 240.592ZM27.7664 244.625L28.1167 246.071L29.4698 243.669L27.7664 244.625ZM26.6106 241.864L27.2601 243.215L28.3396 240.968L26.6106 241.864ZM27.2601 243.215L27.7664 244.625L28.9758 242.289L27.2601 243.215Z" fill="#0369A1"/>
<path d="M28.3047 248.984L27.2601 243.215L23.9448 238.369L28.3047 248.984ZM28.3047 248.984L28.2995 247.531L28.1167 246.071L28.3047 248.984ZM25.8317 240.592L24.938 239.421L23.9448 238.369L25.8317 240.592ZM28.3047 248.984L28.1167 246.071L27.2601 243.215L28.3047 248.984ZM27.2601 243.215L25.8317 240.592L23.9448 238.369L27.2601 243.215ZM28.1167 246.071L27.7664 244.625L27.2601 243.215L28.1167 246.071ZM27.2601 243.215L26.6106 241.864L25.8317 240.592L27.2601 243.215Z" fill="#0EA5E9"/>
</g>
<defs>
<linearGradient id="paint0_linear" x1="200.804" y1="165.18" x2="206.839" y2="175.634" gradientUnits="userSpaceOnUse">
<stop stop-color="#362E94"/>
<stop offset="1" stop-color="#F6F6FB"/>
</linearGradient>
<linearGradient id="paint1_linear" x1="200.938" y1="163.461" x2="213.009" y2="163.461" gradientUnits="userSpaceOnUse">
<stop stop-color="#362E94"/>
<stop offset="1" stop-color="#CED3F8"/>
</linearGradient>
<linearGradient id="paint2_linear" x1="170.214" y1="164.45" x2="164.179" y2="174.904" gradientUnits="userSpaceOnUse">
<stop stop-color="#362E94"/>
<stop offset="1" stop-color="#F6F6FB"/>
</linearGradient>
<linearGradient id="paint3_linear" x1="170.079" y1="162.731" x2="158.009" y2="162.731" gradientUnits="userSpaceOnUse">
<stop stop-color="#362E94"/>
<stop offset="1" stop-color="#CED3F8"/>
</linearGradient>
<linearGradient id="paint4_linear" x1="170.079" y1="162.731" x2="158.009" y2="162.731" gradientUnits="userSpaceOnUse">
<stop stop-color="#362E94"/>
<stop offset="1" stop-color="#CED3F8"/>
</linearGradient>
<clipPath id="clip0">
<rect width="636" height="433" fill="white"/>
</clipPath>
</defs>
</svg>
