<svg width="391" height="253" fill="none" xmlns="http://www.w3.org/2000/svg"><rect width="391" height="253" rx="6" fill="#28292C"/><rect x=".5" y=".5" width="390" height="252" rx="5.5" stroke="#fff" stroke-opacity=".1"/><path opacity=".3" d="M43.974 24.156a4 4 0 100-8 4 4 0 000 8zM31.987 24.156a4 4 0 100-8 4 4 0 000 8zM20 24a4 4 0 100-8 4 4 0 000 8z" fill="#fff"/><path d="M27.446 58.37l.216-1.073h-1.32l.488-2.463h-1.054l-.488 2.463h-1.74l.49-2.463h-1.055l-.488 2.463H21.18l-.21 1.073h1.314l-.387 1.986h-1.314l-.216 1.086h1.314L21.168 64h1.06l.495-2.558h1.746L23.96 64h1.054l.508-2.558h1.32l.21-1.086h-1.321l.393-1.986h1.32zm-4.145-.045h1.822l-.413 2.095h-1.816l.407-2.095zM40.313 64c1.967 0 3.148-.965 3.148-2.57 0-1.213-.825-2.12-2.057-2.229v-.095c.94-.159 1.6-.99 1.6-2 0-1.415-1.022-2.266-2.736-2.266h-3.085V64h3.13zm-1.829-8.08h1.46c1.111 0 1.733.514 1.733 1.421 0 .902-.666 1.403-1.879 1.403h-1.314V55.92zm0 6.988v-3.13h1.467c1.409 0 2.139.528 2.139 1.55 0 1.053-.711 1.58-2.108 1.58h-1.498zm12.55-5.827h-1.27v4.056c0 1.117-.71 1.86-1.77 1.86-1.023 0-1.499-.559-1.499-1.74v-4.176H45.22v4.488c0 1.663.813 2.564 2.317 2.564 1.035 0 1.816-.482 2.177-1.333h.09V64h1.23v-6.919zm5.243-1.619c.571 0 .984-.393.984-.94 0-.551-.413-.945-.984-.945-.565 0-.984.394-.984.946 0 .546.419.94.984.94zM59.197 64v-1.028h-2.235v-5.89H53.44v1.027h2.28v4.863h-2.33V64h5.808zm8.036 0v-1.028H65.01v-8.589h-3.535v1.035h2.266v7.554h-2.317V64h5.808zm4.469.114c.996 0 1.707-.425 2.037-1.206h.12V64h1.277v-9.617h-1.308v3.796h-.12c-.28-.774-1.01-1.212-2.006-1.212-1.594 0-2.61 1.136-2.61 2.945v1.257c0 1.809 1.016 2.945 2.61 2.945zm.419-1.13c-1.067 0-1.74-.749-1.74-1.936v-1.034c0-1.187.673-1.943 1.74-1.943 1.066 0 1.739.75 1.739 1.943v1.034c0 1.187-.673 1.936-1.74 1.936zm8.15 1.08c.673 0 1.219-.565 1.219-1.245 0-.685-.546-1.244-1.219-1.244s-1.219.559-1.219 1.244c0 .68.546 1.245 1.219 1.245zm8.15-8.602c.572 0 .984-.393.984-.94 0-.551-.412-.945-.984-.945-.565 0-.984.394-.984.946 0 .546.42.94.984.94zM91.341 64v-1.028h-2.234v-5.89h-3.523v1.027h2.279v4.863h-2.33V64h5.808zm5.002.133c1.867 0 3.053-1.193 3.053-3.066V60.02c0-1.879-1.186-3.066-3.053-3.066-1.866 0-3.053 1.187-3.053 3.066v1.047c0 1.873 1.187 3.066 3.053 3.066zm0-6.1c1.105 0 1.797.794 1.797 2.076v.87c0 1.282-.692 2.075-1.797 2.075-1.104 0-1.796-.793-1.796-2.076v-.87c0-1.281.692-2.075 1.796-2.075zm15.844 2.882c0-1.695.87-2.666 2.431-2.666.381 0 .832.082 1.143.197v-1.397c-.229-.095-.603-.146-.997-.146-1.326 0-2.133.641-2.406 1.943h-.177V57.08h-2.736v.978h1.504v4.964h-1.371V64h4.71v-.977h-2.101v-2.108zm10.023 1.257c-.171.565-.787.914-1.606.914-1.092 0-1.796-.75-1.796-1.917v-.311h4.64v-.75c0-1.967-1.098-3.16-2.907-3.16-1.797 0-2.984 1.2-2.984 3.021v1.054c0 1.968 1.111 3.11 3.053 3.11 1.492 0 2.635-.8 2.819-1.961h-1.219zm-1.682-4.183c1.047 0 1.669.742 1.669 1.974h-3.389c0-1.238.647-1.974 1.72-1.974zm10.918 1.32c-.172-1.498-1.219-2.368-2.831-2.368-1.924 0-3.034 1.15-3.034 3.168v.85c0 2.019 1.11 3.174 3.034 3.174 1.612 0 2.659-.87 2.831-2.342h-1.257c-.127.78-.736 1.244-1.587 1.244-1.123 0-1.746-.787-1.746-2.209v-.584c0-1.422.623-2.209 1.746-2.209.844 0 1.466.476 1.587 1.276h1.257zm6.836 2.863c-.171.565-.787.914-1.606.914-1.092 0-1.796-.75-1.796-1.917v-.311h4.64v-.75c0-1.967-1.098-3.16-2.907-3.16-1.797 0-2.984 1.2-2.984 3.021v1.054c0 1.968 1.111 3.11 3.054 3.11 1.491 0 2.634-.8 2.818-1.961h-1.219zm-1.682-4.183c1.047 0 1.67.742 1.67 1.974h-3.39c0-1.238.647-1.974 1.72-1.974zm8.074-2.527c.572 0 .984-.393.984-.94 0-.551-.412-.945-.984-.945-.565 0-.984.394-.984.946 0 .546.419.94.984.94zm2.92 8.538v-1.028h-2.234v-5.89h-3.523v1.027h2.279v4.863h-2.33V64h5.808zm1.797-6.919L151.892 64h1.415l2.495-6.919h-1.352l-1.797 5.618h-.089l-1.809-5.618h-1.364zm11.356-1.619c.571 0 .983-.393.983-.94 0-.551-.412-.945-.983-.945-.565 0-.984.394-.984.946 0 .546.419.94.984.94zm2.92 8.538v-1.028h-2.235v-5.89h-3.523v1.027h2.279v4.863h-2.33V64h5.809zm2.094 0h1.27v-4.056c0-1.117.711-1.86 1.771-1.86 1.022 0 1.498.559 1.498 1.746V64h1.276v-4.488c0-1.663-.813-2.564-2.317-2.564-1.035 0-1.816.482-2.177 1.34h-.089V57.08h-1.232V64zm10.747 2.596c1.917 0 3.066-.977 3.066-2.602V57.08h-1.257v1.098h-.121c-.279-.755-1.041-1.212-2.044-1.212-1.631 0-2.666 1.136-2.666 2.945v1.18c0 1.803 1.029 2.946 2.622 2.946 1.016 0 1.796-.463 2.069-1.206h.121v1.155c0 1.041-.629 1.613-1.771 1.613-.876 0-1.53-.35-1.663-.89h-1.257c.133 1.169 1.238 1.886 2.901 1.886zm-1.727-5.624v-.958c0-1.181.686-1.943 1.759-1.943 1.066 0 1.758.756 1.758 1.943v.958c0 1.18-.692 1.943-1.758 1.943-1.073 0-1.759-.762-1.759-1.943zm18.535-3.999c-1.003 0-1.713.42-2.037 1.206h-.121v-1.098h-1.276v9.242h1.308v-3.421h.121c.279.774 1.002 1.212 2.005 1.212 1.594 0 2.609-1.136 2.609-2.939v-1.263c0-1.803-1.015-2.939-2.609-2.939zm-.425 1.13c1.067 0 1.746.75 1.746 1.936v1.035c0 1.187-.679 1.942-1.746 1.942-1.06 0-1.733-.749-1.733-1.942v-1.035c0-1.187.673-1.936 1.733-1.936zm10.829-1.022h-1.269v4.056c0 1.117-.711 1.86-1.771 1.86-1.022 0-1.498-.559-1.498-1.74v-4.176h-1.276v4.488c0 1.663.812 2.564 2.317 2.564 1.034 0 1.815-.482 2.177-1.333h.089V64h1.231v-6.919zm2.527 1.91c0 1.01.628 1.645 1.891 1.93l1.035.235c.838.19 1.149.45 1.149.959 0 .603-.559.99-1.428.99-.838 0-1.41-.336-1.549-.927h-1.283c.115 1.219 1.168 1.949 2.8 1.949 1.688 0 2.774-.838 2.774-2.152 0-1.016-.616-1.6-1.981-1.904l-1.003-.222c-.806-.178-1.142-.451-1.142-.946 0-.572.527-.952 1.339-.952.762 0 1.301.349 1.416.914h1.218c-.114-1.2-1.104-1.924-2.615-1.924-1.587 0-2.621.813-2.621 2.05zM213.965 64h1.276v-4.044c0-1.117.711-1.86 1.784-1.86 1.022 0 1.511.566 1.511 1.74V64h1.269v-4.475c0-1.657-.819-2.565-2.323-2.565-1.047 0-1.835.483-2.19 1.334h-.095v-3.91h-1.232V64zM40.751 204v-3.675l3.021-5.485h-1.46l-2.177 4.114h-.09l-2.176-4.114h-1.46l3.021 5.485V204h1.32zm7.376.133c1.866 0 3.053-1.193 3.053-3.066v-1.047c0-1.879-1.187-3.066-3.053-3.066-1.867 0-3.054 1.187-3.054 3.066v1.047c0 1.873 1.187 3.066 3.053 3.066zm0-6.1c1.104 0 1.796.794 1.796 2.076v.87c0 1.282-.692 2.075-1.797 2.075-1.104 0-1.796-.793-1.796-2.075v-.87c0-1.282.692-2.076 1.797-2.076zm10.943-.952H57.8v4.056c0 1.117-.71 1.86-1.77 1.86-1.023 0-1.499-.559-1.499-1.739v-4.177h-1.276v4.488c0 1.663.813 2.564 2.317 2.564 1.035 0 1.816-.482 2.177-1.333h.09v1.2h1.23v-6.919zm4.9 3.834c0-1.695.87-2.666 2.431-2.666.381 0 .832.083 1.143.197v-1.397c-.229-.095-.603-.146-.997-.146-1.326 0-2.132.641-2.405 1.943h-.178v-1.765h-2.736v.978h1.504v4.963h-1.37V204h4.71v-.978H63.97v-2.107zm16.415-5.453c.572 0 .984-.393.984-.939 0-.552-.412-.946-.984-.946-.565 0-.984.394-.984.946 0 .546.42.939.984.939zm2.92 8.538v-1.028h-2.234v-5.891h-3.523v1.028h2.279v4.863h-2.33V204h5.808zm8.385-5.173c0-1.225-.488-1.879-1.421-1.879-.686 0-1.22.425-1.384 1.111h-.14c-.146-.705-.597-1.111-1.244-1.111-.66 0-1.149.419-1.314 1.136h-.14v-1.003h-1.123V204h1.117v-4.691c0-.762.35-1.231.908-1.231.527 0 .812.393.812 1.136V204h1.111v-4.691c0-.762.343-1.231.889-1.231.52 0 .812.4.812 1.142V204h1.117v-5.173zm3.885 5.287c.978 0 1.72-.406 2.05-1.117h.121v1.009h1.213v-4.729c0-1.453-.953-2.291-2.622-2.291-1.485 0-2.57.774-2.698 1.917h1.244c.165-.546.692-.863 1.428-.863.89 0 1.384.444 1.384 1.237v.61l-1.815.095c-1.612.095-2.501.819-2.501 2.05 0 1.251.876 2.082 2.196 2.082zm.394-1.06c-.813 0-1.32-.412-1.32-1.079 0-.673.482-1.054 1.402-1.104l1.644-.083v.73c0 .882-.736 1.536-1.726 1.536zm8.214 3.542c1.917 0 3.066-.977 3.066-2.602v-6.913h-1.257v1.098h-.121c-.279-.755-1.041-1.212-2.044-1.212-1.631 0-2.666 1.136-2.666 2.945v1.181c0 1.803 1.028 2.945 2.622 2.945 1.015 0 1.796-.463 2.069-1.206h.121v1.155c0 1.041-.629 1.613-1.771 1.613-.876 0-1.53-.35-1.663-.889h-1.257c.133 1.168 1.238 1.885 2.901 1.885zm-1.727-5.624v-.958c0-1.181.686-1.943 1.758-1.943 1.067 0 1.759.756 1.759 1.943v.958c0 1.181-.692 1.943-1.759 1.943-1.072 0-1.758-.762-1.758-1.943zm11.718 1.2c-.172.565-.787.914-1.606.914-1.092 0-1.797-.749-1.797-1.917v-.311h4.641v-.749c0-1.968-1.099-3.161-2.908-3.161-1.796 0-2.983 1.199-2.983 3.021v1.054c0 1.968 1.111 3.11 3.053 3.11 1.492 0 2.634-.8 2.819-1.961h-1.219zm-1.682-4.183c1.047 0 1.669.742 1.669 1.974h-3.39c0-1.238.648-1.974 1.721-1.974zm16.11-2.527c.571 0 .984-.393.984-.939 0-.552-.413-.946-.984-.946-.565 0-.984.394-.984.946 0 .546.419.939.984.939zm2.92 8.538v-1.028h-2.234v-5.891h-3.523v1.028h2.278v4.863h-2.329V204h5.808zm2.399-5.008c0 1.009.629 1.644 1.892 1.929l1.035.235c.838.191 1.149.451 1.149.959 0 .603-.559.99-1.429.99-.838 0-1.409-.336-1.548-.927h-1.283c.115 1.219 1.168 1.949 2.8 1.949 1.688 0 2.774-.838 2.774-2.152 0-1.016-.616-1.6-1.981-1.904l-1.003-.222c-.806-.178-1.142-.451-1.142-.946 0-.571.526-.952 1.339-.952.762 0 1.301.349 1.415.914h1.219c-.114-1.2-1.104-1.924-2.615-1.924-1.587 0-2.622.813-2.622 2.051zm21.633.317c-.171-1.498-1.219-2.368-2.831-2.368-1.923 0-3.034 1.149-3.034 3.168v.85c0 2.019 1.111 3.174 3.034 3.174 1.612 0 2.66-.869 2.831-2.342h-1.257c-.127.781-.736 1.244-1.587 1.244-1.123 0-1.745-.787-1.745-2.209v-.584c0-1.422.622-2.209 1.745-2.209.845 0 1.467.476 1.587 1.276h1.257zm5.078 4.824c1.867 0 3.054-1.193 3.054-3.066v-1.047c0-1.879-1.187-3.066-3.054-3.066-1.866 0-3.053 1.187-3.053 3.066v1.047c0 1.873 1.187 3.066 3.053 3.066zm0-6.1c1.105 0 1.797.794 1.797 2.076v.87c0 1.282-.692 2.075-1.797 2.075-1.104 0-1.796-.793-1.796-2.075v-.87c0-1.282.692-2.076 1.796-2.076zm11.42.794c0-1.225-.489-1.879-1.422-1.879-.686 0-1.219.425-1.384 1.111h-.14c-.146-.705-.596-1.111-1.244-1.111-.66 0-1.149.419-1.314 1.136h-.139v-1.003h-1.124V204h1.117v-4.691c0-.762.349-1.231.908-1.231.527 0 .813.393.813 1.136V204h1.11v-4.691c0-.762.343-1.231.889-1.231.521 0 .813.4.813 1.142V204h1.117v-5.173zm5.192-1.854c-1.003 0-1.714.419-2.037 1.206h-.121v-1.098h-1.276v9.242h1.308v-3.421h.12c.28.774 1.003 1.212 2.006 1.212 1.593 0 2.609-1.136 2.609-2.939v-1.263c0-1.803-1.016-2.939-2.609-2.939zm-.425 1.13c1.066 0 1.745.749 1.745 1.936v1.035c0 1.187-.679 1.942-1.745 1.942-1.06 0-1.733-.749-1.733-1.942v-1.035c0-1.187.673-1.936 1.733-1.936zM187.775 204v-1.028h-2.222v-8.589h-3.535v1.035h2.266v7.554h-2.317V204h5.808zm6.76-1.828c-.171.565-.787.914-1.606.914-1.092 0-1.796-.749-1.796-1.917v-.311h4.64v-.749c0-1.968-1.098-3.161-2.907-3.161-1.797 0-2.984 1.199-2.984 3.021v1.054c0 1.968 1.111 3.11 3.054 3.11 1.491 0 2.634-.8 2.818-1.961h-1.219zm-1.682-4.183c1.047 0 1.669.742 1.669 1.974h-3.389c0-1.238.647-1.974 1.72-1.974zm6.703-2.8v1.93h-1.828v1.048h1.828v3.738c0 1.486.775 2.12 2.546 2.12.266 0 1.269-.025 1.409-.05v-1.041c-.153.019-.997.031-1.321.031-.882 0-1.358-.374-1.358-1.06v-3.738h2.717v-1.048h-2.736v-1.93h-1.257zm11.051 6.983c-.171.565-.787.914-1.606.914-1.091 0-1.796-.749-1.796-1.917v-.311h4.64v-.749c0-1.968-1.098-3.161-2.907-3.161-1.796 0-2.983 1.199-2.983 3.021v1.054c0 1.968 1.11 3.11 3.053 3.11 1.492 0 2.634-.8 2.818-1.961h-1.219zm-1.682-4.183c1.048 0 1.67.742 1.67 1.974h-3.39c0-1.238.648-1.974 1.72-1.974zm7.224-3.149l.114 6.31h1.244l.121-6.31h-1.479zm.736 9.3a.949.949 0 00.952-.959.947.947 0 00-.952-.952.947.947 0 00-.952.952c0 .533.419.959.952.959z" fill="#1DE9B6"/><path d="M22.73 82.502l.787.819 3.796-3.853-3.796-3.86-.787.826 1.415 1.364 1.289 1.137v.038l-1.543-.083H20v1.15h3.878l1.556-.077V80l-1.289 1.136-1.415 1.365zm17.608-2.076L42.014 84h1.485l-1.854-3.821c1.029-.356 1.683-1.346 1.683-2.54 0-1.732-1.156-2.799-3.028-2.799H37.15V84h1.314v-3.574h1.873zm-1.873-4.462h1.695c1.162 0 1.835.622 1.835 1.701 0 1.08-.68 1.695-1.88 1.695h-1.65v-3.396zm12.569 1.117h-1.27v4.056c0 1.117-.71 1.86-1.77 1.86-1.023 0-1.499-.558-1.499-1.74v-4.176H45.22v4.488c0 1.663.813 2.564 2.317 2.564 1.035 0 1.816-.482 2.177-1.333h.09V84h1.23v-6.919zm5.662 7.033c1.593 0 2.609-1.136 2.609-2.945v-1.257c0-1.809-1.016-2.945-2.61-2.945-.996 0-1.72.438-1.999 1.212h-.127v-3.796h-1.307V84h1.282v-1.092h.12c.324.781 1.035 1.206 2.032 1.206zm-.42-1.13c-1.06 0-1.738-.749-1.738-1.936v-1.034c0-1.194.679-1.943 1.739-1.943 1.066 0 1.74.756 1.74 1.943v1.034c0 1.187-.674 1.936-1.74 1.936zm5.949 3.492c1.409 0 2.056-.546 2.66-2.266l2.538-7.129h-1.352l-1.809 5.662h-.089l-1.821-5.662h-1.397l2.52 6.97-.108.343c-.254.73-.615 1.009-1.282 1.009-.102 0-.311-.007-.38-.02v1.074c.082.006.323.019.52.019zm17.278-2.362c.978 0 1.72-.406 2.05-1.117h.12v1.01h1.213v-4.73c0-1.453-.952-2.291-2.621-2.291-1.486 0-2.571.774-2.698 1.917h1.244c.165-.546.692-.863 1.428-.863.889 0 1.384.444 1.384 1.237v.61l-1.815.095c-1.613.095-2.501.819-2.501 2.05 0 1.25.876 2.082 2.196 2.082zm.394-1.06c-.813 0-1.32-.412-1.32-1.079 0-.673.482-1.054 1.402-1.104l1.644-.083v.73c0 .882-.736 1.536-1.727 1.536zm8.95-6.08c-1.003 0-1.714.418-2.038 1.205h-.12v-1.098h-1.276v9.242h1.307v-3.421h.12c.28.774 1.004 1.212 2.007 1.212 1.593 0 2.609-1.136 2.609-2.939v-1.263c0-1.803-1.016-2.939-2.61-2.939zm-.426 1.129c1.067 0 1.746.75 1.746 1.936v1.035c0 1.187-.68 1.942-1.746 1.942-1.06 0-1.733-.749-1.733-1.942v-1.035c0-1.187.673-1.936 1.733-1.936zm8.462-1.13c-1.003 0-1.714.42-2.038 1.206h-.12v-1.098h-1.276v9.242h1.307v-3.421h.121c.28.774 1.003 1.212 2.006 1.212 1.593 0 2.609-1.136 2.609-2.939v-1.263c0-1.803-1.016-2.939-2.61-2.939zm-.425 1.13c1.066 0 1.745.75 1.745 1.936v1.035c0 1.187-.68 1.942-1.746 1.942-1.06 0-1.732-.749-1.732-1.942v-1.035c0-1.187.672-1.936 1.733-1.936zm15.424 6.011c.997 0 1.708-.425 2.038-1.206h.121V84h1.275v-9.617h-1.307v3.796h-.121c-.279-.774-1.009-1.212-2.006-1.212-1.593 0-2.609 1.136-2.609 2.945v1.257c0 1.809 1.016 2.945 2.609 2.945zm.419-1.13c-1.066 0-1.739-.749-1.739-1.936v-1.034c0-1.187.673-1.943 1.739-1.943 1.067 0 1.74.75 1.74 1.943v1.034c0 1.187-.673 1.936-1.74 1.936zm9.909-.812c-.171.565-.787.914-1.606.914-1.092 0-1.796-.75-1.796-1.917v-.311h4.64v-.75c0-1.967-1.098-3.16-2.907-3.16-1.797 0-2.984 1.2-2.984 3.021v1.054c0 1.968 1.111 3.11 3.053 3.11 1.492 0 2.635-.8 2.819-1.961h-1.219zm-1.682-4.183c1.047 0 1.669.742 1.669 1.974h-3.389c0-1.238.647-1.974 1.72-1.974zm6.703-2.8v1.93h-1.828v1.047h1.828v3.74c0 1.485.774 2.12 2.545 2.12.267 0 1.27-.026 1.41-.051v-1.041c-.153.019-.997.031-1.321.031-.882 0-1.358-.374-1.358-1.06v-3.739h2.717V77.12h-2.736v-1.93h-1.257zm11.051 6.983c-.171.565-.787.914-1.606.914-1.092 0-1.796-.75-1.796-1.917v-.311h4.64v-.75c0-1.967-1.098-3.16-2.907-3.16-1.797 0-2.984 1.2-2.984 3.021v1.054c0 1.968 1.111 3.11 3.054 3.11 1.491 0 2.634-.8 2.818-1.961h-1.219zm-1.682-4.183c1.047 0 1.67.742 1.67 1.974h-3.39c0-1.238.647-1.974 1.72-1.974zm10.918 1.32c-.171-1.498-1.219-2.368-2.831-2.368-1.923 0-3.034 1.15-3.034 3.168v.85c0 2.019 1.111 3.174 3.034 3.174 1.612 0 2.66-.87 2.831-2.342h-1.257c-.127.78-.736 1.244-1.587 1.244-1.123 0-1.745-.787-1.745-2.209v-.584c0-1.422.622-2.209 1.745-2.209.845 0 1.467.476 1.587 1.276h1.257zm3.821-4.12v1.93h-1.828v1.047h1.828v3.74c0 1.485.775 2.12 2.546 2.12.266 0 1.269-.026 1.409-.051v-1.041c-.152.019-.997.031-1.32.031-.883 0-1.359-.374-1.359-1.06v-3.739h2.717V77.12h-2.736v-1.93h-1.257zm11.052 6.983c-.172.565-.787.914-1.606.914-1.092 0-1.797-.75-1.797-1.917v-.311h4.64v-.75c0-1.967-1.098-3.16-2.907-3.16-1.796 0-2.983 1.2-2.983 3.021v1.054c0 1.968 1.111 3.11 3.053 3.11 1.492 0 2.634-.8 2.818-1.961h-1.218zm-1.683-4.183c1.048 0 1.67.742 1.67 1.974h-3.39c0-1.238.648-1.974 1.72-1.974zm7.427 6.125c.997 0 1.708-.425 2.038-1.206h.12V84h1.276v-9.617h-1.307v3.796h-.121c-.279-.774-1.009-1.212-2.006-1.212-1.593 0-2.609 1.136-2.609 2.945v1.257c0 1.809 1.016 2.945 2.609 2.945zm.419-1.13c-1.066 0-1.739-.749-1.739-1.936v-1.034c0-1.187.673-1.943 1.739-1.943 1.067 0 1.739.75 1.739 1.943v1.034c0 1.187-.672 1.936-1.739 1.936z" fill="#F06185"/><path d="M22.73 102.502l.787.819 3.796-3.853-3.796-3.86-.787.826 1.415 1.364 1.289 1.137v.038l-1.543-.083H20v1.149h3.878l1.556-.076V100l-1.289 1.136-1.415 1.365zM42.617 104v-1.149H40.75v-6.862h1.866V94.84h-5.053v1.15h1.866v6.861h-1.866V104h5.053zm2.602 0h1.27v-4.056c0-1.117.71-1.86 1.77-1.86 1.023 0 1.499.559 1.499 1.746V104h1.276v-4.488c0-1.663-.813-2.564-2.317-2.564-1.035 0-1.816.482-2.177 1.34h-.09V97.08h-1.23V104zm8.341-5.008c0 1.009.628 1.644 1.892 1.929l1.034.235c.838.191 1.15.451 1.15.959 0 .603-.56.99-1.429.99-.838 0-1.41-.336-1.549-.927h-1.282c.114 1.219 1.168 1.949 2.8 1.949 1.688 0 2.773-.838 2.773-2.152 0-1.016-.615-1.6-1.98-1.904l-1.003-.222c-.806-.178-1.143-.451-1.143-.946 0-.572.527-.952 1.34-.952.761 0 1.3.349 1.415.914h1.219c-.114-1.2-1.105-1.924-2.615-1.924-1.587 0-2.622.813-2.622 2.05zm9.382-3.803v1.93h-1.828v1.047h1.828v3.739c0 1.486.774 2.12 2.545 2.12.267 0 1.27-.025 1.41-.05v-1.041c-.153.019-.997.031-1.32.031-.883 0-1.36-.374-1.36-1.06v-3.739h2.718V97.12h-2.736v-1.93h-1.257zm8.525 8.925c.977 0 1.72-.406 2.05-1.117h.12v1.009h1.213v-4.729c0-1.453-.952-2.291-2.621-2.291-1.486 0-2.571.774-2.698 1.917h1.244c.165-.546.692-.863 1.428-.863.889 0 1.384.444 1.384 1.237v.61l-1.816.095c-1.612.095-2.5.819-2.5 2.05 0 1.251.876 2.082 2.196 2.082zm.393-1.06c-.812 0-1.32-.412-1.32-1.079 0-.673.482-1.054 1.403-1.104l1.644-.083v.73c0 .882-.736 1.536-1.727 1.536zm11.445.946v-1.028h-2.222v-8.589h-3.535v1.035h2.266v7.554h-2.317V104h5.808zm8.036 0v-1.028H89.12v-8.589h-3.536v1.035h2.266v7.554h-2.317V104h5.808zm5.117-8.538c.57 0 .983-.393.983-.94 0-.551-.412-.945-.984-.945-.564 0-.983.394-.983.946 0 .546.419.94.983.94zm2.92 8.538v-1.028h-2.235v-5.89H93.62v1.027H95.9v4.863h-2.33V104h5.808zm2.094 0h1.27v-4.056c0-1.117.711-1.86 1.771-1.86 1.022 0 1.498.559 1.498 1.746V104h1.276v-4.488c0-1.663-.813-2.564-2.317-2.564-1.035 0-1.816.482-2.178 1.34h-.088V97.08h-1.232V104zm10.747 2.596c1.917 0 3.066-.977 3.066-2.602v-6.913h-1.257v1.098h-.121c-.279-.755-1.041-1.212-2.044-1.212-1.631 0-2.666 1.136-2.666 2.945v1.181c0 1.803 1.029 2.945 2.622 2.945 1.015 0 1.796-.463 2.069-1.206h.121v1.155c0 1.041-.629 1.613-1.771 1.613-.876 0-1.53-.35-1.663-.889h-1.257c.133 1.168 1.238 1.885 2.901 1.885zm-1.727-5.624v-.958c0-1.181.686-1.943 1.758-1.943 1.067 0 1.759.756 1.759 1.943v.958c0 1.181-.692 1.943-1.759 1.943-1.072 0-1.758-.762-1.758-1.943zm17.463 3.142c.996 0 1.707-.425 2.037-1.206h.121V104h1.276v-9.617h-1.308v3.796h-.121c-.279-.774-1.009-1.212-2.005-1.212-1.594 0-2.609 1.136-2.609 2.945v1.257c0 1.809 1.015 2.945 2.609 2.945zm.419-1.13c-1.067 0-1.74-.749-1.74-1.936v-1.034c0-1.187.673-1.943 1.74-1.943 1.066 0 1.739.75 1.739 1.943v1.034c0 1.187-.673 1.936-1.739 1.936zm9.908-.812c-.171.565-.787.914-1.606.914-1.092 0-1.796-.749-1.796-1.917v-.311h4.64v-.749c0-1.968-1.098-3.161-2.907-3.161-1.797 0-2.984 1.2-2.984 3.021v1.054c0 1.968 1.111 3.11 3.054 3.11 1.491 0 2.634-.8 2.818-1.961h-1.219zm-1.682-4.183c1.047 0 1.67.742 1.67 1.974h-3.39c0-1.238.647-1.974 1.72-1.974zm8.5-1.016c-1.003 0-1.714.42-2.038 1.206h-.121v-1.098h-1.275v9.242h1.307v-3.421h.121c.279.774 1.003 1.212 2.006 1.212 1.593 0 2.608-1.136 2.608-2.939v-1.263c0-1.803-1.015-2.939-2.608-2.939zm-.426 1.13c1.067 0 1.746.75 1.746 1.936v1.035c0 1.187-.679 1.942-1.746 1.942-1.06 0-1.733-.749-1.733-1.942v-1.035c0-1.187.673-1.936 1.733-1.936zm9.68 4.069c-.171.565-.787.914-1.605.914-1.092 0-1.797-.749-1.797-1.917v-.311h4.64v-.749c0-1.968-1.098-3.161-2.907-3.161-1.796 0-2.983 1.2-2.983 3.021v1.054c0 1.968 1.11 3.11 3.053 3.11 1.492 0 2.634-.8 2.818-1.961h-1.219zm-1.682-4.183c1.048 0 1.67.742 1.67 1.974h-3.39c0-1.238.648-1.974 1.72-1.974zm5.053 6.011h1.27v-4.056c0-1.117.711-1.86 1.771-1.86 1.022 0 1.498.559 1.498 1.746V104h1.276v-4.488c0-1.663-.813-2.564-2.317-2.564-1.035 0-1.816.482-2.178 1.34h-.088V97.08h-1.232V104zm10.41.114c.997 0 1.708-.425 2.038-1.206h.12V104h1.276v-9.617h-1.307v3.796h-.121c-.279-.774-1.009-1.212-2.006-1.212-1.593 0-2.609 1.136-2.609 2.945v1.257c0 1.809 1.016 2.945 2.609 2.945zm.419-1.13c-1.066 0-1.739-.749-1.739-1.936v-1.034c0-1.187.673-1.943 1.739-1.943 1.067 0 1.739.75 1.739 1.943v1.034c0 1.187-.672 1.936-1.739 1.936zm9.909-.812c-.171.565-.787.914-1.606.914-1.092 0-1.796-.749-1.796-1.917v-.311h4.64v-.749c0-1.968-1.098-3.161-2.908-3.161-1.796 0-2.983 1.2-2.983 3.021v1.054c0 1.968 1.111 3.11 3.053 3.11 1.492 0 2.635-.8 2.819-1.961h-1.219zm-1.682-4.183c1.047 0 1.669.742 1.669 1.974h-3.389c0-1.238.647-1.974 1.72-1.974zm5.052 6.011h1.27v-4.056c0-1.117.711-1.86 1.771-1.86 1.022 0 1.498.559 1.498 1.746V104h1.276v-4.488c0-1.663-.813-2.564-2.317-2.564-1.035 0-1.815.482-2.177 1.34h-.089V97.08h-1.232V104zm13.902-4.69c-.172-1.499-1.219-2.369-2.831-2.369-1.924 0-3.034 1.15-3.034 3.168v.85c0 2.019 1.11 3.174 3.034 3.174 1.612 0 2.659-.869 2.831-2.342h-1.257c-.127.781-.736 1.244-1.587 1.244-1.123 0-1.745-.787-1.745-2.209v-.584c0-1.422.622-2.209 1.745-2.209.844 0 1.466.476 1.587 1.276h1.257zm5.192-3.848c.572 0 .984-.393.984-.94 0-.551-.412-.945-.984-.945-.565 0-.984.394-.984.946 0 .546.419.94.984.94zm2.92 8.538v-1.028h-2.234v-5.89h-3.523v1.027h2.279v4.863h-2.33V104h5.808zm6.76-1.828c-.171.565-.787.914-1.606.914-1.091 0-1.796-.749-1.796-1.917v-.311h4.64v-.749c0-1.968-1.098-3.161-2.907-3.161-1.796 0-2.983 1.2-2.983 3.021v1.054c0 1.968 1.11 3.11 3.053 3.11 1.492 0 2.634-.8 2.818-1.961h-1.219zm-1.682-4.183c1.048 0 1.67.742 1.67 1.974h-3.39c0-1.238.648-1.974 1.72-1.974zm5.358 1.003c0 1.009.628 1.644 1.891 1.929l1.035.235c.838.191 1.149.451 1.149.959 0 .603-.559.99-1.428.99-.838 0-1.409-.336-1.549-.927h-1.282c.114 1.219 1.168 1.949 2.799 1.949 1.688 0 2.774-.838 2.774-2.152 0-1.016-.616-1.6-1.981-1.904l-1.003-.222c-.806-.178-1.142-.451-1.142-.946 0-.572.527-.952 1.339-.952.762 0 1.302.349 1.416.914h1.219c-.115-1.2-1.105-1.924-2.616-1.924-1.587 0-2.621.813-2.621 2.05zM38.935 124v-3.891h3.828v-1.136h-3.828v-2.958h4.196v-1.175h-5.523V124h1.327zm10.95-1.828c-.172.565-.787.914-1.606.914-1.092 0-1.797-.749-1.797-1.917v-.311h4.64v-.749c0-1.968-1.098-3.161-2.907-3.161-1.796 0-2.983 1.199-2.983 3.021v1.054c0 1.968 1.11 3.11 3.053 3.11 1.492 0 2.634-.8 2.819-1.961h-1.22zm-1.682-4.183c1.047 0 1.67.742 1.67 1.974h-3.39c0-1.238.647-1.974 1.72-1.974zm6.703-2.8v1.93h-1.828v1.048h1.828v3.738c0 1.486.774 2.12 2.545 2.12.267 0 1.27-.025 1.41-.05v-1.041c-.153.019-.997.031-1.321.031-.882 0-1.358-.374-1.358-1.06v-3.738h2.716v-1.048h-2.735v-1.93h-1.257zm12.25 4.12c-.17-1.498-1.218-2.368-2.83-2.368-1.924 0-3.034 1.149-3.034 3.168v.85c0 2.019 1.11 3.174 3.034 3.174 1.612 0 2.66-.869 2.83-2.342H65.9c-.127.781-.736 1.244-1.587 1.244-1.123 0-1.746-.787-1.746-2.209v-.584c0-1.422.623-2.209 1.746-2.209.844 0 1.466.476 1.587 1.276h1.257zM69.316 124h1.276v-4.043c0-1.118.71-1.86 1.784-1.86 1.022 0 1.51.565 1.51 1.739V124h1.27v-4.475c0-1.657-.82-2.565-2.323-2.565-1.048 0-1.835.483-2.19 1.333h-.096v-3.91h-1.231V124zm11.07-8.538c.572 0 .984-.393.984-.939 0-.552-.412-.946-.984-.946-.565 0-.984.394-.984.946 0 .546.42.939.984.939zm2.92 8.538v-1.028h-2.234v-5.891h-3.523v1.028h2.279v4.863h-2.33V124h5.808zm2.095 0h1.27v-4.056c0-1.117.71-1.86 1.77-1.86 1.022 0 1.499.559 1.499 1.746V124h1.275v-4.488c0-1.663-.812-2.564-2.317-2.564-1.034 0-1.815.482-2.177 1.339h-.089v-1.206H85.4V124zm10.746 2.596c1.918 0 3.066-.977 3.066-2.602v-6.913h-1.256v1.098h-.121c-.28-.755-1.041-1.212-2.044-1.212-1.631 0-2.666 1.136-2.666 2.945v1.181c0 1.803 1.028 2.945 2.622 2.945 1.015 0 1.796-.463 2.069-1.206h.12v1.155c0 1.041-.628 1.613-1.77 1.613-.876 0-1.53-.35-1.664-.889h-1.256c.133 1.168 1.237 1.885 2.9 1.885zm-1.726-5.624v-.958c0-1.181.686-1.943 1.758-1.943 1.067 0 1.758.756 1.758 1.943v.958c0 1.181-.691 1.943-1.758 1.943-1.072 0-1.758-.762-1.758-1.943zm17.799 5.624c1.917 0 3.066-.977 3.066-2.602v-6.913h-1.257v1.098h-.121c-.279-.755-1.041-1.212-2.044-1.212-1.631 0-2.666 1.136-2.666 2.945v1.181c0 1.803 1.029 2.945 2.622 2.945 1.015 0 1.796-.463 2.069-1.206h.121v1.155c0 1.041-.629 1.613-1.771 1.613-.876 0-1.53-.35-1.663-.889h-1.257c.133 1.168 1.238 1.885 2.901 1.885zm-1.727-5.624v-.958c0-1.181.686-1.943 1.758-1.943 1.067 0 1.759.756 1.759 1.943v.958c0 1.181-.692 1.943-1.759 1.943-1.072 0-1.758-.762-1.758-1.943zm11.718 1.2c-.171.565-.787.914-1.606.914-1.092 0-1.796-.749-1.796-1.917v-.311h4.64v-.749c0-1.968-1.098-3.161-2.907-3.161-1.797 0-2.984 1.199-2.984 3.021v1.054c0 1.968 1.111 3.11 3.053 3.11 1.492 0 2.635-.8 2.819-1.961h-1.219zm-1.682-4.183c1.047 0 1.669.742 1.669 1.974h-3.389c0-1.238.647-1.974 1.72-1.974zm11.343.838c0-1.225-.489-1.879-1.422-1.879-.685 0-1.219.425-1.384 1.111h-.139c-.146-.705-.597-1.111-1.244-1.111-.661 0-1.149.419-1.314 1.136h-.14v-1.003h-1.124V124h1.118v-4.691c0-.762.349-1.231.907-1.231.527 0 .813.393.813 1.136V124h1.111v-4.691c0-.762.343-1.231.888-1.231.521 0 .813.4.813 1.142V124h1.117v-5.173zm16.072 0c0-1.225-.488-1.879-1.422-1.879-.685 0-1.218.425-1.383 1.111h-.14c-.146-.705-.597-1.111-1.244-1.111-.66 0-1.149.419-1.314 1.136h-.14v-1.003h-1.123V124h1.117v-4.691c0-.762.349-1.231.908-1.231.527 0 .812.393.812 1.136V124h1.111v-4.691c0-.762.343-1.231.889-1.231.52 0 .812.4.812 1.142V124h1.117v-5.173zm6.411 3.345c-.171.565-.787.914-1.605.914-1.092 0-1.797-.749-1.797-1.917v-.311h4.64v-.749c0-1.968-1.098-3.161-2.907-3.161-1.796 0-2.983 1.199-2.983 3.021v1.054c0 1.968 1.11 3.11 3.053 3.11 1.492 0 2.634-.8 2.818-1.961h-1.219zm-1.682-4.183c1.048 0 1.67.742 1.67 1.974h-3.39c0-1.238.648-1.974 1.72-1.974zm6.703-2.8v1.93h-1.828v1.048h1.828v3.738c0 1.486.775 2.12 2.546 2.12.267 0 1.269-.025 1.409-.05v-1.041c-.152.019-.997.031-1.32.031-.883 0-1.359-.374-1.359-1.06v-3.738h2.717v-1.048h-2.736v-1.93h-1.257zm8.525 8.925c.978 0 1.721-.406 2.051-1.117h.12v1.009h1.213v-4.729c0-1.453-.952-2.291-2.622-2.291-1.485 0-2.571.774-2.698 1.917h1.244c.166-.546.692-.863 1.429-.863.888 0 1.384.444 1.384 1.237v.61l-1.816.095c-1.612.095-2.501.819-2.501 2.05 0 1.251.876 2.082 2.196 2.082zm.394-1.06c-.813 0-1.32-.412-1.32-1.079 0-.673.482-1.054 1.402-1.104l1.645-.083v.73c0 .882-.737 1.536-1.727 1.536zm7.877 1.06c.997 0 1.708-.425 2.038-1.206h.121V124h1.275v-9.617h-1.307v3.796h-.121c-.279-.774-1.009-1.212-2.006-1.212-1.593 0-2.609 1.136-2.609 2.945v1.257c0 1.809 1.016 2.945 2.609 2.945zm.419-1.13c-1.066 0-1.739-.749-1.739-1.936v-1.034c0-1.187.673-1.943 1.739-1.943 1.067 0 1.74.749 1.74 1.943v1.034c0 1.187-.673 1.936-1.74 1.936zm7.383 1.13c.977 0 1.72-.406 2.05-1.117h.121v1.009h1.212v-4.729c0-1.453-.952-2.291-2.622-2.291-1.485 0-2.57.774-2.697 1.917h1.244c.165-.546.692-.863 1.428-.863.889 0 1.384.444 1.384 1.237v.61l-1.816.095c-1.612.095-2.501.819-2.501 2.05 0 1.251.876 2.082 2.197 2.082zm.393-1.06c-.812 0-1.32-.412-1.32-1.079 0-.673.482-1.054 1.403-1.104l1.644-.083v.73c0 .882-.737 1.536-1.727 1.536zm7.154-7.865v1.93h-1.828v1.048h1.828v3.738c0 1.486.774 2.12 2.545 2.12.267 0 1.27-.025 1.41-.05v-1.041c-.153.019-.997.031-1.321.031-.882 0-1.358-.374-1.358-1.06v-3.738h2.717v-1.048h-2.736v-1.93h-1.257zm8.525 8.925c.977 0 1.72-.406 2.05-1.117h.121v1.009h1.212v-4.729c0-1.453-.952-2.291-2.621-2.291-1.486 0-2.571.774-2.698 1.917h1.244c.165-.546.692-.863 1.428-.863.889 0 1.384.444 1.384 1.237v.61l-1.815.095c-1.613.095-2.501.819-2.501 2.05 0 1.251.876 2.082 2.196 2.082zm.393-1.06c-.812 0-1.32-.412-1.32-1.079 0-.673.483-1.054 1.403-1.104l1.644-.083v.73c0 .882-.736 1.536-1.727 1.536zM42.617 144v-1.149H40.75v-6.862h1.866v-1.149h-5.053v1.149h1.866v6.862h-1.866V144h5.053zm2.602 0h1.27v-4.056c0-1.117.71-1.86 1.77-1.86 1.023 0 1.499.559 1.499 1.746V144h1.276v-4.488c0-1.663-.813-2.564-2.317-2.564-1.035 0-1.816.482-2.177 1.339h-.09v-1.206h-1.23V144zm8.341-5.008c0 1.009.628 1.644 1.892 1.929l1.034.235c.838.191 1.15.451 1.15.959 0 .603-.56.99-1.429.99-.838 0-1.41-.336-1.549-.927h-1.282c.114 1.219 1.168 1.949 2.8 1.949 1.688 0 2.773-.838 2.773-2.152 0-1.016-.615-1.6-1.98-1.904l-1.003-.222c-.806-.178-1.143-.451-1.143-.946 0-.571.527-.952 1.34-.952.761 0 1.3.349 1.415.914h1.219c-.114-1.2-1.105-1.924-2.615-1.924-1.587 0-2.622.813-2.622 2.051zm9.382-3.803v1.93h-1.828v1.048h1.828v3.738c0 1.486.774 2.12 2.545 2.12.267 0 1.27-.025 1.41-.05v-1.041c-.153.019-.997.031-1.32.031-.883 0-1.36-.374-1.36-1.06v-3.738h2.718v-1.048h-2.736v-1.93h-1.257zm8.525 8.925c.977 0 1.72-.406 2.05-1.117h.12v1.009h1.213v-4.729c0-1.453-.952-2.291-2.621-2.291-1.486 0-2.571.774-2.698 1.917h1.244c.165-.546.692-.863 1.428-.863.889 0 1.384.444 1.384 1.237v.61l-1.816.095c-1.612.095-2.5.819-2.5 2.05 0 1.251.876 2.082 2.196 2.082zm.393-1.06c-.812 0-1.32-.412-1.32-1.079 0-.673.482-1.054 1.403-1.104l1.644-.083v.73c0 .882-.736 1.536-1.727 1.536zm11.445.946v-1.028h-2.222v-8.589h-3.535v1.035h2.266v7.554h-2.317V144h5.808zm8.036 0v-1.028H89.12v-8.589h-3.536v1.035h2.266v7.554h-2.317V144h5.808zm5.117-8.538c.57 0 .983-.393.983-.939 0-.552-.412-.946-.984-.946-.564 0-.983.394-.983.946 0 .546.419.939.983.939zm2.92 8.538v-1.028h-2.235v-5.891H93.62v1.028H95.9v4.863h-2.33V144h5.808zm2.094 0h1.27v-4.056c0-1.117.711-1.86 1.771-1.86 1.022 0 1.498.559 1.498 1.746V144h1.276v-4.488c0-1.663-.813-2.564-2.317-2.564-1.035 0-1.816.482-2.178 1.339h-.088v-1.206h-1.232V144zm10.747 2.596c1.917 0 3.066-.977 3.066-2.602v-6.913h-1.257v1.098h-.121c-.279-.755-1.041-1.212-2.044-1.212-1.631 0-2.666 1.136-2.666 2.945v1.181c0 1.803 1.029 2.945 2.622 2.945 1.015 0 1.796-.463 2.069-1.206h.121v1.155c0 1.041-.629 1.613-1.771 1.613-.876 0-1.53-.35-1.663-.889h-1.257c.133 1.168 1.238 1.885 2.901 1.885zm-1.727-5.624v-.958c0-1.181.686-1.943 1.758-1.943 1.067 0 1.759.756 1.759 1.943v.958c0 1.181-.692 1.943-1.759 1.943-1.072 0-1.758-.762-1.758-1.943zm17.767-.057c0-1.695.87-2.666 2.431-2.666.381 0 .832.083 1.143.197v-1.397c-.229-.095-.603-.146-.997-.146-1.326 0-2.132.641-2.405 1.943h-.178v-1.765h-2.736v.978h1.504v4.963h-1.371V144h4.71v-.978h-2.101v-2.107zm11.172-3.834h-1.269v4.056c0 1.117-.711 1.86-1.771 1.86-1.022 0-1.498-.559-1.498-1.739v-4.177h-1.276v4.488c0 1.663.812 2.564 2.317 2.564 1.034 0 1.815-.482 2.177-1.333h.089v1.2h1.231v-6.919zm5.662 7.033c1.594 0 2.609-1.136 2.609-2.945v-1.257c0-1.809-1.015-2.945-2.609-2.945-.996 0-1.72.438-1.999 1.212h-.127v-3.796h-1.308V144h1.282v-1.092h.121c.324.781 1.035 1.206 2.031 1.206zm-.419-1.13c-1.06 0-1.739-.749-1.739-1.936v-1.034c0-1.194.679-1.943 1.739-1.943 1.067 0 1.74.756 1.74 1.943v1.034c0 1.187-.673 1.936-1.74 1.936zm5.948 3.492c1.409 0 2.057-.546 2.66-2.267l2.539-7.128h-1.352l-1.809 5.662h-.089l-1.822-5.662h-1.396l2.52 6.97-.108.343c-.254.73-.616 1.009-1.283 1.009-.101 0-.311-.007-.38-.019v1.073c.082.006.323.019.52.019zM42.617 164v-1.149H40.75v-6.862h1.866v-1.149h-5.053v1.149h1.866v6.862h-1.866V164h5.053zm2.602 0h1.27v-4.056c0-1.117.71-1.86 1.77-1.86 1.023 0 1.499.559 1.499 1.746V164h1.276v-4.488c0-1.663-.813-2.564-2.317-2.564-1.035 0-1.816.482-2.177 1.339h-.09v-1.206h-1.23V164zm8.341-5.008c0 1.009.628 1.644 1.892 1.929l1.034.235c.838.191 1.15.451 1.15.959 0 .603-.56.99-1.429.99-.838 0-1.41-.336-1.549-.927h-1.282c.114 1.219 1.168 1.949 2.8 1.949 1.688 0 2.773-.838 2.773-2.152 0-1.016-.615-1.6-1.98-1.904l-1.003-.222c-.806-.178-1.143-.451-1.143-.946 0-.571.527-.952 1.34-.952.761 0 1.3.349 1.415.914h1.219c-.114-1.2-1.105-1.924-2.615-1.924-1.587 0-2.622.813-2.622 2.051zm9.382-3.803v1.93h-1.828v1.048h1.828v3.738c0 1.486.774 2.12 2.545 2.12.267 0 1.27-.025 1.41-.05v-1.041c-.153.019-.997.031-1.32.031-.883 0-1.36-.374-1.36-1.06v-3.738h2.718v-1.048h-2.736v-1.93h-1.257zm8.525 8.925c.977 0 1.72-.406 2.05-1.117h.12v1.009h1.213v-4.729c0-1.453-.952-2.291-2.621-2.291-1.486 0-2.571.774-2.698 1.917h1.244c.165-.546.692-.863 1.428-.863.889 0 1.384.444 1.384 1.237v.61l-1.816.095c-1.612.095-2.5.819-2.5 2.05 0 1.251.876 2.082 2.196 2.082zm.393-1.06c-.812 0-1.32-.412-1.32-1.079 0-.673.482-1.054 1.403-1.104l1.644-.083v.73c0 .882-.736 1.536-1.727 1.536zm11.445.946v-1.028h-2.222v-8.589h-3.535v1.035h2.266v7.554h-2.317V164h5.808zm8.036 0v-1.028H89.12v-8.589h-3.536v1.035h2.266v7.554h-2.317V164h5.808zm5.117-8.538c.57 0 .983-.393.983-.939 0-.552-.412-.946-.984-.946-.564 0-.983.394-.983.946 0 .546.419.939.983.939zm2.92 8.538v-1.028h-2.235v-5.891H93.62v1.028H95.9v4.863h-2.33V164h5.808zm2.094 0h1.27v-4.056c0-1.117.711-1.86 1.771-1.86 1.022 0 1.498.559 1.498 1.746V164h1.276v-4.488c0-1.663-.813-2.564-2.317-2.564-1.035 0-1.816.482-2.178 1.339h-.088v-1.206h-1.232V164zm10.747 2.596c1.917 0 3.066-.977 3.066-2.602v-6.913h-1.257v1.098h-.121c-.279-.755-1.041-1.212-2.044-1.212-1.631 0-2.666 1.136-2.666 2.945v1.181c0 1.803 1.029 2.945 2.622 2.945 1.015 0 1.796-.463 2.069-1.206h.121v1.155c0 1.041-.629 1.613-1.771 1.613-.876 0-1.53-.35-1.663-.889h-1.257c.133 1.168 1.238 1.885 2.901 1.885zm-1.727-5.624v-.958c0-1.181.686-1.943 1.758-1.943 1.067 0 1.759.756 1.759 1.943v.958c0 1.181-.692 1.943-1.759 1.943-1.072 0-1.758-.762-1.758-1.943zM125.581 164h1.269v-4.056c0-1.117.711-1.86 1.771-1.86 1.022 0 1.498.559 1.498 1.746V164h1.276v-4.488c0-1.663-.812-2.564-2.317-2.564-1.035 0-1.815.482-2.177 1.339h-.089v-1.206h-1.231V164zm10.943.133c1.866 0 3.053-1.193 3.053-3.066v-1.047c0-1.879-1.187-3.066-3.053-3.066-1.866 0-3.053 1.187-3.053 3.066v1.047c0 1.873 1.187 3.066 3.053 3.066zm0-6.1c1.104 0 1.796.794 1.796 2.076v.87c0 1.282-.692 2.075-1.796 2.075-1.105 0-1.796-.793-1.796-2.075v-.87c0-1.282.691-2.076 1.796-2.076zm7.503 6.081c.996 0 1.707-.425 2.037-1.206h.121V164h1.276v-9.617h-1.308v3.796h-.12c-.28-.774-1.01-1.212-2.006-1.212-1.593 0-2.609 1.136-2.609 2.945v1.257c0 1.809 1.016 2.945 2.609 2.945zm.419-1.13c-1.067 0-1.739-.749-1.739-1.936v-1.034c0-1.187.672-1.943 1.739-1.943 1.066 0 1.739.749 1.739 1.943v1.034c0 1.187-.673 1.936-1.739 1.936zm9.908-.812c-.171.565-.787.914-1.605.914-1.092 0-1.797-.749-1.797-1.917v-.311h4.64v-.749c0-1.968-1.098-3.161-2.907-3.161-1.796 0-2.983 1.199-2.983 3.021v1.054c0 1.968 1.11 3.11 3.053 3.11 1.492 0 2.634-.8 2.818-1.961h-1.219zm-1.682-4.183c1.048 0 1.67.742 1.67 1.974h-3.39c0-1.238.648-1.974 1.72-1.974zM22.73 182.502l.787.819 3.796-3.853-3.796-3.86-.787.826 1.415 1.364 1.289 1.137v.038l-1.543-.083H20v1.149h3.878l1.556-.076v.038l-1.289 1.136-1.415 1.365zm14.282-7.662V184h2.678c2.597 0 3.904-1.549 3.904-4.608 0-3.016-1.32-4.552-3.904-4.552h-2.678zm1.326 1.175h1.206c1.829 0 2.698 1.091 2.698 3.389 0 2.343-.857 3.422-2.698 3.422h-1.206v-6.811zm9.903-.553c.571 0 .984-.393.984-.939 0-.552-.413-.946-.984-.946-.565 0-.984.394-.984.946 0 .546.419.939.984.939zM51.16 184v-1.028h-2.235v-5.891h-3.523v1.028h2.28v4.863h-2.33V184h5.808zm2.4-5.008c0 1.009.627 1.644 1.89 1.929l1.035.235c.838.191 1.15.451 1.15.959 0 .603-.56.99-1.429.99-.838 0-1.41-.336-1.549-.927h-1.282c.114 1.219 1.168 1.949 2.8 1.949 1.688 0 2.773-.838 2.773-2.152 0-1.016-.615-1.6-1.98-1.904l-1.003-.222c-.806-.178-1.143-.451-1.143-.946 0-.571.527-.952 1.34-.952.761 0 1.3.349 1.415.914h1.219c-.114-1.2-1.105-1.924-2.615-1.924-1.587 0-2.622.813-2.622 2.051zm13.596.317c-.172-1.498-1.219-2.368-2.831-2.368-1.924 0-3.034 1.149-3.034 3.168v.85c0 2.019 1.11 3.174 3.034 3.174 1.612 0 2.66-.869 2.83-2.342H65.9c-.127.781-.736 1.244-1.587 1.244-1.123 0-1.746-.787-1.746-2.209v-.584c0-1.422.623-2.209 1.746-2.209.844 0 1.466.476 1.587 1.276h1.257zm5.078 4.824c1.866 0 3.053-1.193 3.053-3.066v-1.047c0-1.879-1.187-3.066-3.053-3.066-1.866 0-3.053 1.187-3.053 3.066v1.047c0 1.873 1.187 3.066 3.053 3.066zm0-6.1c1.104 0 1.796.794 1.796 2.076v.87c0 1.282-.692 2.075-1.796 2.075-1.105 0-1.796-.793-1.796-2.075v-.87c0-1.282.691-2.076 1.796-2.076zm4.83-.952L79.566 184h1.416l2.495-6.919h-1.353l-1.796 5.618h-.089l-1.809-5.618h-1.365zm13 5.091c-.171.565-.787.914-1.605.914-1.092 0-1.797-.749-1.797-1.917v-.311h4.64v-.749c0-1.968-1.098-3.161-2.907-3.161-1.796 0-2.983 1.199-2.983 3.021v1.054c0 1.968 1.11 3.11 3.053 3.11 1.492 0 2.634-.8 2.818-1.961h-1.219zm-1.682-4.183c1.048 0 1.67.742 1.67 1.974h-3.39c0-1.238.648-1.974 1.72-1.974zm7.732 2.926c0-1.695.87-2.666 2.43-2.666.382 0 .832.083 1.144.197v-1.397c-.229-.095-.604-.146-.997-.146-1.327 0-2.133.641-2.406 1.943h-.178v-1.765h-2.735v.978h1.504v4.963h-1.371V184h4.71v-.978h-2.101v-2.107zm8.379-5.453c.571 0 .984-.393.984-.939 0-.552-.413-.946-.984-.946-.565 0-.984.394-.984.946 0 .546.419.939.984.939zm2.92 8.538v-1.028h-2.235v-5.891h-3.523v1.028h2.279v4.863h-2.33V184h5.809zm2.094 0h1.27v-4.056c0-1.117.711-1.86 1.771-1.86 1.022 0 1.498.559 1.498 1.746V184h1.276v-4.488c0-1.663-.813-2.564-2.317-2.564-1.035 0-1.816.482-2.177 1.339h-.089v-1.206h-1.232V184zm10.747 2.596c1.917 0 3.066-.977 3.066-2.602v-6.913h-1.257v1.098h-.121c-.279-.755-1.041-1.212-2.044-1.212-1.631 0-2.666 1.136-2.666 2.945v1.181c0 1.803 1.029 2.945 2.622 2.945 1.016 0 1.796-.463 2.069-1.206h.121v1.155c0 1.041-.628 1.613-1.771 1.613-.876 0-1.53-.35-1.663-.889h-1.257c.133 1.168 1.238 1.885 2.901 1.885zm-1.727-5.624v-.958c0-1.181.686-1.943 1.759-1.943 1.066 0 1.758.756 1.758 1.943v.958c0 1.181-.692 1.943-1.758 1.943-1.073 0-1.759-.762-1.759-1.943zm18.535-3.999c-1.002 0-1.713.419-2.037 1.206h-.121v-1.098h-1.276v9.242h1.308v-3.421h.121c.279.774 1.003 1.212 2.005 1.212 1.594 0 2.609-1.136 2.609-2.939v-1.263c0-1.803-1.015-2.939-2.609-2.939zm-.425 1.13c1.067 0 1.746.749 1.746 1.936v1.035c0 1.187-.679 1.942-1.746 1.942-1.06 0-1.733-.749-1.733-1.942v-1.035c0-1.187.673-1.936 1.733-1.936zm7.694 2.812c0-1.695.869-2.666 2.431-2.666.381 0 .831.083 1.142.197v-1.397c-.228-.095-.603-.146-.996-.146-1.327 0-2.133.641-2.406 1.943h-.178v-1.765h-2.736v.978h1.505v4.963h-1.371V184h4.71v-.978h-2.101v-2.107zm8.264 3.218c1.866 0 3.053-1.193 3.053-3.066v-1.047c0-1.879-1.187-3.066-3.053-3.066-1.866 0-3.053 1.187-3.053 3.066v1.047c0 1.873 1.187 3.066 3.053 3.066zm0-6.1c1.105 0 1.797.794 1.797 2.076v.87c0 1.282-.692 2.075-1.797 2.075-1.104 0-1.796-.793-1.796-2.075v-.87c0-1.282.692-2.076 1.796-2.076zm10.994 1.276c-.171-1.498-1.218-2.368-2.831-2.368-1.923 0-3.034 1.149-3.034 3.168v.85c0 2.019 1.111 3.174 3.034 3.174 1.613 0 2.66-.869 2.831-2.342h-1.257c-.126.781-.736 1.244-1.586 1.244-1.124 0-1.746-.787-1.746-2.209v-.584c0-1.422.622-2.209 1.746-2.209.844 0 1.466.476 1.586 1.276h1.257zm6.837 2.863c-.172.565-.787.914-1.606.914-1.092 0-1.797-.749-1.797-1.917v-.311h4.641v-.749c0-1.968-1.099-3.161-2.908-3.161-1.796 0-2.983 1.199-2.983 3.021v1.054c0 1.968 1.111 3.11 3.053 3.11 1.492 0 2.634-.8 2.819-1.961h-1.219zm-1.682-4.183c1.047 0 1.669.742 1.669 1.974h-3.39c0-1.238.648-1.974 1.721-1.974zm5.357 1.003c0 1.009.628 1.644 1.892 1.929l1.034.235c.838.191 1.149.451 1.149.959 0 .603-.558.99-1.428.99-.838 0-1.409-.336-1.549-.927h-1.282c.114 1.219 1.168 1.949 2.799 1.949 1.689 0 2.774-.838 2.774-2.152 0-1.016-.616-1.6-1.98-1.904l-1.003-.222c-.806-.178-1.143-.451-1.143-.946 0-.571.527-.952 1.34-.952.761 0 1.301.349 1.415.914h1.219c-.114-1.2-1.105-1.924-2.615-1.924-1.587 0-2.622.813-2.622 2.051zm8.036 0c0 1.009.629 1.644 1.892 1.929l1.034.235c.838.191 1.149.451 1.149.959 0 .603-.558.99-1.428.99-.838 0-1.409-.336-1.549-.927h-1.282c.114 1.219 1.168 1.949 2.799 1.949 1.689 0 2.774-.838 2.774-2.152 0-1.016-.615-1.6-1.98-1.904l-1.003-.222c-.806-.178-1.143-.451-1.143-.946 0-.571.527-.952 1.34-.952.761 0 1.301.349 1.415.914h1.219c-.114-1.2-1.104-1.924-2.615-1.924-1.587 0-2.622.813-2.622 2.051zm17.418-3.803v1.93h-1.828v1.048h1.828v3.738c0 1.486.775 2.12 2.546 2.12.266 0 1.269-.025 1.409-.05v-1.041c-.153.019-.997.031-1.321.031-.882 0-1.358-.374-1.358-1.06v-3.738h2.717v-1.048h-2.736v-1.93h-1.257zm7.319 11.287c1.409 0 2.057-.546 2.66-2.267l2.539-7.128h-1.352l-1.809 5.662h-.089l-1.822-5.662h-1.397l2.52 6.97-.107.343c-.254.73-.616 1.009-1.283 1.009-.101 0-.311-.007-.381-.019v1.073c.083.006.324.019.521.019zm10.55-9.503c-1.003 0-1.714.419-2.038 1.206h-.12v-1.098h-1.276v9.242h1.307v-3.421h.121c.279.774 1.003 1.212 2.006 1.212 1.593 0 2.609-1.136 2.609-2.939v-1.263c0-1.803-1.016-2.939-2.609-2.939zm-.425 1.13c1.066 0 1.745.749 1.745 1.936v1.035c0 1.187-.679 1.942-1.745 1.942-1.061 0-1.733-.749-1.733-1.942v-1.035c0-1.187.672-1.936 1.733-1.936zm9.68 4.069c-.172.565-.787.914-1.606.914-1.092 0-1.797-.749-1.797-1.917v-.311h4.64v-.749c0-1.968-1.098-3.161-2.907-3.161-1.796 0-2.983 1.199-2.983 3.021v1.054c0 1.968 1.111 3.11 3.053 3.11 1.492 0 2.634-.8 2.818-1.961h-1.218zm-1.682-4.183c1.047 0 1.669.742 1.669 1.974h-3.39c0-1.238.648-1.974 1.721-1.974zm5.357 1.003c0 1.009.628 1.644 1.892 1.929l1.034.235c.838.191 1.149.451 1.149.959 0 .603-.558.99-1.428.99-.838 0-1.409-.336-1.549-.927h-1.282c.114 1.219 1.168 1.949 2.799 1.949 1.689 0 2.774-.838 2.774-2.152 0-1.016-.616-1.6-1.98-1.904l-1.003-.222c-.806-.178-1.143-.451-1.143-.946 0-.571.527-.952 1.34-.952.761 0 1.301.349 1.415.914h1.219c-.114-1.2-1.105-1.924-2.615-1.924-1.587 0-2.622.813-2.622 2.051z" fill="#8A8F98"/><path opacity=".4" d="M186.402 25.114c1.695 0 2.787-1.333 2.787-3.453 0-2.114-1.098-3.447-2.78-3.447-.946 0-1.708.47-2.108 1.245h-.031V15.84h-1.372V25h1.333v-1.136h.026c.412.774 1.168 1.25 2.145 1.25zm-.368-5.744c1.079 0 1.746.888 1.746 2.291 0 1.416-.667 2.292-1.746 2.292-1.041 0-1.771-.902-1.771-2.292 0-1.377.73-2.291 1.771-2.291zm6.564 4.659c-.737 0-1.219-.381-1.219-.965 0-.571.463-.933 1.282-.99l1.644-.102v.527c0 .87-.749 1.53-1.707 1.53zm-.381 1.085c.876 0 1.72-.47 2.107-1.212h.032V25h1.314v-4.602c0-1.34-1.035-2.196-2.653-2.196-1.651 0-2.679.888-2.755 2.094h1.295c.12-.596.615-.977 1.409-.977.838 0 1.339.444 1.339 1.187v.514l-1.828.108c-1.587.089-2.482.806-2.482 1.974 0 1.2.914 2.012 2.222 2.012zm4.665-4.9c0 .933.61 1.561 1.816 1.853l1.193.292c.698.178.952.413.952.838 0 .54-.508.883-1.333.883-.838 0-1.333-.356-1.441-.997h-1.358c.108 1.225 1.155 2.044 2.736 2.044 1.637 0 2.774-.838 2.774-2.057 0-.984-.508-1.491-1.854-1.815l-1.123-.26c-.692-.172-1.022-.451-1.022-.864 0-.526.495-.888 1.237-.888.769 0 1.257.374 1.321.977h1.288c-.044-1.187-1.085-2.018-2.57-2.018-1.562 0-2.616.818-2.616 2.012zM203.338 25h1.371v-3.86c0-1.053.622-1.751 1.638-1.751.965 0 1.46.59 1.46 1.574V25h1.377v-4.304c0-1.51-.876-2.488-2.342-2.488-1.016 0-1.746.45-2.114 1.232h-.032v-3.6h-1.358V25z" fill="#F7F8F8"/></svg>
