<svg width="393" height="253" viewBox="0 0 393 253" fill="none" xmlns="http://www.w3.org/2000/svg">
<rect x="0.25" width="392" height="253" rx="6" fill="#28292C"/>
<rect x="0.75" y="0.5" width="391" height="252" rx="5.5" stroke="white" stroke-opacity="0.1"/>
<path d="M21.0308 66.5625C21.1196 68.0796 22.2432 69.0698 23.9697 69.1904V69.895H24.7505V69.1904C26.4961 69.0508 27.5942 68.0225 27.5942 66.48C27.5942 65.1025 26.8389 64.3472 25.0107 63.9028L24.7505 63.833V60.7036C25.6138 60.8306 26.1914 61.3765 26.293 62.1826H27.4355C27.3594 60.7671 26.3057 59.7959 24.7505 59.6499V58.9453H23.9697V59.6499C22.313 59.7769 21.2529 60.7734 21.2529 62.2397C21.2529 63.5728 22.04 64.3789 23.7603 64.7915L23.9697 64.8423V68.1367C22.9668 68.0161 22.2812 67.4258 22.186 66.5625H21.0308ZM22.4399 62.1826C22.4399 61.3638 23.0239 60.8115 23.9697 60.6973V63.6426C22.8779 63.3379 22.4399 62.9189 22.4399 62.1826ZM26.4072 66.5625C26.4072 67.4067 25.7471 68.0161 24.7505 68.1367V65.0264C25.9185 65.3311 26.4072 65.7881 26.4072 66.5625ZM21.0308 106.562C21.1196 108.08 22.2432 109.07 23.9697 109.19V109.895H24.7505V109.19C26.4961 109.051 27.5942 108.022 27.5942 106.48C27.5942 105.103 26.8389 104.347 25.0107 103.903L24.7505 103.833V100.704C25.6138 100.831 26.1914 101.376 26.293 102.183H27.4355C27.3594 100.767 26.3057 99.7959 24.7505 99.6499V98.9453H23.9697V99.6499C22.313 99.7769 21.2529 100.773 21.2529 102.24C21.2529 103.573 22.04 104.379 23.7603 104.792L23.9697 104.842V108.137C22.9668 108.016 22.2812 107.426 22.186 106.562H21.0308ZM22.4399 102.183C22.4399 101.364 23.0239 100.812 23.9697 100.697V103.643C22.8779 103.338 22.4399 102.919 22.4399 102.183ZM26.4072 106.562C26.4072 107.407 25.7471 108.016 24.7505 108.137V105.026C25.9185 105.331 26.4072 105.788 26.4072 106.562Z" fill="#8A8F98"/>
<path d="M39.8071 69.1143C40.8037 69.1143 41.5146 68.689 41.8447 67.9082H41.9653V69H43.2412V59.3833H41.9336V63.1792H41.813C41.5337 62.4048 40.8037 61.9668 39.8071 61.9668C38.2139 61.9668 37.1982 63.103 37.1982 64.9121V66.1689C37.1982 67.978 38.2139 69.1143 39.8071 69.1143ZM40.2261 67.9844C39.1597 67.9844 38.4868 67.2354 38.4868 66.0483V65.0137C38.4868 63.8267 39.1597 63.0713 40.2261 63.0713C41.2925 63.0713 41.9653 63.8203 41.9653 65.0137V66.0483C41.9653 67.2354 41.2925 67.9844 40.2261 67.9844ZM48.3765 69.1333C50.2427 69.1333 51.4297 67.9399 51.4297 66.0674V65.02C51.4297 63.1411 50.2427 61.9541 48.3765 61.9541C46.5103 61.9541 45.3232 63.1411 45.3232 65.02V66.0674C45.3232 67.9399 46.5103 69.1333 48.3765 69.1333ZM48.3765 63.0332C49.481 63.0332 50.1729 63.8267 50.1729 65.1089V65.9785C50.1729 67.2607 49.481 68.0542 48.3765 68.0542C47.272 68.0542 46.5801 67.2607 46.5801 65.9785V65.1089C46.5801 63.8267 47.272 63.0332 48.3765 63.0332ZM59.3706 64.3091C59.1992 62.811 58.1519 61.9414 56.5396 61.9414C54.6162 61.9414 53.5054 63.0903 53.5054 65.1089V65.9595C53.5054 67.978 54.6162 69.1333 56.5396 69.1333C58.1519 69.1333 59.1992 68.2637 59.3706 66.791H58.1138C57.9868 67.5718 57.3774 68.0352 56.5269 68.0352C55.4033 68.0352 54.7812 67.248 54.7812 65.8262V65.2422C54.7812 63.8203 55.4033 63.0332 56.5269 63.0332C57.3711 63.0332 57.9932 63.5093 58.1138 64.3091H59.3706ZM63.376 65.0962H63.2808V59.3833H62.0112V69H63.2808V66.5435L64.1504 65.6929L66.4038 69H67.9019L65.0708 64.8613L67.7178 62.0811H66.207L63.376 65.0962ZM74.2432 67.1719C74.0718 67.7368 73.4561 68.0859 72.6372 68.0859C71.5454 68.0859 70.8408 67.3369 70.8408 66.1689V65.8579H75.481V65.1089C75.481 63.1411 74.3828 61.9478 72.5737 61.9478C70.7773 61.9478 69.5903 63.1475 69.5903 64.9692V66.0229C69.5903 67.9907 70.7012 69.1333 72.6436 69.1333C74.1353 69.1333 75.2778 68.3335 75.4619 67.1719H74.2432ZM72.561 62.9888C73.6084 62.9888 74.2305 63.7314 74.2305 64.9629H70.8408C70.8408 63.7251 71.4883 62.9888 72.561 62.9888ZM80.2925 65.915C80.2925 64.2202 81.1621 63.249 82.7236 63.249C83.1045 63.249 83.5552 63.3315 83.8662 63.4458V62.0493C83.6377 61.9541 83.2632 61.9033 82.8696 61.9033C81.543 61.9033 80.7368 62.5444 80.4639 63.8457H80.2861V62.0811H77.5503V63.0586H79.0547V68.0225H77.6836V69H82.3936V68.0225H80.2925V65.915ZM97.1328 61.9731C96.1299 61.9731 95.4189 62.3921 95.0952 63.1792H94.9746V62.0811H93.6987V71.3232H95.0063V67.9019H95.127C95.4062 68.6763 96.1299 69.1143 97.1328 69.1143C98.7261 69.1143 99.7417 67.978 99.7417 66.1753V64.9121C99.7417 63.1094 98.7261 61.9731 97.1328 61.9731ZM96.7075 63.103C97.7739 63.103 98.4531 63.8521 98.4531 65.0391V66.0737C98.4531 67.2607 97.7739 68.0161 96.7075 68.0161C95.6475 68.0161 94.9746 67.2671 94.9746 66.0737V65.0391C94.9746 63.8521 95.6475 63.103 96.7075 63.103ZM107.537 62.0811H106.267V66.1372C106.267 67.2544 105.556 67.9971 104.496 67.9971C103.474 67.9971 102.998 67.4385 102.998 66.2578V62.0811H101.722V66.5688C101.722 68.2319 102.535 69.1333 104.039 69.1333C105.074 69.1333 105.854 68.6509 106.216 67.8003H106.305V69H107.537V62.0811ZM115.7 69V67.9717H113.478V59.3833H109.942V60.418H112.208V67.9717H109.892V69H115.7ZM123.736 69V67.9717H121.514V59.3833H117.979V60.418H120.245V67.9717H117.928V69H123.736ZM152.846 89.0635C153.519 89.0635 154.065 88.4985 154.065 87.8193C154.065 87.1338 153.519 86.5752 152.846 86.5752C152.173 86.5752 151.627 87.1338 151.627 87.8193C151.627 88.4985 152.173 89.0635 152.846 89.0635ZM160.349 89.1143C161.346 89.1143 162.057 88.689 162.387 87.9082H162.507V89H163.783V79.3833H162.476V83.1792H162.355C162.076 82.4048 161.346 81.9668 160.349 81.9668C158.756 81.9668 157.74 83.103 157.74 84.9121V86.1689C157.74 87.978 158.756 89.1143 160.349 89.1143ZM160.768 87.9844C159.702 87.9844 159.029 87.2354 159.029 86.0483V85.0137C159.029 83.8267 159.702 83.0713 160.768 83.0713C161.834 83.0713 162.507 83.8203 162.507 85.0137V86.0483C162.507 87.2354 161.834 87.9844 160.768 87.9844ZM167.846 85.0962H167.75V79.3833H166.481V89H167.75V86.5435L168.62 85.6929L170.874 89H172.372L169.541 84.8613L172.188 82.0811H170.677L167.846 85.0962ZM176.726 85.915C176.726 84.2202 177.596 83.249 179.157 83.249C179.538 83.249 179.989 83.3315 180.3 83.4458V82.0493C180.071 81.9541 179.697 81.9033 179.303 81.9033C177.977 81.9033 177.17 82.5444 176.897 83.8457H176.72V82.0811H173.984V83.0586H175.488V88.0225H174.117V89H178.827V88.0225H176.726V85.915ZM184.991 89.0635C185.664 89.0635 186.209 88.4985 186.209 87.8193C186.209 87.1338 185.664 86.5752 184.991 86.5752C184.318 86.5752 183.772 87.1338 183.772 87.8193C183.772 88.4985 184.318 89.0635 184.991 89.0635ZM192.798 85.915C192.798 84.2202 193.668 83.249 195.229 83.249C195.61 83.249 196.061 83.3315 196.372 83.4458V82.0493C196.144 81.9541 195.769 81.9033 195.375 81.9033C194.049 81.9033 193.243 82.5444 192.97 83.8457H192.792V82.0811H190.056V83.0586H191.561V88.0225H190.189V89H194.899V88.0225H192.798V85.915ZM202.821 87.1719C202.65 87.7368 202.034 88.0859 201.215 88.0859C200.124 88.0859 199.419 87.3369 199.419 86.1689V85.8579H204.059V85.1089C204.059 83.1411 202.961 81.9478 201.152 81.9478C199.355 81.9478 198.168 83.1475 198.168 84.9692V86.0229C198.168 87.9907 199.279 89.1333 201.222 89.1333C202.713 89.1333 203.856 88.3335 204.04 87.1719H202.821ZM201.139 82.9888C202.187 82.9888 202.809 83.7314 202.809 84.9629H199.419C199.419 83.7251 200.066 82.9888 201.139 82.9888ZM208.902 91.5962C210.819 91.5962 211.968 90.6187 211.968 88.9937V82.0811H210.711V83.1792H210.591C210.312 82.4238 209.55 81.9668 208.547 81.9668C206.916 81.9668 205.881 83.103 205.881 84.9121V86.0928C205.881 87.8955 206.909 89.0381 208.502 89.0381C209.518 89.0381 210.299 88.5747 210.572 87.832H210.692V88.9873C210.692 90.0283 210.064 90.5996 208.921 90.5996C208.045 90.5996 207.392 90.2505 207.258 89.7109H206.001C206.135 90.8789 207.239 91.5962 208.902 91.5962ZM207.176 85.9722V85.0137C207.176 83.833 207.861 83.0713 208.934 83.0713C210 83.0713 210.692 83.8267 210.692 85.0137V85.9722C210.692 87.1528 210 87.9146 208.934 87.9146C207.861 87.9146 207.176 87.1528 207.176 85.9722ZM217.25 80.4624C217.821 80.4624 218.233 80.0688 218.233 79.5229C218.233 78.9707 217.821 78.5771 217.25 78.5771C216.685 78.5771 216.266 78.9707 216.266 79.5229C216.266 80.0688 216.685 80.4624 217.25 80.4624ZM220.169 89V87.9717H217.935V82.0811H214.412V83.1094H216.691V87.9717H214.361V89H220.169ZM222.569 83.9917C222.569 85.001 223.197 85.6357 224.46 85.9214L225.495 86.1562C226.333 86.3467 226.644 86.6069 226.644 87.1147C226.644 87.7178 226.085 88.105 225.216 88.105C224.378 88.105 223.807 87.7686 223.667 87.1782H222.385C222.499 88.397 223.553 89.127 225.184 89.127C226.873 89.127 227.958 88.2891 227.958 86.9751C227.958 85.9595 227.342 85.3755 225.978 85.0708L224.975 84.8486C224.168 84.6709 223.832 84.3979 223.832 83.9028C223.832 83.3315 224.359 82.9507 225.171 82.9507C225.933 82.9507 226.473 83.2998 226.587 83.8647H227.806C227.691 82.665 226.701 81.9414 225.19 81.9414C223.604 81.9414 222.569 82.7539 222.569 83.9917ZM231.951 80.1895V82.1191H230.123V83.1665H231.951V86.9053C231.951 88.3906 232.725 89.0254 234.496 89.0254C234.763 89.0254 235.766 89 235.905 88.9746V87.9336C235.753 87.9526 234.909 87.9653 234.585 87.9653C233.703 87.9653 233.227 87.5908 233.227 86.9053V83.1665H235.943V82.1191H233.208V80.1895H231.951ZM241.015 85.915C241.015 84.2202 241.885 83.249 243.446 83.249C243.827 83.249 244.278 83.3315 244.589 83.4458V82.0493C244.36 81.9541 243.986 81.9033 243.592 81.9033C242.266 81.9033 241.459 82.5444 241.187 83.8457H241.009V82.0811H238.273V83.0586H239.777V88.0225H238.406V89H243.116V88.0225H241.015V85.915ZM247.306 91.4756C248.715 91.4756 249.362 90.9297 249.965 89.2095L252.504 82.0811H251.152L249.343 87.7432H249.254L247.433 82.0811H246.036L248.556 89.0508L248.448 89.3936C248.194 90.1235 247.833 90.4028 247.166 90.4028C247.064 90.4028 246.855 90.3965 246.785 90.3838V91.4565C246.868 91.4629 247.109 91.4756 247.306 91.4756ZM257.316 89.0635C257.989 89.0635 258.535 88.4985 258.535 87.8193C258.535 87.1338 257.989 86.5752 257.316 86.5752C256.643 86.5752 256.097 87.1338 256.097 87.8193C256.097 88.4985 256.643 89.0635 257.316 89.0635ZM265.885 89.1143C267.479 89.1143 268.494 87.978 268.494 86.1689V84.9121C268.494 83.103 267.479 81.9668 265.885 81.9668C264.889 81.9668 264.165 82.4048 263.886 83.1792H263.759V79.3833H262.451V89H263.733V87.9082H263.854C264.178 88.689 264.889 89.1143 265.885 89.1143ZM265.466 87.9844C264.406 87.9844 263.727 87.2354 263.727 86.0483V85.0137C263.727 83.8203 264.406 83.0713 265.466 83.0713C266.533 83.0713 267.206 83.8267 267.206 85.0137V86.0483C267.206 87.2354 266.533 87.9844 265.466 87.9844ZM276.295 82.0811H275.026V86.1372C275.026 87.2544 274.315 87.9971 273.255 87.9971C272.233 87.9971 271.757 87.4385 271.757 86.2578V82.0811H270.481V86.5688C270.481 88.2319 271.293 89.1333 272.798 89.1333C273.833 89.1333 274.613 88.6509 274.975 87.8003H275.064V89H276.295V82.0811ZM281.539 80.4624C282.11 80.4624 282.522 80.0688 282.522 79.5229C282.522 78.9707 282.11 78.5771 281.539 78.5771C280.974 78.5771 280.555 78.9707 280.555 79.5229C280.555 80.0688 280.974 80.4624 281.539 80.4624ZM284.458 89V87.9717H282.224V82.0811H278.701V83.1094H280.98V87.9717H278.65V89H284.458ZM292.495 89V87.9717H290.273V79.3833H286.737V80.418H289.003V87.9717H286.687V89H292.495ZM296.963 89.1143C297.96 89.1143 298.671 88.689 299.001 87.9082H299.122V89H300.397V79.3833H299.09V83.1792H298.969C298.69 82.4048 297.96 81.9668 296.963 81.9668C295.37 81.9668 294.354 83.103 294.354 84.9121V86.1689C294.354 87.978 295.37 89.1143 296.963 89.1143ZM297.382 87.9844C296.316 87.9844 295.643 87.2354 295.643 86.0483V85.0137C295.643 83.8267 296.316 83.0713 297.382 83.0713C298.449 83.0713 299.122 83.8203 299.122 85.0137V86.0483C299.122 87.2354 298.449 87.9844 297.382 87.9844ZM305.533 89.0635C306.206 89.0635 306.751 88.4985 306.751 87.8193C306.751 87.1338 306.206 86.5752 305.533 86.5752C304.86 86.5752 304.314 87.1338 304.314 87.8193C304.314 88.4985 304.86 89.0635 305.533 89.0635ZM313.683 80.4624C314.254 80.4624 314.667 80.0688 314.667 79.5229C314.667 78.9707 314.254 78.5771 313.683 78.5771C313.118 78.5771 312.699 78.9707 312.699 79.5229C312.699 80.0688 313.118 80.4624 313.683 80.4624ZM316.603 89V87.9717H314.369V82.0811H310.846V83.1094H313.125V87.9717H310.795V89H316.603ZM321.605 89.1333C323.471 89.1333 324.658 87.9399 324.658 86.0674V85.02C324.658 83.1411 323.471 81.9541 321.605 81.9541C319.739 81.9541 318.552 83.1411 318.552 85.02V86.0674C318.552 87.9399 319.739 89.1333 321.605 89.1333ZM321.605 83.0332C322.709 83.0332 323.401 83.8267 323.401 85.1089V85.9785C323.401 87.2607 322.709 88.0542 321.605 88.0542C320.5 88.0542 319.809 87.2607 319.809 85.9785V85.1089C319.809 83.8267 320.5 83.0332 321.605 83.0332ZM39.8071 109.114C40.8037 109.114 41.5146 108.689 41.8447 107.908H41.9653V109H43.2412V99.3833H41.9336V103.179H41.813C41.5337 102.405 40.8037 101.967 39.8071 101.967C38.2139 101.967 37.1982 103.103 37.1982 104.912V106.169C37.1982 107.978 38.2139 109.114 39.8071 109.114ZM40.2261 107.984C39.1597 107.984 38.4868 107.235 38.4868 106.048V105.014C38.4868 103.827 39.1597 103.071 40.2261 103.071C41.2925 103.071 41.9653 103.82 41.9653 105.014V106.048C41.9653 107.235 41.2925 107.984 40.2261 107.984ZM48.3765 109.133C50.2427 109.133 51.4297 107.94 51.4297 106.067V105.02C51.4297 103.141 50.2427 101.954 48.3765 101.954C46.5103 101.954 45.3232 103.141 45.3232 105.02V106.067C45.3232 107.94 46.5103 109.133 48.3765 109.133ZM48.3765 103.033C49.481 103.033 50.1729 103.827 50.1729 105.109V105.979C50.1729 107.261 49.481 108.054 48.3765 108.054C47.272 108.054 46.5801 107.261 46.5801 105.979V105.109C46.5801 103.827 47.272 103.033 48.3765 103.033ZM59.3706 104.309C59.1992 102.811 58.1519 101.941 56.5396 101.941C54.6162 101.941 53.5054 103.09 53.5054 105.109V105.959C53.5054 107.978 54.6162 109.133 56.5396 109.133C58.1519 109.133 59.1992 108.264 59.3706 106.791H58.1138C57.9868 107.572 57.3774 108.035 56.5269 108.035C55.4033 108.035 54.7812 107.248 54.7812 105.826V105.242C54.7812 103.82 55.4033 103.033 56.5269 103.033C57.3711 103.033 57.9932 103.509 58.1138 104.309H59.3706ZM63.376 105.096H63.2808V99.3833H62.0112V109H63.2808V106.543L64.1504 105.693L66.4038 109H67.9019L65.0708 104.861L67.7178 102.081H66.207L63.376 105.096ZM74.2432 107.172C74.0718 107.737 73.4561 108.086 72.6372 108.086C71.5454 108.086 70.8408 107.337 70.8408 106.169V105.858H75.481V105.109C75.481 103.141 74.3828 101.948 72.5737 101.948C70.7773 101.948 69.5903 103.147 69.5903 104.969V106.023C69.5903 107.991 70.7012 109.133 72.6436 109.133C74.1353 109.133 75.2778 108.333 75.4619 107.172H74.2432ZM72.561 102.989C73.6084 102.989 74.2305 103.731 74.2305 104.963H70.8408C70.8408 103.725 71.4883 102.989 72.561 102.989ZM80.2925 105.915C80.2925 104.22 81.1621 103.249 82.7236 103.249C83.1045 103.249 83.5552 103.332 83.8662 103.446V102.049C83.6377 101.954 83.2632 101.903 82.8696 101.903C81.543 101.903 80.7368 102.544 80.4639 103.846H80.2861V102.081H77.5503V103.059H79.0547V108.022H77.6836V109H82.3936V108.022H80.2925V105.915ZM96.3647 105.915C96.3647 104.22 97.2344 103.249 98.7959 103.249C99.1768 103.249 99.6274 103.332 99.9385 103.446V102.049C99.71 101.954 99.3354 101.903 98.9419 101.903C97.6152 101.903 96.8091 102.544 96.5361 103.846H96.3584V102.081H93.6226V103.059H95.127V108.022H93.7559V109H98.4658V108.022H96.3647V105.915ZM107.537 102.081H106.267V106.137C106.267 107.254 105.556 107.997 104.496 107.997C103.474 107.997 102.998 107.438 102.998 106.258V102.081H101.722V106.569C101.722 108.232 102.535 109.133 104.039 109.133C105.074 109.133 105.854 108.651 106.216 107.8H106.305V109H107.537V102.081ZM109.758 109H111.028V104.944C111.028 103.827 111.739 103.084 112.799 103.084C113.821 103.084 114.297 103.643 114.297 104.83V109H115.573V104.512C115.573 102.849 114.76 101.948 113.256 101.948C112.221 101.948 111.44 102.43 111.079 103.287H110.99V102.081H109.758V109Z" fill="#1DE9B6"/>
<path d="M24.8013 89.1143C26.3945 89.1143 27.4102 87.978 27.4102 86.1689V84.9121C27.4102 83.103 26.3945 81.9668 24.8013 81.9668C23.8047 81.9668 23.0811 82.4048 22.8018 83.1792H22.6748V79.3833H21.3672V89H22.6494V87.9082H22.77C23.0938 88.689 23.8047 89.1143 24.8013 89.1143ZM24.3823 87.9844C23.3223 87.9844 22.6431 87.2354 22.6431 86.0483V85.0137C22.6431 83.8203 23.3223 83.0713 24.3823 83.0713C25.4487 83.0713 26.1216 83.8267 26.1216 85.0137V86.0483C26.1216 87.2354 25.4487 87.9844 24.3823 87.9844ZM35.2114 82.0811H33.9419V86.1372C33.9419 87.2544 33.231 87.9971 32.1709 87.9971C31.1489 87.9971 30.6729 87.4385 30.6729 86.2578V82.0811H29.397V86.5688C29.397 88.2319 30.2095 89.1333 31.7139 89.1333C32.7485 89.1333 33.5293 88.6509 33.8911 87.8003H33.98V89H35.2114V82.0811ZM40.4546 80.4624C41.0259 80.4624 41.4385 80.0688 41.4385 79.5229C41.4385 78.9707 41.0259 78.5771 40.4546 78.5771C39.8896 78.5771 39.4707 78.9707 39.4707 79.5229C39.4707 80.0688 39.8896 80.4624 40.4546 80.4624ZM43.3745 89V87.9717H41.1401V82.0811H37.6172V83.1094H39.896V87.9717H37.5664V89H43.3745ZM51.4106 89V87.9717H49.189V79.3833H45.6533V80.418H47.9194V87.9717H45.6025V89H51.4106ZM55.8794 89.1143C56.876 89.1143 57.5869 88.689 57.917 87.9082H58.0376V89H59.3135V79.3833H58.0059V83.1792H57.8853C57.606 82.4048 56.876 81.9668 55.8794 81.9668C54.2861 81.9668 53.2705 83.103 53.2705 84.9121V86.1689C53.2705 87.978 54.2861 89.1143 55.8794 89.1143ZM56.2983 87.9844C55.2319 87.9844 54.5591 87.2354 54.5591 86.0483V85.0137C54.5591 83.8267 55.2319 83.0713 56.2983 83.0713C57.3647 83.0713 58.0376 83.8203 58.0376 85.0137V86.0483C58.0376 87.2354 57.3647 87.9844 56.2983 87.9844ZM67.7432 91.0503V89.9521H61.1543V91.0503H67.7432ZM71.7168 89.1143C72.6943 89.1143 73.437 88.708 73.7671 87.9971H73.8877V89.0063H75.1001V84.2773C75.1001 82.8237 74.1479 81.9858 72.4785 81.9858C70.9932 81.9858 69.9077 82.7603 69.7808 83.9028H71.0249C71.1899 83.3569 71.7168 83.0396 72.4531 83.0396C73.3418 83.0396 73.8369 83.4839 73.8369 84.2773V84.8867L72.0215 84.9819C70.4092 85.0771 69.5205 85.8008 69.5205 87.0322C69.5205 88.2827 70.3965 89.1143 71.7168 89.1143ZM72.1104 88.0542C71.2979 88.0542 70.79 87.6416 70.79 86.9751C70.79 86.3022 71.2725 85.9214 72.1929 85.8706L73.8369 85.7881V86.5181C73.8369 87.4004 73.1006 88.0542 72.1104 88.0542ZM83.479 84.3091C83.3076 82.811 82.2603 81.9414 80.6479 81.9414C78.7246 81.9414 77.6138 83.0903 77.6138 85.1089V85.9595C77.6138 87.978 78.7246 89.1333 80.6479 89.1333C82.2603 89.1333 83.3076 88.2637 83.479 86.791H82.2222C82.0952 87.5718 81.4858 88.0352 80.6353 88.0352C79.5117 88.0352 78.8896 87.248 78.8896 85.8262V85.2422C78.8896 83.8203 79.5117 83.0332 80.6353 83.0332C81.4795 83.0332 82.1016 83.5093 82.2222 84.3091H83.479ZM91.5151 84.3091C91.3438 82.811 90.2964 81.9414 88.6841 81.9414C86.7607 81.9414 85.6499 83.0903 85.6499 85.1089V85.9595C85.6499 87.978 86.7607 89.1333 88.6841 89.1333C90.2964 89.1333 91.3438 88.2637 91.5151 86.791H90.2583C90.1313 87.5718 89.522 88.0352 88.6714 88.0352C87.5479 88.0352 86.9258 87.248 86.9258 85.8262V85.2422C86.9258 83.8203 87.5479 83.0332 88.6714 83.0332C89.5156 83.0332 90.1377 83.5093 90.2583 84.3091H91.5151ZM96.5933 89.1333C98.4595 89.1333 99.6465 87.9399 99.6465 86.0674V85.02C99.6465 83.1411 98.4595 81.9541 96.5933 81.9541C94.7271 81.9541 93.54 83.1411 93.54 85.02V86.0674C93.54 87.9399 94.7271 89.1333 96.5933 89.1333ZM96.5933 83.0332C97.6978 83.0332 98.3896 83.8267 98.3896 85.1089V85.9785C98.3896 87.2607 97.6978 88.0542 96.5933 88.0542C95.4888 88.0542 94.7969 87.2607 94.7969 85.9785V85.1089C94.7969 83.8267 95.4888 83.0332 96.5933 83.0332ZM107.537 82.0811H106.267V86.1372C106.267 87.2544 105.556 87.9971 104.496 87.9971C103.474 87.9971 102.998 87.4385 102.998 86.2578V82.0811H101.722V86.5688C101.722 88.2319 102.535 89.1333 104.039 89.1333C105.074 89.1333 105.854 88.6509 106.216 87.8003H106.305V89H107.537V82.0811ZM109.758 89H111.028V84.9438C111.028 83.8267 111.739 83.084 112.799 83.084C113.821 83.084 114.297 83.6426 114.297 84.8296V89H115.573V84.5122C115.573 82.8491 114.76 81.9478 113.256 81.9478C112.221 81.9478 111.44 82.4302 111.079 83.2871H110.99V82.0811H109.758V89ZM119.445 80.1895V82.1191H117.617V83.1665H119.445V86.9053C119.445 88.3906 120.219 89.0254 121.99 89.0254C122.257 89.0254 123.26 89 123.399 88.9746V87.9336C123.247 87.9526 122.403 87.9653 122.079 87.9653C121.197 87.9653 120.721 87.5908 120.721 86.9053V83.1665H123.438V82.1191H120.702V80.1895H119.445ZM132.032 91.0503V89.9521H125.443V91.0503H132.032ZM136.888 80.4624C137.459 80.4624 137.872 80.0688 137.872 79.5229C137.872 78.9707 137.459 78.5771 136.888 78.5771C136.323 78.5771 135.904 78.9707 135.904 79.5229C135.904 80.0688 136.323 80.4624 136.888 80.4624ZM139.808 89V87.9717H137.574V82.0811H134.051V83.1094H136.33V87.9717H134V89H139.808ZM144.277 89.1143C145.273 89.1143 145.984 88.689 146.314 87.9082H146.435V89H147.711V79.3833H146.403V83.1792H146.283C146.003 82.4048 145.273 81.9668 144.277 81.9668C142.684 81.9668 141.668 83.103 141.668 84.9121V86.1689C141.668 87.978 142.684 89.1143 144.277 89.1143ZM144.696 87.9844C143.629 87.9844 142.957 87.2354 142.957 86.0483V85.0137C142.957 83.8267 143.629 83.0713 144.696 83.0713C145.762 83.0713 146.435 83.8203 146.435 85.0137V86.0483C146.435 87.2354 145.762 87.9844 144.696 87.9844Z" fill="#F06185"/>
<path opacity="0.3" d="M44.2236 27.1555C46.4328 27.1555 48.2236 25.3647 48.2236 23.1555C48.2236 20.9464 46.4328 19.1555 44.2236 19.1555C42.0145 19.1555 40.2236 20.9464 40.2236 23.1555C40.2236 25.3647 42.0145 27.1555 44.2236 27.1555Z" fill="white"/>
<path opacity="0.3" d="M32.2373 27.1555C34.4464 27.1555 36.2373 25.3647 36.2373 23.1555C36.2373 20.9464 34.4464 19.1555 32.2373 19.1555C30.0282 19.1555 28.2373 20.9464 28.2373 23.1555C28.2373 25.3647 30.0282 27.1555 32.2373 27.1555Z" fill="white"/>
<path opacity="0.3" d="M20.25 27C22.4591 27 24.25 25.2091 24.25 23C24.25 20.7909 22.4591 19 20.25 19C18.0409 19 16.25 20.7909 16.25 23C16.25 25.2091 18.0409 27 20.25 27Z" fill="white"/>
<path opacity="0.4" d="M186.652 28.1143C188.347 28.1143 189.439 26.7812 189.439 24.6611C189.439 22.5474 188.341 21.2144 186.659 21.2144C185.713 21.2144 184.951 21.6841 184.551 22.4585H184.52V18.8403H183.148V28H184.481V26.8638H184.507C184.919 27.6382 185.675 28.1143 186.652 28.1143ZM186.284 22.3696C187.363 22.3696 188.03 23.2583 188.03 24.6611C188.03 26.0767 187.363 26.9526 186.284 26.9526C185.243 26.9526 184.513 26.0513 184.513 24.6611C184.513 23.2837 185.243 22.3696 186.284 22.3696ZM192.848 27.0288C192.111 27.0288 191.629 26.6479 191.629 26.064C191.629 25.4927 192.092 25.1309 192.911 25.0737L194.555 24.9722V25.499C194.555 26.3687 193.806 27.0288 192.848 27.0288ZM192.467 28.1143C193.343 28.1143 194.187 27.6445 194.574 26.9019H194.606V28H195.92V23.3979C195.92 22.0586 194.885 21.2017 193.267 21.2017C191.616 21.2017 190.588 22.0903 190.512 23.2964H191.807C191.927 22.6997 192.422 22.3188 193.216 22.3188C194.054 22.3188 194.555 22.7632 194.555 23.5059V24.02L192.727 24.1279C191.14 24.2168 190.245 24.9341 190.245 26.1021C190.245 27.3018 191.159 28.1143 192.467 28.1143ZM197.132 23.2139C197.132 24.147 197.742 24.7754 198.948 25.0674L200.141 25.3594C200.839 25.5371 201.093 25.772 201.093 26.1973C201.093 26.7368 200.585 27.0796 199.76 27.0796C198.922 27.0796 198.427 26.7241 198.319 26.083H196.961C197.069 27.3081 198.116 28.127 199.697 28.127C201.334 28.127 202.471 27.2891 202.471 26.0703C202.471 25.0864 201.963 24.5786 200.617 24.2549L199.494 23.9946C198.802 23.8232 198.472 23.5439 198.472 23.1313C198.472 22.6045 198.967 22.2427 199.709 22.2427C200.478 22.2427 200.966 22.6172 201.03 23.2202H202.318C202.274 22.0332 201.233 21.2017 199.748 21.2017C198.186 21.2017 197.132 22.0205 197.132 23.2139ZM203.588 28H204.959V24.1406C204.959 23.0869 205.581 22.3887 206.597 22.3887C207.562 22.3887 208.057 22.979 208.057 23.9629V28H209.434V23.6963C209.434 22.1855 208.558 21.208 207.092 21.208C206.076 21.208 205.346 21.6587 204.978 22.4395H204.946V18.8403H203.588V28Z" fill="#F7F8F8"/>
</svg>
