<svg width="24" height="24" fill="none" xmlns="http://www.w3.org/2000/svg"><path d="M19.313 24H4.537a2.297 2.297 0 01-2.288-2.288V2.288A2.297 2.297 0 014.537 0h14.776A2.297 2.297 0 0121.6 2.288v19.424A2.297 2.297 0 0119.312 24z" fill="#6762A6"/><path d="M14.381 20.695v-9.53s.62-2.282-7.64.938c-.01.084-.01-8.822-.01-8.822l2.691-.014v5.625s7.547-2.976 7.547 2.25v9.497h-2.602l.014.056zM15.92 6.698h-2.813c1.032-1.265 1.97-3.422 1.97-3.422h2.952s-.506 1.407-2.062 3.422h-.047zm-9.14 13.979v-5.424l2.718 2.719-2.719 2.718v-.014z" fill="#fff"/></svg>
