<svg width="109" height="32" fill="none" xmlns="http://www.w3.org/2000/svg"><g clip-path="url(#clip0)"><path d="M2 7.619L17.238 0l15.238 7.619-15.238 7.62L2 7.618z" fill="#A5F6E2"/><path d="M2 24.38V7.616l15.238 7.62v16.761L2 24.38z" fill="#1DE9B6"/><path d="M17.238 15.236v16.762l15.238-7.619V7.617l-15.238 7.62z" fill="#61F0CC"/><path d="M17.27 2.477l-.704.007-.698.037 1.401-.044zm1.4.076l-.697-.054-.704-.022 1.402.076zm-1.4-.076l-1.402.044-1.353.163 2.754-.207zm2.755.277l-1.354-.201-1.402-.076 2.756.277zm-4.157-.233l-.686.066-.667.097 1.353-.163zm4.157.233l-.668-.117-.686-.084 1.354.2zm-5.51-.07l-.643.127-.61.16 1.253-.287zm2.754-.207l-2.754.207-2.333.697 5.087-.904zm3.995.608l-.595-.18-.644-.151 1.239.33zm.97.428l-2.209-.76-2.756-.276 4.965 1.036zm-7.719-.83l-1.253.287-1.08.411 2.333-.697zm7.719.83l-.97-.428-1.239-.331 2.209.76zm-8.972-.543l-.572.192-.508.22 1.08-.412zm8.972.543l-.448-.224-.522-.204.97.428zm-10.052-.132l-.424.239-.338.255.762-.494zm10.708.636l-.287-.26-.37-.244.657.504zm-5.62-1.54l-5.088.904-.791 2.21 5.878-3.114zm-5.088.904l-.762.494-.406.55 1.168-1.044zm10.396 2.373l-.344-2.24-4.965-1.037 5.309 3.277zm.62-1.178l-.308-.559-.656-.504.964 1.063zM11.42 3.875l-.25.269-.156.28.406-.55zm11.778.701l-.108-.285-.2-.274.308.56z" fill="#C7FAED"/><path d="M11.061 7.055l.053 1.139.04.333-.093-1.472z" fill="#61F0CC"/><path d="M12.182 3.383l-1.169 1.043.377 1.166.792-2.21z" fill="#C7FAED"/><path d="M11.102 7.374l-.04-.32.093 1.472-.053-1.152zm-.095-1.48l.054 1.16.04.32-.094-1.48zm12.09 1.33l-.096.324.043.821.053-1.145zm-.096.324l-.053 1.158.096-.337L23 7.548zm-11.9-.174l.054 1.152.143.333-.196-1.485z" fill="#61F0CC"/><path d="M17.269 2.477L11.39 5.59l11.188.163-5.31-3.277zm5.309 3.277l.62-1.178-.965-1.063.345 2.241z" fill="#C7FAED"/><path d="M11.047 6.202l-.04-.307.095 1.48-.055-1.173zm-.095-1.487l.055 1.18.04.307-.095-1.487zm12.2 1.343l-.097.31.042.856.054-1.166z" fill="#61F0CC"/><path d="M11.013 4.426l-.06.289.04.293.02-.582z" fill="#C7FAED"/><path d="M23.055 6.369l-.054 1.18.096-.325-.042-.855zm-11.81 1.327l-.143-.321.196 1.485-.053-1.164zm-.198-1.494l.055 1.173.143.32-.198-1.493zm11.954 1.346l-.205.324.152.835.053-1.159zm-.205.324l-.052 1.17.204-.335-.152-.835zM10.992 5.008l-.04-.293.095 1.487-.055-1.194z" fill="#61F0CC"/><path d="M23.11 5.164l.096-.297-.008-.293-.088.59z" fill="#C7FAED"/><path d="M11.245 7.696l.053 1.165.248.328-.301-1.493zm11.961-2.825l-.096.297.041.89.055-1.187zm-.096.297l-.055 1.201.096-.31-.04-.891zM11.191 6.51l-.144-.308.198 1.493-.054-1.185zm-.199-1.502l.055 1.194.144.308-.199-1.502zm12.063 1.36l-.206.31.152.87.054-1.18z" fill="#61F0CC"/><path d="M11.013 4.426l-.02.582.397.584-.377-1.166z" fill="#C7FAED"/><path d="M11.495 8.012l-.25-.317.302 1.493-.052-1.176zM22.85 6.678l-.053 1.193.205-.323-.152-.87zM11.191 6.51l.054 1.186.25.317-.304-1.503zm11.605 1.362l-.32.319.268.852.052-1.17zm-.32.319l-.05 1.183.318-.33-.269-.853zm-11.34-2.888l-.144-.294.2 1.501-.055-1.207zm.36 2.71l.05 1.176.36.319-.41-1.495z" fill="#61F0CC"/><path d="M22.578 5.752l.532-.588.088-.59-.62 1.178z" fill="#C7FAED"/><path d="M23.11 5.168l-.207.297.152.904.055-1.201zM11.443 6.814l-.252-.303.304 1.502-.052-1.199zm11.46-1.35l-.054 1.216.206-.31-.152-.905zm-11.766-.16l.054 1.207.252.303-.306-1.51zM22.849 6.68l-.323.305.27.888.053-1.193z" fill="#61F0CC"/><path d="M10.992 5.008l.145.294.253.29-.398-.584z" fill="#C7FAED"/><path d="M11.857 8.317l-.362-.306.41 1.495-.048-1.189zm10.669-1.334l-.05 1.206.32-.319-.27-.887zm-11.083-.171l.052 1.199.362.306-.414-1.505zm11.032 1.377l-.442.307.393.876.05-1.183zm-.442.307l-.046 1.196.439-.32-.393-.876zm-10.176-.179l.048 1.189.472.302-.52-1.49zm-.467-2.726l-.253-.29.306 1.511-.053-1.221z" fill="#61F0CC"/><path d="M22.578 5.757l.325-.292.207-.297-.532.589z" fill="#C7FAED"/><path d="M22.903 5.46l-.325.293.271.923.054-1.215zM11.808 7.106l-.365-.294.414 1.505-.05-1.211zm10.77-1.352l-.052 1.228.323-.305-.271-.923zM11.39 5.59l.053 1.22.365.295-.418-1.515zm.943 3.017l-.476-.291.52 1.49-.044-1.2zM22.526 6.98l-.446.296.395.91.05-1.206zm-.446.296l-.047 1.218.442-.308-.395-.91zm-10.272-.172l.049 1.21.476.292-.525-1.502zm10.225 1.39l-.552.281.506.914.046-1.195zm-.552.281l-.041 1.207.547-.293-.505-.914zm-9.148-.17l.044 1.2.587.28-.631-1.48zm-.576-2.735l-.367-.281.418 1.515-.05-1.234zm.53 1.513l-.48-.28.526 1.503-.046-1.223zm10.29-1.631l-.45.282.399.946.052-1.228zm-.45.282l-.047 1.242.446-.296-.398-.946zm-9.202 2.84l-.592-.268.631 1.479-.039-1.21zm-1.168-3.004l.05 1.234.48.28-.53-1.514zM22.08 7.277l-.556.27.509.948.047-1.218zm-.556.27l-.043 1.23.552-.282-.51-.948zm-9.237-.163l.046 1.223.592.269-.638-1.492z" fill="#61F0CC"/><path d="M11.39 5.59l.367.281.484.267-.85-.548z" fill="#C7FAED"/><path d="M21.482 8.777l-.636.242.594.964.041-1.206zm-.636.242l-.036 1.216.63-.252-.594-.964zm-7.92-.143l.038 1.21.682.242-.72-1.452zm-.685-2.738l-.484-.267.53 1.513-.046-1.246zm.644 1.505l-.598-.259.638 1.492-.04-1.233zm.728 1.466l-.688-.233.721 1.453-.033-1.22z" fill="#61F0CC"/><path d="M21.567 6.295l.56-.259.45-.282-1.01.54z" fill="#C7FAED"/><path d="M22.128 6.035l-.561.259.513.983.048-1.242zM20.137 9.22l-.03 1.224.703-.209-.673-1.015zm1.43-2.926l-.043 1.253.556-.27-.513-.983zm-.721 2.725l-.709.201.673 1.015.036-1.216zm-7.233.09l.033 1.22.745.193-.778-1.413zm-1.372-2.971l.046 1.246.598.259-.644-1.505zm9.283 1.41l-.642.232.6.997.042-1.23zm-.642.232l-.036 1.24.636-.243-.6-.997zm-7.997-.137l.04 1.233.688.233-.728-1.466z" fill="#61F0CC"/><path d="M11.39 5.59l.851.548 1.304.462-2.155-1.01zm0 0l5.462 1.424 5.726-1.26L11.39 5.59z" fill="#C7FAED"/><path d="M14.365 9.298l-.752-.186.778 1.412-.026-1.226zm5.004.081l-.022 1.23.76-.163-.738-1.067zm-5.004-.08l.026 1.226.794.143-.82-1.37zm-1.52-2.911l-.604-.247.644 1.504-.04-1.257zm7.292 2.835l-.768.156.739 1.067.029-1.223zm-6.558-1.354l-.694-.224.728 1.467-.034-1.243z" fill="#61F0CC"/><path d="M20.197 6.702l1.37-.407 1.01-.541-2.38.948z" fill="#C7FAED"/><path d="M20.167 7.976l-.03 1.247.709-.2-.68-1.047zm.715-.193l-.715.193.679 1.047.036-1.24zm-7.303.087l.034 1.243.752.186-.786-1.43zm7.988-1.573l-.648.223.605 1.03.043-1.253zm-.648.223l-.037 1.263.642-.233-.605-1.03zm-8.075-.132l.041 1.258.694.224-.735-1.482zm5.712 3.102l-.014 1.233.805-.114-.79-1.12zm-3.39-.053l.02 1.231.827.092-.846-1.323zm0 0l-.8-.138.82 1.37-.02-1.232zm4.203-.057l-.813.11.791 1.12.022-1.23z" fill="#61F0CC"/><path d="M12.241 6.14l.603.248.7.214-1.303-.461z" fill="#C7FAED"/><path d="M17.713 9.55l-.006 1.235.835-.064-.829-1.171zm-1.71-.027l.01 1.235.846.04-.857-1.275z" fill="#61F0CC"/><path d="M11.39 5.59l2.155 1.01 3.307.414L11.39 5.59z" fill="#C7FAED"/><path d="M16.857 9.562l.002 1.236.848-.012-.85-1.224zm-2.519-1.515l-.759-.179.786 1.43-.027-1.25zm5.054.078l-.023 1.253.768-.156-.745-1.097zm-3.39 1.399l-.835-.089.846 1.323-.01-1.234zm2.554-.036l-.843.062.829 1.172.014-1.234zm-4.218-1.44l.027 1.25.802.137-.829-1.388zm5.829-.073l-.775.15.745 1.097.03-1.247zM13.545 6.6l-.7-.214.734 1.481-.034-1.267zm3.312 2.96l-.854-.037.856 1.274-.002-1.236zm.856-.011l-.856.012.85 1.224.006-1.236z" fill="#61F0CC"/><path d="M16.852 7.015l3.345-.313 2.38-.948-5.725 1.26z" fill="#C7FAED"/><path d="M20.197 6.703l-.03 1.272.715-.193-.685-1.079z" fill="#61F0CC"/><path d="M20.197 6.704l.722-.184.648-.223-1.37.407z" fill="#C7FAED"/><path d="M20.92 6.516l-.723.184.685 1.08.037-1.264zm-7.375.082l.034 1.268.76.179-.794-1.447zm5.026 1.63l-.015 1.258.813-.11-.798-1.148zm-3.423-.05l.019 1.255.836.088-.855-1.344zm0 0l-.81-.133.829 1.388-.02-1.256zm4.244-.056l-.821.106.798 1.148.023-1.254zm-1.672.165l-.007 1.26.843-.061-.836-1.199zm-1.728-.025l.01 1.259.855.038-.865-1.297zm.863.037l.002 1.26.856-.012-.858-1.248zm-2.544-1.53l-.766-.17.793 1.446-.027-1.275zm5.104.075l-.023 1.278.775-.15-.753-1.128zm-3.423 1.418l-.844-.085.855 1.344-.011-1.26zm2.579-.034l-.851.059.836 1.199.015-1.258zM14.31 6.77l.027 1.275.81.132-.837-1.407zm5.886-.07l-.782.144.752 1.128.03-1.272zM16.855 8.3l-.863-.037.865 1.297-.002-1.26zm.865-.012l-.865.012.858 1.248.007-1.26z" fill="#61F0CC"/><path d="M13.545 6.602l.766.17.817.128-1.583-.298z" fill="#C7FAED"/><path d="M18.585 6.949l-.014 1.283.82-.106-.805-1.177zM15.128 6.9l.02 1.28.844.086-.864-1.366zm0 0l-.817-.127.837 1.408-.02-1.28zm4.287-.052l-.83.1.807 1.178.023-1.278zm-1.689.157l-.006 1.286.85-.06-.844-1.226z" fill="#61F0CC"/><path d="M18.585 6.948l.83-.1.782-.145-1.611.245zm-5.04-.346l1.583.298 1.724.116-3.307-.414z" fill="#C7FAED"/><path d="M15.98 6.98l.012 1.284.863.037-.874-1.321zm.872.035l.003 1.286.865-.012-.868-1.274zm-.871-.035l-.853-.082.864 1.366-.011-1.284z" fill="#61F0CC"/><path d="M16.852 7.016l1.733-.068 1.612-.245-3.345.313z" fill="#C7FAED"/><path d="M18.585 6.95l-.859.056.845 1.226.014-1.283zm-1.733.067l-.871-.035.874 1.32-.003-1.285zm.874-.011l-.874.01.868 1.275.006-1.285z" fill="#61F0CC"/><path d="M15.128 6.898l.853.082.871.035-1.724-.117zm1.724.117l.874-.011.86-.057-1.734.068z" fill="#C7FAED"/></g><path d="M44.32 22.8V9.2c0-.133.067-.2.2-.2h2c.133 0 .2.067.2.2v4.56c.84-.667 1.8-1 2.88-1 1.36 0 2.46.473 3.3 1.42.84.933 1.26 2.2 1.26 3.8 0 1.6-.42 2.873-1.26 3.82-.84.933-1.94 1.4-3.3 1.4a4.45 4.45 0 01-2.88-1.02v.62c0 .133-.067.2-.2.2h-2c-.133 0-.2-.067-.2-.2zm2.96-7c-.453.573-.68 1.3-.68 2.18 0 .88.227 1.613.68 2.2.453.573 1.067.86 1.84.86.773 0 1.387-.287 1.84-.86.453-.587.68-1.32.68-2.2 0-.88-.227-1.607-.68-2.18-.453-.587-1.067-.88-1.84-.88-.773 0-1.387.293-1.84.88zM64.896 13.16v9.64c0 .133-.066.2-.2.2h-2c-.133 0-.2-.067-.2-.2v-.72c-.906.747-1.913 1.12-3.02 1.12-1.093 0-1.953-.3-2.58-.9-.613-.613-.92-1.44-.92-2.48v-6.66c0-.133.067-.2.2-.2h2c.134 0 .2.067.2.2v5.8c0 1.387.574 2.08 1.72 2.08.694 0 1.267-.273 1.72-.82.454-.56.68-1.4.68-2.52v-4.54c0-.133.067-.2.2-.2h2c.134 0 .2.067.2.2zM67.006 22.8v-9.64c0-.133.067-.2.2-.2h2c.134 0 .2.067.2.2v9.64c0 .133-.066.2-.2.2h-2c-.133 0-.2-.067-.2-.2zm-.14-11.32V9.2c0-.133.067-.2.2-.2h2.28c.134 0 .2.067.2.2v2.28c0 .133-.066.2-.2.2h-2.28c-.133 0-.2-.067-.2-.2zM71.407 22.8V9.2c0-.133.066-.2.2-.2h2c.133 0 .2.067.2.2v13.6c0 .133-.067.2-.2.2h-2c-.134 0-.2-.067-.2-.2zM85.416 9.2v13.6c0 .133-.066.2-.2.2h-2c-.133 0-.2-.067-.2-.2v-.62a4.45 4.45 0 01-2.88 1.02c-1.36 0-2.46-.467-3.3-1.4-.84-.947-1.26-2.22-1.26-3.82 0-1.6.42-2.867 1.26-3.8.84-.947 1.94-1.42 3.3-1.42 1.08 0 2.04.333 2.88 1V9.2c0-.133.067-.2.2-.2h2c.134 0 .2.067.2.2zm-2.96 10.98c.454-.587.68-1.32.68-2.2 0-.88-.226-1.607-.68-2.18-.453-.587-1.066-.88-1.84-.88-.773 0-1.386.293-1.84.88-.453.573-.68 1.3-.68 2.18 0 .88.227 1.613.68 2.2.454.573 1.067.86 1.84.86.774 0 1.387-.287 1.84-.86zM87.847 20.44h2.16c.133 0 .2.067.2.2v2.16c0 .133-.067.2-.2.2h-2.16c-.133 0-.2-.067-.2-.2v-2.16c0-.133.066-.2.2-.2zM92.788 22.8v-9.64c0-.133.066-.2.2-.2h2c.133 0 .2.067.2.2v9.64c0 .133-.067.2-.2.2h-2c-.134 0-.2-.067-.2-.2zm-.14-11.32V9.2c0-.133.066-.2.2-.2h2.28c.133 0 .2.067.2.2v2.28c0 .133-.067.2-.2.2h-2.28c-.134 0-.2-.067-.2-.2zM98.268 21.72c-1.014-.987-1.52-2.233-1.52-3.74 0-1.507.506-2.753 1.52-3.74 1.026-.987 2.306-1.48 3.84-1.48 1.533 0 2.806.493 3.82 1.48 1.026.987 1.54 2.233 1.54 3.74 0 1.507-.514 2.753-1.54 3.74-1.014.987-2.287 1.48-3.82 1.48-1.534 0-2.814-.493-3.84-1.48zm1.82-5.96c-.52.56-.78 1.3-.78 2.22 0 .92.26 1.66.78 2.22.52.56 1.193.84 2.02.84.826 0 1.5-.28 2.02-.84.52-.56.78-1.3.78-2.22 0-.92-.26-1.66-.78-2.22-.52-.56-1.194-.84-2.02-.84-.827 0-1.5.28-2.02.84z" fill="#fff"/><defs><clipPath id="clip0"><path fill="#fff" d="M0 0h35v32H0z"/></clipPath></defs></svg>
