<svg width="24" height="24" viewBox="0 0 24 24" fill="none" xmlns="http://www.w3.org/2000/svg">
<path d="M19.3125 24H4.5375C3.93158 23.9975 3.35118 23.7557 2.92272 23.3273C2.49426 22.8988 2.25247 22.3184 2.25 21.7125V2.2875C2.25247 1.68158 2.49426 1.10118 2.92272 0.67272C3.35118 0.244264 3.93158 0.00246815 4.5375 0L19.3125 0C19.9184 0.00246815 20.4988 0.244264 20.9273 0.67272C21.3557 1.10118 21.5975 1.68158 21.6 2.2875V21.7125C21.5975 22.3184 21.3557 22.8988 20.9273 23.3273C20.4988 23.7557 19.9184 23.9975 19.3125 24V24Z" fill="#6762A6"/>
<path d="M14.3814 20.6952V11.1655C14.3814 11.1655 15.0002 8.88271 6.74082 12.103C6.73145 12.1874 6.73145 3.28115 6.73145 3.28115L9.42207 3.26709V8.89209C9.42207 8.89209 16.9689 5.91553 16.9689 11.1421V20.639H14.3674L14.3814 20.6952ZM15.9189 6.69834H13.1064C14.1377 5.43271 15.0752 3.27646 15.0752 3.27646H18.0283C18.0283 3.27646 17.5221 4.68271 15.9658 6.69834H15.9189ZM6.77832 20.6765V15.253L9.49707 17.9718L6.77832 20.6905V20.6765Z" fill="white"/>
</svg>
