<svg width="392" height="252" fill="none" xmlns="http://www.w3.org/2000/svg"><g clip-path="url(#clip0)"><g clip-path="url(#clip1)"><rect x="134" y="72" width="211" height="152" rx="6" fill="#28292C"/><path d="M147.6 90.986c-.684-.758-1.026-1.82-1.026-3.187 0-1.367.344-2.428 1.031-3.182.692-.758 1.528-1.136 2.508-1.136.801 0 1.473.218 2.016.656.547.433.9 1.07 1.06 1.91 0 .078-.044.119-.134.123h-.768c-.07 0-.117-.041-.141-.123-.289-1.07-.966-1.606-2.033-1.606-.726 0-1.322.295-1.787.885-.461.586-.691 1.41-.691 2.473 0 1.078.232 1.908.697 2.49.469.582 1.104.873 1.904.873.993 0 1.668-.377 2.028-1.13v-1.343h-2.028c-.078 0-.119-.04-.123-.123v-.72c0-.078.041-.118.123-.118h2.918c.078 0 .117.04.117.118v2.173a.95.95 0 01-.117.458c-.265.48-.658.875-1.177 1.183a3.38 3.38 0 01-1.741.457c-1.07 0-1.949-.377-2.636-1.13zm7.47.27c-.547-.574-.82-1.33-.82-2.268 0-.937.273-1.693.82-2.267.551-.578 1.254-.868 2.11-.868.855 0 1.556.29 2.103.868.547.574.821 1.33.821 2.267 0 .938-.274 1.694-.821 2.268-.547.574-1.248.861-2.103.861-.856 0-1.559-.287-2.11-.861zm.703-3.879c-.359.418-.539.955-.539 1.611s.18 1.196.539 1.618c.36.417.827.626 1.401.626.578 0 1.047-.209 1.406-.626.359-.422.539-.962.539-1.618 0-.656-.18-1.193-.539-1.611-.359-.422-.828-.633-1.406-.633-.574 0-1.041.211-1.401.633zm6.141 3.879c-.547-.574-.82-1.33-.82-2.268 0-.937.273-1.693.82-2.267.551-.578 1.254-.868 2.109-.868.856 0 1.557.29 2.104.868.547.574.82 1.33.82 2.267 0 .938-.273 1.694-.82 2.268-.547.574-1.248.861-2.104.861-.855 0-1.558-.287-2.109-.861zm.703-3.879c-.359.418-.539.955-.539 1.611s.18 1.196.539 1.618c.36.417.826.626 1.401.626.578 0 1.046-.209 1.406-.626.359-.422.539-.962.539-1.618 0-.656-.18-1.193-.539-1.611-.36-.422-.828-.633-1.406-.633-.575 0-1.041.211-1.401.633zm5.01 2.813c0-.641.363-1.126 1.09-1.454a2.15 2.15 0 01-.158-.826c0-.64.197-1.142.591-1.506.399-.367.895-.55 1.489-.55.433 0 .824.113 1.172.34l.808-.721c.031-.032.063-.047.094-.047.023 0 .055.02.094.058l.457.48c.031.032.047.063.047.095 0 .03-.02.068-.059.11l-.768.733c.161.297.241.633.241 1.008 0 .64-.202 1.14-.604 1.5-.398.36-.892.54-1.482.54-.586 0-1.067-.173-1.442-.516-.426.183-.638.45-.638.802 0 .192.064.348.193.47.129.12.301.18.516.18.128 0 .373-.036.732-.11.359-.079.688-.118.984-.118 1.649 0 2.473.627 2.473 1.881 0 .602-.236 1.078-.709 1.43-.473.351-1.125.527-1.957.527-.895 0-1.582-.166-2.062-.498-.481-.332-.721-.795-.721-1.389 0-.414.109-.77.328-1.066-.473-.316-.709-.768-.709-1.354zm1.365 2.337c0 .72.6 1.079 1.799 1.079.551 0 .969-.094 1.254-.282a.89.89 0 00.428-.785c0-.312-.143-.557-.428-.732-.281-.176-.699-.264-1.254-.264a3.67 3.67 0 00-.797.105 3.62 3.62 0 01-.68.1c-.214.184-.322.443-.322.78zm.551-4.617c0 .375.1.66.299.856.203.195.469.293.797.293.336 0 .603-.098.802-.293.2-.196.299-.48.299-.856 0-.383-.099-.672-.299-.867-.199-.2-.466-.299-.802-.299-.328 0-.594.1-.797.299-.199.195-.299.484-.299.867zm4.412 3.973v-.65c0-.079.041-.12.123-.124h1.74v-6.62h-1.5c-.078 0-.119-.042-.123-.124v-.644c0-.078.041-.12.123-.123h2.315c.078 0 .117.04.117.123v7.388h1.752c.078 0 .119.041.123.123v.65c0 .079-.041.118-.123.118h-4.424c-.082 0-.123-.04-.123-.117zm5.479-2.895c0-.894.265-1.64.796-2.238.532-.598 1.221-.897 2.069-.897.871 0 1.551.303 2.039.909.492.605.738 1.347.738 2.226v.17c0 .078-.041.117-.123.117h-4.512c.047.594.229 1.069.545 1.424.317.356.754.533 1.313.533.433 0 .779-.088 1.037-.263.262-.176.465-.455.609-.838.024-.07.08-.108.17-.112h.78c.054 0 .082.028.082.083a.433.433 0 01-.024.123c-.433 1.261-1.314 1.892-2.642 1.892h-.012c-.903 0-1.606-.29-2.11-.873-.503-.582-.755-1.334-.755-2.256zm1.054-.597h3.574c-.097-.497-.308-.895-.632-1.196a1.6 1.6 0 00-1.131-.45c-.457 0-.85.148-1.178.444-.324.297-.535.698-.633 1.202zm8.93 3.492V83.72c0-.078.039-.12.117-.123h.768c.078 0 .119.04.123.123v3.539l3.035-3.54c.07-.077.135-.118.193-.122h.985c.047 0 .076.021.088.064.011.04-.002.074-.041.106l-2.497 2.941 3.024 5.121c.016.031.023.06.023.088 0 .055-.031.082-.093.082h-1.008c-.071 0-.143-.06-.217-.182l-2.473-4.283-1.019 1.19v3.158c0 .078-.041.117-.123.117h-.768c-.078 0-.117-.04-.117-.117zm6.639-1.717v-4.072c0-.078.041-.117.123-.117h.691c.078 0 .119.039.123.117v3.855c0 .407.098.723.293.95.195.222.481.333.856.333.441 0 .824-.193 1.148-.58.324-.39.486-.892.486-1.505v-3.053c0-.078.039-.117.118-.117h.697c.078 0 .119.039.123.117v5.789c0 .078-.041.117-.123.117h-.697c-.079 0-.118-.04-.118-.117v-.72a2.371 2.371 0 01-.808.685c-.34.18-.703.27-1.09.27h-.012c-1.207 0-1.81-.651-1.81-1.952zm6.339 1.717V83.72c0-.078.042-.12.124-.123h.697c.078 0 .117.04.117.123v2.941c.215-.238.486-.431.814-.58a2.465 2.465 0 011.049-.228c.785 0 1.41.283 1.875.85.469.562.703 1.323.703 2.284 0 .961-.234 1.723-.703 2.285-.468.563-1.093.844-1.875.844-.824 0-1.445-.267-1.863-.803v.569c0 .078-.039.117-.117.117h-.697c-.082 0-.124-.04-.124-.117zm1.307-4.506c-.308.418-.463.955-.463 1.611s.155 1.196.463 1.618c.313.417.744.626 1.295.626.555 0 .992-.21 1.313-.632.32-.426.48-.963.48-1.612 0-.648-.16-1.183-.48-1.605-.321-.426-.758-.639-1.313-.639-.551 0-.982.211-1.295.633zm5.051 1.611c0-.894.266-1.64.797-2.238.531-.598 1.22-.897 2.068-.897.871 0 1.551.303 2.039.909.492.605.738 1.347.738 2.226v.17c0 .078-.041.117-.123.117h-4.511c.047.594.228 1.069.545 1.424.316.356.754.533 1.312.533.434 0 .779-.088 1.037-.263.262-.176.465-.455.61-.838.023-.07.08-.108.17-.112h.779c.055 0 .082.028.082.083a.433.433 0 01-.024.123c-.433 1.261-1.314 1.892-2.642 1.892h-.012c-.902 0-1.605-.29-2.109-.873-.504-.582-.756-1.334-.756-2.256zm1.055-.597h3.574c-.098-.497-.309-.895-.633-1.196-.32-.3-.697-.45-1.131-.45-.457 0-.849.148-1.178.444-.324.297-.535.698-.632 1.202zm5.923 3.492v-5.79c0-.077.041-.116.123-.116h.698c.078 0 .117.039.117.117v.662c.441-.602 1.029-.903 1.764-.903.8 0 1.369.354 1.705 1.061a.196.196 0 01.023.082c0 .055-.023.094-.07.117l-.604.399a.142.142 0 01-.082.023c-.047 0-.078-.02-.094-.058-.167-.274-.339-.463-.515-.569-.176-.11-.404-.164-.686-.164-.441 0-.793.215-1.054.645-.258.425-.387.943-.387 1.552v2.942c0 .078-.039.117-.117.117h-.698c-.082 0-.123-.04-.123-.117zm5.555 0v-5.79c0-.077.041-.116.123-.116h.697c.079 0 .118.039.118.117v.72a2.37 2.37 0 01.808-.685c.34-.184.703-.276 1.09-.276.586 0 1.035.174 1.348.522.316.344.474.822.474 1.436v4.072c0 .078-.039.117-.117.117h-.697c-.078 0-.119-.04-.123-.117v-3.856c0-.406-.098-.72-.293-.943-.195-.227-.481-.34-.856-.34-.441 0-.824.195-1.148.586-.324.387-.486.887-.486 1.5v3.053c0 .078-.039.117-.118.117h-.697c-.082 0-.123-.04-.123-.117zm5.924-2.895c0-.894.266-1.64.797-2.238.531-.598 1.221-.897 2.068-.897.871 0 1.551.303 2.039.909.492.605.739 1.347.739 2.226v.17c0 .078-.042.117-.124.117h-4.511c.047.594.228 1.069.545 1.424.316.356.754.533 1.312.533.434 0 .779-.088 1.037-.263.262-.176.465-.455.61-.838.023-.07.08-.108.17-.112h.779c.055 0 .082.028.082.083a.433.433 0 01-.024.123c-.433 1.261-1.314 1.892-2.642 1.892h-.012c-.902 0-1.605-.29-2.109-.873-.504-.582-.756-1.334-.756-2.256zm1.055-.597h3.574c-.098-.497-.309-.895-.633-1.196-.32-.3-.697-.45-1.131-.45-.457 0-.849.148-1.178.444-.324.297-.535.698-.632 1.202zm5.302-1.647v-.65c0-.078.039-.117.118-.117h1.084v-1.729c0-.078.039-.117.117-.117h.697c.078 0 .117.039.117.117v1.729h2.297c.078 0 .117.039.117.117v.65c0 .078-.039.117-.117.117h-2.297v2.813c0 1.039.393 1.558 1.178 1.558.375 0 .65-.1.826-.298.176-.2.293-.512.352-.938.007-.07.05-.105.129-.105h.744c.008 0 .017.003.029.011.016.008.025.02.029.035a.241.241 0 01.006.06c0 .593-.185 1.095-.556 1.505-.368.41-.887.615-1.559.615-.688 0-1.211-.205-1.57-.615-.36-.41-.539-1.016-.539-1.816V86.86h-1.084c-.079 0-.118-.039-.118-.117zm6.205 2.244c0-.894.266-1.64.797-2.238.532-.598 1.221-.897 2.069-.897.871 0 1.55.303 2.039.909.492.605.738 1.347.738 2.226v.17c0 .078-.041.117-.123.117h-4.512c.047.594.229 1.069.545 1.424.317.356.754.533 1.313.533.433 0 .779-.088 1.037-.263.262-.176.465-.455.609-.838.024-.07.08-.108.17-.112h.779c.055 0 .082.028.082.083a.425.425 0 01-.023.123c-.434 1.261-1.314 1.892-2.643 1.892h-.011c-.903 0-1.606-.29-2.11-.873-.504-.582-.756-1.334-.756-2.256zm1.055-.597h3.574c-.097-.497-.308-.895-.632-1.196a1.6 1.6 0 00-1.131-.45c-.457 0-.85.148-1.178.444-.324.297-.535.698-.633 1.202zm5.52 1.775c0-.078.039-.12.117-.123h.767c.071 0 .112.041.123.123.047.344.188.607.422.791.239.184.553.275.944.275.359 0 .67-.076.931-.228.262-.152.393-.37.393-.65a.663.663 0 00-.1-.364.808.808 0 00-.211-.252 1.215 1.215 0 00-.38-.17 3.318 3.318 0 00-.44-.117l-.551-.105c-.664-.114-1.142-.307-1.435-.58-.293-.278-.44-.676-.44-1.196 0-.543.209-.964.627-1.265.422-.301.914-.452 1.477-.452.672 0 1.211.159 1.617.475.41.316.615.734.615 1.254 0 .078-.041.12-.123.123h-.674c-.054 0-.093-.04-.117-.123-.137-.559-.572-.838-1.306-.838-.336 0-.618.072-.844.217a.686.686 0 00-.334.61c0 .245.107.452.322.62.219.165.615.293 1.19.387.671.113 1.187.29 1.546.528.36.234.539.61.539 1.13 0 .567-.224 1.022-.673 1.366-.446.343-1 .515-1.664.515-.688 0-1.25-.183-1.688-.55a1.753 1.753 0 01-.65-1.401zM146.105 115.883c0-.024.004-.049.012-.076l2.549-8.086c.023-.078.063-.119.117-.123h.985c.054 0 .095.041.123.123l2.543 8.086a.258.258 0 01.011.076c0 .078-.045.117-.134.117h-.791c-.071 0-.118-.039-.141-.117l-.686-2.321h-2.836l-.679 2.321c-.024.078-.073.117-.147.117h-.791c-.09 0-.135-.039-.135-.117zm2.045-3.281h2.256l-1.131-3.715-1.125 3.715zm5.239 3.281v-5.789c0-.078.041-.117.123-.117h.697c.078 0 .117.039.117.117v.662c.129-.246.342-.457.639-.633a1.79 1.79 0 01.931-.269c.399 0 .717.078.956.234.238.156.423.402.556.738.176-.289.414-.523.715-.703a1.85 1.85 0 01.967-.269c.558 0 .969.15 1.23.451.262.3.393.767.393 1.4v4.178c0 .078-.041.117-.123.117h-.697c-.079 0-.118-.039-.118-.117v-4.014c0-.75-.32-1.125-.961-1.125h-.011c-.383 0-.694.192-.932.574-.234.379-.351.883-.351 1.512v3.053c0 .078-.041.117-.124.117h-.691c-.078 0-.119-.039-.123-.117v-4.014c0-.75-.32-1.125-.961-1.125h-.012c-.382 0-.693.192-.931.574-.235.379-.352.883-.352 1.512v3.053c0 .078-.039.117-.117.117h-.697c-.082 0-.123-.039-.123-.117zm8.42-1.67c0-.641.232-1.135.697-1.483.465-.347 1.053-.521 1.764-.521.527 0 1.05.084 1.57.252v-.299c0-.945-.485-1.418-1.453-1.418-.657 0-1.104.305-1.342.914-.024.071-.08.106-.17.106h-.768c-.054 0-.082-.024-.082-.071a.52.52 0 01.012-.123c.129-.48.397-.886.803-1.218.41-.332.926-.498 1.547-.498.695 0 1.267.193 1.717.58.449.382.673.878.673 1.488v2.924c0 .441.069.787.205 1.037a.111.111 0 01.024.058c0 .039-.037.059-.111.059h-.932c-.078 0-.119-.039-.123-.117v-.627c-.414.574-1.026.861-1.834.861-.61 0-1.129-.162-1.559-.486-.426-.328-.638-.801-.638-1.418zm.984 0c0 .312.113.56.34.744.23.184.553.275.967.275.48 0 .89-.17 1.23-.509.34-.34.51-.799.51-1.377a4.758 4.758 0 00-1.559-.252c-.433 0-.791.097-1.072.293-.277.191-.416.467-.416.826zm5.033 1.67v-.651c0-.054.026-.115.076-.181l3.211-4.19h-3.011c-.079 0-.118-.039-.118-.117v-.65c0-.078.039-.117.118-.117h3.996c.078 0 .119.039.123.117v.65a.43.43 0 01-.1.252l-3.152 4.113h3.357c.078 0 .119.041.123.123v.651c0 .078-.041.117-.123.117h-4.377c-.082 0-.123-.039-.123-.117zm6.322-.627c-.546-.574-.82-1.33-.82-2.268 0-.937.274-1.693.82-2.267.551-.578 1.254-.867 2.11-.867.855 0 1.556.289 2.103.867.547.574.821 1.33.821 2.267 0 .938-.274 1.694-.821 2.268-.547.574-1.248.861-2.103.861-.856 0-1.559-.287-2.11-.861zm.704-3.879c-.36.418-.54.955-.54 1.611 0 .657.18 1.196.54 1.617.359.418.826.627 1.4.627.578 0 1.047-.209 1.406-.627.36-.421.539-.96.539-1.617 0-.656-.179-1.193-.539-1.611-.359-.422-.828-.633-1.406-.633-.574 0-1.041.211-1.4.633zm5.666 4.506v-5.789c0-.078.041-.117.123-.117h.697c.078 0 .117.039.117.117v.72c.199-.273.469-.502.809-.685.34-.184.703-.275 1.09-.275.585 0 1.035.173 1.347.521.317.344.475.822.475 1.436v4.072c0 .078-.039.117-.117.117h-.698c-.078 0-.119-.039-.123-.117v-3.856c0-.406-.097-.72-.293-.943-.195-.227-.48-.34-.855-.34-.442 0-.824.195-1.149.586-.324.387-.486.887-.486 1.5v3.053c0 .078-.039.117-.117.117h-.697c-.082 0-.123-.039-.123-.117zm8.496-8.162c0-.078.039-.119.117-.123h.826c.09 0 .139.041.147.123l1.154 6.949 1.26-5.895c.023-.078.07-.117.14-.117h.891c.07 0 .117.039.14.117l1.26 5.895 1.155-6.949c.007-.078.054-.119.14-.123h.832c.078 0 .117.041.117.123l-1.535 8.162c-.008.078-.051.117-.129.117h-1.084c-.07 0-.117-.039-.14-.117l-1.201-5.608-1.202 5.608c-.023.078-.07.117-.14.117h-1.084c-.078 0-.121-.039-.129-.117l-1.535-8.162zm8.361 5.267c0-.894.266-1.64.797-2.238.531-.598 1.221-.896 2.068-.896.871 0 1.551.302 2.039.908.492.605.739 1.347.739 2.226v.17c0 .078-.041.117-.123.117h-4.512c.047.594.228 1.069.545 1.424.316.356.754.533 1.312.533.434 0 .78-.087 1.037-.263.262-.176.465-.455.61-.838.023-.07.08-.108.17-.111h.779c.055 0 .082.027.082.082a.465.465 0 01-.023.123c-.434 1.261-1.315 1.892-2.643 1.892h-.012c-.902 0-1.605-.291-2.109-.873-.504-.582-.756-1.334-.756-2.256zm1.055-.597h3.574c-.098-.496-.309-.895-.633-1.196a1.6 1.6 0 00-1.131-.451c-.457 0-.849.149-1.178.445-.324.297-.535.698-.632 1.202zm5.924 3.492v-8.162c0-.078.041-.119.123-.123h.697c.078 0 .117.041.117.123v2.941c.215-.238.486-.432.814-.58a2.47 2.47 0 011.049-.228c.785 0 1.41.283 1.875.849.469.563.703 1.324.703 2.285 0 .961-.234 1.723-.703 2.285-.468.563-1.093.844-1.875.844-.824 0-1.445-.267-1.863-.803v.569c0 .078-.039.117-.117.117h-.697c-.082 0-.123-.039-.123-.117zm1.306-4.506c-.308.418-.463.955-.463 1.611 0 .657.155 1.196.463 1.617.313.418.744.627 1.295.627.555 0 .992-.211 1.313-.632.32-.426.48-.963.48-1.612 0-.648-.16-1.183-.48-1.605-.321-.426-.758-.639-1.313-.639-.551 0-.982.211-1.295.633zm7.875 2.139c0-.078.039-.118.117-.118h.768c.078 0 .119.04.123.118 0 .449.17.836.51 1.16.34.324.804.486 1.394.486.61 0 1.063-.139 1.36-.416.3-.277.451-.672.451-1.184a.99.99 0 00-.487-.884c-.32-.211-.804-.401-1.453-.569-.879-.23-1.529-.509-1.951-.838-.422-.328-.633-.82-.633-1.476 0-.711.25-1.274.75-1.688.5-.418 1.12-.627 1.858-.627.808 0 1.459.219 1.951.657.492.433.738.978.738 1.634 0 .079-.041.12-.123.124h-.767c-.079 0-.12-.041-.123-.124 0-.367-.163-.679-.487-.937-.32-.262-.717-.393-1.189-.393-.465 0-.848.12-1.149.358-.3.234-.451.543-.451.926 0 .16.02.304.059.433a.815.815 0 00.234.34c.117.102.217.184.299.246.086.063.232.131.439.205.211.071.364.119.457.147l.54.152c.839.231 1.464.504 1.875.82.414.317.621.787.621 1.412 0 .864-.268 1.52-.803 1.969-.535.446-1.207.668-2.016.668-.863 0-1.564-.236-2.103-.709-.539-.476-.809-1.107-.809-1.892zm6.633-.528c0-.894.266-1.64.797-2.238.531-.598 1.221-.896 2.068-.896.871 0 1.551.302 2.039.908.492.605.739 1.347.739 2.226v.17c0 .078-.041.117-.123.117h-4.512c.047.594.228 1.069.545 1.424.316.356.754.533 1.312.533.434 0 .779-.087 1.037-.263.262-.176.465-.455.61-.838.023-.07.08-.108.17-.111h.779c.055 0 .082.027.082.082a.465.465 0 01-.023.123c-.434 1.261-1.315 1.892-2.643 1.892h-.012c-.902 0-1.605-.291-2.109-.873-.504-.582-.756-1.334-.756-2.256zm1.055-.597h3.574c-.098-.496-.309-.895-.633-1.196a1.6 1.6 0 00-1.131-.451c-.457 0-.849.149-1.178.445-.324.297-.535.698-.632 1.202zm5.923 3.492v-5.789c0-.078.042-.117.124-.117h.697c.078 0 .117.039.117.117v.662c.441-.602 1.029-.902 1.764-.902.8 0 1.369.353 1.705 1.06a.197.197 0 01.023.082c0 .055-.023.094-.07.117l-.604.399a.146.146 0 01-.082.023c-.047 0-.078-.019-.093-.058-.168-.274-.34-.463-.516-.569-.176-.109-.404-.164-.686-.164-.441 0-.793.215-1.054.645-.258.425-.387.943-.387 1.552v2.942c0 .078-.039.117-.117.117h-.697c-.082 0-.124-.039-.124-.117zm4.799-5.801c0-.07.037-.105.112-.105h.814c.09 0 .147.039.17.117l1.582 4.635 1.582-4.635c.024-.078.08-.117.17-.117h.814c.071 0 .108.035.112.105a.312.312 0 01-.012.088l-2.103 5.713c-.032.078-.079.117-.141.117h-.844c-.062 0-.109-.039-.14-.117l-2.104-5.713a.312.312 0 01-.012-.088zm5.912 5.801v-.651c0-.078.041-.119.123-.123h1.594v-4.271h-1.295c-.078 0-.119-.039-.123-.117v-.627c0-.078.041-.117.123-.117h2.11c.078 0 .119.039.123.117v5.015h1.652c.078 0 .119.041.123.123v.651c0 .078-.041.117-.123.117h-4.184c-.082 0-.123-.039-.123-.117zm1.477-7.014v-1.031c0-.078.041-.117.123-.117h1.031c.078 0 .117.039.117.117v1.031c0 .078-.039.119-.117.123h-1.031c-.082-.004-.123-.045-.123-.123zm4.541 6.369c-.523-.59-.785-1.34-.785-2.25 0-.914.262-1.664.785-2.25.523-.59 1.227-.884 2.109-.884.688 0 1.248.177 1.682.533.438.351.736.842.896 1.47a.52.52 0 01.012.123c0 .047-.027.071-.082.071h-.732c-.098 0-.155-.035-.17-.106a1.68 1.68 0 00-.598-.873 1.596 1.596 0 00-1.008-.328c-.566 0-1.027.211-1.382.633-.352.418-.528.955-.528 1.611 0 .657.176 1.196.528 1.617.351.418.812.627 1.382.627a1.61 1.61 0 001.008-.322c.285-.219.485-.512.598-.879.015-.07.072-.105.17-.105h.732c.055 0 .082.023.082.07a.478.478 0 01-.012.117c-.16.633-.458 1.125-.896 1.477-.434.351-.994.527-1.682.527-.879 0-1.582-.293-2.109-.879zm5.672-2.25c0-.894.265-1.64.797-2.238.531-.598 1.22-.896 2.068-.896.871 0 1.551.302 2.039.908.492.605.738 1.347.738 2.226v.17c0 .078-.041.117-.123.117h-4.511c.047.594.228 1.069.545 1.424.316.356.754.533 1.312.533.434 0 .779-.087 1.037-.263.262-.176.465-.455.61-.838.023-.07.08-.108.17-.111h.779c.054 0 .082.027.082.082a.435.435 0 01-.024.123c-.433 1.261-1.314 1.892-2.642 1.892h-.012c-.902 0-1.605-.291-2.109-.873-.504-.582-.756-1.334-.756-2.256zm1.055-.597h3.574c-.098-.496-.309-.895-.633-1.196a1.6 1.6 0 00-1.131-.451 1.7 1.7 0 00-1.178.445c-.324.297-.535.698-.632 1.202zm5.519 1.775c0-.078.039-.119.117-.123h.768c.07 0 .111.041.123.123.047.344.187.607.422.791.238.184.553.275.943.275.36 0 .67-.076.932-.228.262-.152.392-.369.392-.65a.673.673 0 00-.099-.364.83.83 0 00-.211-.252 1.235 1.235 0 00-.381-.17 3.485 3.485 0 00-.439-.117l-.551-.105c-.664-.114-1.143-.307-1.436-.58-.293-.278-.439-.676-.439-1.196 0-.543.209-.965.627-1.265.422-.301.914-.451 1.476-.451.672 0 1.211.158 1.617.474.411.317.616.734.616 1.254 0 .078-.041.119-.123.123h-.674c-.055 0-.094-.041-.117-.123-.137-.559-.573-.838-1.307-.838-.336 0-.617.072-.844.217a.688.688 0 00-.334.609c0 .246.108.453.322.621.219.164.616.293 1.19.387.672.113 1.187.289 1.547.527.359.235.539.612.539 1.131 0 .567-.225 1.022-.674 1.366-.445.343-1 .515-1.664.515-.688 0-1.25-.183-1.688-.551a1.756 1.756 0 01-.65-1.4zM146.914 139.883v-8.162c0-.078.039-.119.117-.123h2.028c1.078 0 1.941.353 2.589 1.06.649.703.973 1.752.973 3.147 0 1.39-.324 2.437-.973 3.14-.644.703-1.507 1.055-2.589 1.055h-2.028c-.078 0-.117-.039-.117-.117zm1.008-.844h.996c.832 0 1.48-.268 1.945-.803.469-.535.703-1.345.703-2.431 0-1.09-.234-1.903-.703-2.438-.465-.539-1.113-.808-1.945-.808h-.996v6.48zm5.584.844v-.651c0-.078.041-.119.123-.123h1.594v-4.271h-1.295c-.078 0-.119-.039-.123-.117v-.627c0-.078.041-.117.123-.117h2.109c.078 0 .119.039.123.117v5.015h1.652c.079 0 .12.041.124.123v.651c0 .078-.041.117-.124.117h-4.183c-.082 0-.123-.039-.123-.117zm1.476-7.014v-1.031c0-.078.041-.117.123-.117h1.032c.078 0 .117.039.117.117v1.031c0 .078-.039.119-.117.123h-1.032c-.082-.004-.123-.045-.123-.123zm3.446 5.32c0-.64.363-1.125 1.09-1.453a2.147 2.147 0 01-.159-.826c0-.64.198-1.142.592-1.506.399-.367.895-.55 1.488-.55.434 0 .825.113 1.172.339l.809-.72c.031-.032.062-.047.094-.047.023 0 .054.019.093.058l.457.481c.032.031.047.062.047.094 0 .031-.019.068-.058.111l-.768.732c.16.297.24.633.24 1.008 0 .641-.201 1.141-.603 1.5-.399.36-.893.539-1.483.539-.585 0-1.066-.172-1.441-.515-.426.183-.639.451-.639.802 0 .192.065.348.194.469a.723.723 0 00.515.182c.129 0 .373-.037.733-.112.359-.078.687-.117.984-.117 1.649 0 2.473.627 2.473 1.881 0 .602-.237 1.078-.709 1.43-.473.351-1.125.527-1.957.527-.895 0-1.582-.166-2.063-.498-.48-.332-.72-.795-.72-1.389 0-.414.109-.769.328-1.066-.473-.316-.709-.768-.709-1.354zm1.365 2.338c0 .719.6 1.078 1.799 1.078.551 0 .969-.093 1.254-.281a.888.888 0 00.427-.785c0-.312-.142-.557-.427-.732-.282-.176-.7-.264-1.254-.264-.223 0-.488.035-.797.105a3.59 3.59 0 01-.68.1c-.215.184-.322.443-.322.779zm.551-4.617c0 .375.099.66.299.856.203.195.468.293.796.293.336 0 .604-.098.803-.293.199-.196.299-.481.299-.856 0-.383-.1-.672-.299-.867-.199-.199-.467-.299-.803-.299-.328 0-.593.1-.796.299-.2.195-.299.484-.299.867zm4.412 3.973v-.651c0-.078.041-.119.123-.123h1.594v-4.271h-1.295c-.078 0-.119-.039-.123-.117v-.627c0-.078.041-.117.123-.117h2.109c.078 0 .119.039.123.117v5.015h1.652c.079 0 .12.041.124.123v.651c0 .078-.041.117-.124.117h-4.183c-.082 0-.123-.039-.123-.117zm1.476-7.014v-1.031c0-.078.041-.117.123-.117h1.032c.078 0 .117.039.117.117v1.031c0 .078-.039.119-.117.123h-1.032c-.082-.004-.123-.045-.123-.123zm3.481 1.875v-.65c0-.078.039-.117.117-.117h1.084v-1.729c0-.078.039-.117.117-.117h.698c.078 0 .117.039.117.117v1.729h2.297c.078 0 .117.039.117.117v.65c0 .078-.039.117-.117.117h-2.297v2.813c0 1.039.392 1.558 1.177 1.558.375 0 .651-.099.827-.298.175-.2.293-.512.351-.938.008-.07.051-.105.129-.105h.744c.008 0 .018.004.03.011.015.008.025.02.029.036a.235.235 0 01.006.058c0 .594-.186 1.096-.557 1.506-.367.41-.887.615-1.559.615-.687 0-1.211-.205-1.57-.615-.359-.41-.539-1.016-.539-1.816v-2.825h-1.084c-.078 0-.117-.039-.117-.117zm6.205 3.469c0-.641.232-1.135.697-1.483.465-.347 1.053-.521 1.764-.521.527 0 1.051.084 1.57.252v-.299c0-.945-.484-1.418-1.453-1.418-.656 0-1.103.305-1.342.914-.023.071-.08.106-.17.106h-.767c-.055 0-.082-.024-.082-.071 0-.05.004-.091.011-.123.129-.48.397-.886.803-1.218.41-.332.926-.498 1.547-.498.695 0 1.268.193 1.717.58.449.382.674.878.674 1.488v2.924c0 .441.068.787.205 1.037a.117.117 0 01.023.058c0 .039-.037.059-.111.059h-.932c-.078 0-.119-.039-.123-.117v-.627c-.414.574-1.025.861-1.834.861-.609 0-1.129-.162-1.558-.486-.426-.328-.639-.801-.639-1.418zm.984 0c0 .312.114.56.34.744.231.184.553.275.967.275.48 0 .891-.17 1.23-.509.34-.34.51-.799.51-1.377a4.756 4.756 0 00-1.558-.252c-.434 0-.791.097-1.073.293-.277.191-.416.467-.416.826zm5.022 1.67v-.651c0-.078.041-.119.123-.123h1.74v-6.621h-1.5c-.078 0-.119-.041-.123-.123v-.644c0-.078.041-.119.123-.123h2.315c.078 0 .117.041.117.123v7.388h1.752c.078 0 .119.041.123.123v.651c0 .078-.041.117-.123.117h-4.424c-.082 0-.123-.039-.123-.117zm9.457-.885c-.645-.746-.967-1.81-.967-3.193 0-1.387.322-2.453.967-3.2.644-.75 1.455-1.125 2.431-1.125.977 0 1.786.375 2.426 1.125.645.747.967 1.813.967 3.2 0 1.383-.322 2.447-.967 3.193-.64.746-1.449 1.119-2.426 1.119-.976 0-1.787-.373-2.431-1.119zm.721-5.684c-.418.579-.627 1.409-.627 2.491 0 1.078.209 1.908.627 2.49.421.578.992.867 1.71.867.719 0 1.288-.289 1.706-.867.421-.582.632-1.412.632-2.49 0-1.082-.211-1.912-.632-2.491-.418-.582-.987-.873-1.706-.873-.718 0-1.289.291-1.71.873zm6.96 5.924c-.523-.59-.785-1.34-.785-2.25 0-.914.262-1.664.785-2.25.524-.59 1.227-.884 2.11-.884.687 0 1.248.177 1.682.533.437.351.736.842.896 1.47a.52.52 0 01.012.123c0 .047-.028.071-.082.071h-.733c-.097 0-.154-.035-.17-.106a1.679 1.679 0 00-.597-.873 1.6 1.6 0 00-1.008-.328c-.567 0-1.027.211-1.383.633-.351.418-.527.955-.527 1.611 0 .657.176 1.196.527 1.617.352.418.813.627 1.383.627.39 0 .726-.107 1.008-.322.285-.219.484-.512.597-.879.016-.07.073-.105.17-.105h.733c.054 0 .082.023.082.07a.478.478 0 01-.012.117c-.16.633-.459 1.125-.896 1.477-.434.351-.995.527-1.682.527-.879 0-1.582-.293-2.11-.879zm5.672-2.25c0-.894.266-1.64.797-2.238.531-.598 1.221-.896 2.069-.896.871 0 1.55.302 2.039.908.492.605.738 1.347.738 2.226v.17c0 .078-.041.117-.123.117h-4.512c.047.594.229 1.069.545 1.424.317.356.754.533 1.313.533.433 0 .779-.087 1.037-.263.261-.176.465-.455.609-.838.024-.07.08-.108.17-.111h.779c.055 0 .082.027.082.082a.427.427 0 01-.023.123c-.434 1.261-1.315 1.892-2.643 1.892h-.011c-.903 0-1.606-.291-2.11-.873-.504-.582-.756-1.334-.756-2.256zm1.055-.597h3.574c-.097-.496-.308-.895-.633-1.196a1.6 1.6 0 00-1.13-.451 1.7 1.7 0 00-1.178.445c-.324.297-.535.698-.633 1.202zm5.578 1.822c0-.641.233-1.135.697-1.483.465-.347 1.053-.521 1.764-.521.527 0 1.051.084 1.57.252v-.299c0-.945-.484-1.418-1.453-1.418-.656 0-1.103.305-1.341.914-.024.071-.081.106-.17.106h-.768c-.055 0-.082-.024-.082-.071a.52.52 0 01.012-.123c.129-.48.396-.886.802-1.218.411-.332.926-.498 1.547-.498.696 0 1.268.193 1.717.58.449.382.674.878.674 1.488v2.924c0 .441.068.787.205 1.037a.108.108 0 01.023.058c0 .039-.037.059-.111.059h-.932c-.078 0-.119-.039-.123-.117v-.627c-.414.574-1.025.861-1.834.861-.609 0-1.128-.162-1.558-.486-.426-.328-.639-.801-.639-1.418zm.985 0c0 .312.113.56.339.744.231.184.553.275.967.275.481 0 .891-.17 1.231-.509.34-.34.509-.799.509-1.377a4.752 4.752 0 00-1.558-.252c-.434 0-.791.097-1.072.293-.278.191-.416.467-.416.826zm5.548 1.67v-5.789c0-.078.041-.117.123-.117h.698c.078 0 .117.039.117.117v.72c.199-.273.469-.502.808-.685.34-.184.704-.275 1.09-.275.586 0 1.035.173 1.348.521.316.344.475.822.475 1.436v4.072c0 .078-.039.117-.118.117h-.697c-.078 0-.119-.039-.123-.117v-3.856c0-.406-.098-.72-.293-.943-.195-.227-.48-.34-.855-.34-.442 0-.825.195-1.149.586-.324.387-.486.887-.486 1.5v3.053c0 .078-.039.117-.117.117h-.698c-.082 0-.123-.039-.123-.117zM147.6 162.986c-.684-.757-1.026-1.82-1.026-3.187 0-1.367.344-2.428 1.031-3.182.692-.758 1.528-1.137 2.508-1.137.801 0 1.473.219 2.016.657.547.433.9 1.07 1.06 1.91 0 .078-.044.119-.134.123h-.768c-.07 0-.117-.041-.141-.123-.289-1.07-.966-1.606-2.033-1.606-.726 0-1.322.295-1.787.885-.461.586-.691 1.41-.691 2.473 0 1.078.232 1.908.697 2.49.469.582 1.104.873 1.904.873.993 0 1.668-.377 2.028-1.131v-1.342h-2.028c-.078 0-.119-.041-.123-.123v-.72c0-.078.041-.117.123-.117h2.918c.078 0 .117.039.117.117v2.174a.95.95 0 01-.117.457c-.265.48-.658.875-1.177 1.183-.52.305-1.1.457-1.741.457-1.07 0-1.949-.377-2.636-1.131zm7.47.27c-.547-.574-.82-1.33-.82-2.268 0-.937.273-1.693.82-2.267.551-.578 1.254-.867 2.11-.867.855 0 1.556.289 2.103.867.547.574.821 1.33.821 2.267 0 .938-.274 1.694-.821 2.268-.547.574-1.248.861-2.103.861-.856 0-1.559-.287-2.11-.861zm.703-3.879c-.359.418-.539.955-.539 1.611 0 .657.18 1.196.539 1.617.36.418.827.627 1.401.627.578 0 1.047-.209 1.406-.627.359-.421.539-.96.539-1.617 0-.656-.18-1.193-.539-1.611-.359-.422-.828-.633-1.406-.633-.574 0-1.041.211-1.401.633zm6.141 3.879c-.547-.574-.82-1.33-.82-2.268 0-.937.273-1.693.82-2.267.551-.578 1.254-.867 2.109-.867.856 0 1.557.289 2.104.867.547.574.82 1.33.82 2.267 0 .938-.273 1.694-.82 2.268-.547.574-1.248.861-2.104.861-.855 0-1.558-.287-2.109-.861zm.703-3.879c-.359.418-.539.955-.539 1.611 0 .657.18 1.196.539 1.617.36.418.826.627 1.401.627.578 0 1.046-.209 1.406-.627.359-.421.539-.96.539-1.617 0-.656-.18-1.193-.539-1.611-.36-.422-.828-.633-1.406-.633-.575 0-1.041.211-1.401.633zm5.01 2.812c0-.64.363-1.125 1.09-1.453a2.147 2.147 0 01-.158-.826c0-.64.197-1.142.591-1.506.399-.367.895-.55 1.489-.55.433 0 .824.113 1.172.339l.808-.72c.031-.032.063-.047.094-.047.023 0 .055.019.094.058l.457.481c.031.031.047.062.047.094 0 .031-.02.068-.059.111l-.768.732c.161.297.241.633.241 1.008 0 .641-.202 1.141-.604 1.5-.398.36-.892.539-1.482.539-.586 0-1.067-.172-1.442-.515-.426.183-.638.451-.638.802 0 .192.064.348.193.469s.301.182.516.182c.128 0 .373-.037.732-.112.359-.078.688-.117.984-.117 1.649 0 2.473.627 2.473 1.881 0 .602-.236 1.078-.709 1.43-.473.351-1.125.527-1.957.527-.895 0-1.582-.166-2.062-.498-.481-.332-.721-.795-.721-1.389 0-.414.109-.769.328-1.066-.473-.316-.709-.768-.709-1.354zm1.365 2.338c0 .719.6 1.078 1.799 1.078.551 0 .969-.093 1.254-.281a.889.889 0 00.428-.785c0-.312-.143-.557-.428-.732-.281-.176-.699-.264-1.254-.264-.223 0-.488.035-.797.105-.308.067-.535.1-.68.1-.214.184-.322.443-.322.779zm.551-4.617c0 .375.1.66.299.856.203.195.469.293.797.293.336 0 .603-.098.802-.293.2-.196.299-.481.299-.856 0-.383-.099-.672-.299-.867-.199-.199-.466-.299-.802-.299-.328 0-.594.1-.797.299-.199.195-.299.484-.299.867zm4.412 3.973v-.651c0-.078.041-.119.123-.123h1.74v-6.621h-1.5c-.078 0-.119-.041-.123-.123v-.644c0-.078.041-.119.123-.123h2.315c.078 0 .117.041.117.123v7.388h1.752c.078 0 .119.041.123.123v.651c0 .078-.041.117-.123.117h-4.424c-.082 0-.123-.039-.123-.117zm5.479-2.895c0-.894.265-1.64.796-2.238.532-.598 1.221-.896 2.069-.896.871 0 1.551.302 2.039.908.492.605.738 1.347.738 2.226v.17c0 .078-.041.117-.123.117h-4.512c.047.594.229 1.069.545 1.424.317.356.754.533 1.313.533.433 0 .779-.087 1.037-.263.262-.176.465-.455.609-.838.024-.07.08-.108.17-.111h.78c.054 0 .082.027.082.082a.435.435 0 01-.024.123c-.433 1.261-1.314 1.892-2.642 1.892h-.012c-.903 0-1.606-.291-2.11-.873-.503-.582-.755-1.334-.755-2.256zm1.054-.597h3.574c-.097-.496-.308-.895-.632-1.196a1.604 1.604 0 00-1.131-.451 1.7 1.7 0 00-1.178.445c-.324.297-.535.698-.633 1.202zm9.58 2.601c-.66-.754-.99-1.818-.99-3.193s.33-2.438.99-3.188c.661-.754 1.479-1.131 2.455-1.131.872 0 1.586.243 2.145.727.562.484.904 1.189 1.025 2.115 0 .078-.045.119-.134.123h-.733c-.09 0-.137-.041-.14-.123-.258-1.254-.975-1.881-2.151-1.881h-.012c-.718 0-1.296.293-1.734.879-.434.582-.65 1.41-.65 2.485 0 1.07.216 1.898.65 2.484.438.582 1.016.873 1.734.873 1.184 0 1.905-.629 2.163-1.887.007-.078.054-.117.14-.117h.733c.089 0 .134.039.134.117-.121.93-.463 1.637-1.025 2.121-.559.481-1.273.721-2.145.721-.976 0-1.794-.375-2.455-1.125zm6.375.891v-.651c0-.078.041-.119.123-.123h1.741v-6.621h-1.5c-.078 0-.119-.041-.123-.123v-.644c0-.078.041-.119.123-.123h2.314c.078 0 .117.041.117.123v7.388h1.752c.078 0 .119.041.123.123v.651c0 .078-.041.117-.123.117h-4.424c-.082 0-.123-.039-.123-.117zm6.299-.627c-.547-.574-.82-1.33-.82-2.268 0-.937.273-1.693.82-2.267.551-.578 1.254-.867 2.11-.867.855 0 1.556.289 2.103.867.547.574.82 1.33.82 2.267 0 .938-.273 1.694-.82 2.268-.547.574-1.248.861-2.103.861-.856 0-1.559-.287-2.11-.861zm.703-3.879c-.359.418-.539.955-.539 1.611 0 .657.18 1.196.539 1.617.36.418.826.627 1.401.627.578 0 1.047-.209 1.406-.627.359-.421.539-.96.539-1.617 0-.656-.18-1.193-.539-1.611-.359-.422-.828-.633-1.406-.633-.575 0-1.041.211-1.401.633zm5.596 2.789v-4.072c0-.078.041-.117.123-.117h.691c.079 0 .12.039.124.117v3.855c0 .406.097.723.292.949.196.223.481.334.856.334.441 0 .824-.193 1.148-.58.325-.39.487-.892.487-1.506v-3.052c0-.078.039-.117.117-.117h.697c.078 0 .119.039.123.117v5.789c0 .078-.041.117-.123.117h-.697c-.078 0-.117-.039-.117-.117v-.721c-.2.274-.469.502-.809.686-.34.179-.703.269-1.09.269h-.011c-1.207 0-1.811-.65-1.811-1.951zm6.691 1.107c-.464-.562-.697-1.324-.697-2.285 0-.961.235-1.722.703-2.285.469-.566 1.094-.849 1.875-.849.367 0 .715.074 1.043.222.328.149.602.344.821.586v-2.941c0-.078.039-.119.117-.123h.697c.078 0 .117.041.117.123v8.162c0 .078-.039.117-.117.117h-.697c-.078 0-.117-.039-.117-.117v-.569c-.415.536-1.036.803-1.864.803-.785 0-1.412-.281-1.881-.844zm.768-3.89c-.32.422-.48.957-.48 1.605 0 .649.16 1.186.48 1.612.32.421.756.632 1.307.632.55 0 .982-.209 1.295-.627.312-.421.468-.96.468-1.617 0-.656-.156-1.193-.468-1.611-.313-.422-.745-.633-1.295-.633-.551 0-.987.213-1.307.639zm8.59 4.5v-8.162c0-.078.039-.119.117-.123h2.473c.863 0 1.525.211 1.986.632.461.418.691.989.691 1.711 0 .719-.23 1.289-.691 1.711-.461.418-1.123.627-1.986.627h-1.582v3.604c0 .078-.041.117-.123.117h-.768c-.078 0-.117-.039-.117-.117zm1.008-4.565h1.763c.961 0 1.442-.459 1.442-1.377 0-.921-.481-1.382-1.442-1.382h-1.763v2.759zm4.705 4.565v-.651c0-.078.041-.119.123-.123h1.74v-6.621h-1.5c-.078 0-.119-.041-.123-.123v-.644c0-.078.041-.119.123-.123h2.314c.079 0 .118.041.118.123v7.388h1.752c.078 0 .119.041.123.123v.651c0 .078-.041.117-.123.117h-4.424c-.082 0-.123-.039-.123-.117zm5.478-1.67c0-.641.233-1.135.698-1.483.464-.347 1.052-.521 1.763-.521.528 0 1.051.084 1.57.252v-.299c0-.945-.484-1.418-1.453-1.418-.656 0-1.103.305-1.341.914-.024.071-.08.106-.17.106h-.768c-.055 0-.082-.024-.082-.071a.52.52 0 01.012-.123c.129-.48.396-.886.802-1.218.411-.332.926-.498 1.547-.498.696 0 1.268.193 1.717.58.449.382.674.878.674 1.488v2.924c0 .441.068.787.205 1.037a.111.111 0 01.024.058c0 .039-.038.059-.112.059h-.931c-.079 0-.12-.039-.124-.117v-.627c-.414.574-1.025.861-1.833.861-.61 0-1.129-.162-1.559-.486-.426-.328-.639-.801-.639-1.418zm.985 0c0 .312.113.56.339.744.231.184.553.275.967.275.481 0 .891-.17 1.231-.509.34-.34.509-.799.509-1.377a4.752 4.752 0 00-1.558-.252c-.434 0-.791.097-1.072.293-.278.191-.416.467-.416.826zm4.927-3.469v-.65c0-.078.039-.117.118-.117h1.084v-1.729c0-.078.039-.117.117-.117h.697c.078 0 .117.039.117.117v1.729h2.297c.078 0 .117.039.117.117v.65c0 .078-.039.117-.117.117h-2.297v2.813c0 1.039.393 1.558 1.178 1.558.375 0 .65-.099.826-.298.176-.2.293-.512.352-.938.007-.07.05-.105.129-.105h.744c.007 0 .017.004.029.011.016.008.025.02.029.036a.235.235 0 01.006.058c0 .594-.185 1.096-.557 1.506-.367.41-.886.615-1.558.615-.688 0-1.211-.205-1.57-.615-.36-.41-.539-1.016-.539-1.816v-2.825h-1.084c-.079 0-.118-.039-.118-.117zm5.895 0v-.65c0-.078.039-.117.117-.117h1.084v-.528c0-.535.154-.996.463-1.383.312-.39.754-.586 1.324-.586.496 0 .932.112 1.307.334a.244.244 0 01.094.206v.638c0 .078-.028.117-.082.117a.144.144 0 01-.083-.023c-.39-.258-.779-.387-1.166-.387-.289 0-.515.098-.679.293-.164.192-.246.455-.246.791v.528h2.015c.078 0 .119.039.123.117v.65c0 .078-.041.117-.123.117h-2.015v5.022c0 .078-.039.117-.117.117h-.698c-.078 0-.117-.039-.117-.117v-5.022h-1.084c-.078 0-.117-.039-.117-.117zm5.537 4.512c-.547-.574-.82-1.33-.82-2.268 0-.937.273-1.693.82-2.267.551-.578 1.254-.867 2.109-.867.856 0 1.557.289 2.104.867.547.574.82 1.33.82 2.267 0 .938-.273 1.694-.82 2.268-.547.574-1.248.861-2.104.861-.855 0-1.558-.287-2.109-.861zm.703-3.879c-.359.418-.539.955-.539 1.611 0 .657.18 1.196.539 1.617.36.418.826.627 1.401.627.578 0 1.046-.209 1.406-.627.359-.421.539-.96.539-1.617 0-.656-.18-1.193-.539-1.611-.36-.422-.828-.633-1.406-.633-.575 0-1.041.211-1.401.633zm5.666 4.506v-5.789c0-.078.041-.117.123-.117h.697c.079 0 .118.039.118.117v.662c.441-.602 1.029-.902 1.763-.902.801 0 1.369.353 1.705 1.06a.186.186 0 01.024.082.121.121 0 01-.07.117l-.604.399a.149.149 0 01-.082.023c-.047 0-.078-.019-.094-.058-.168-.274-.34-.463-.515-.569-.176-.109-.405-.164-.686-.164-.441 0-.793.215-1.055.645-.257.425-.386.943-.386 1.552v2.942c0 .078-.039.117-.118.117h-.697c-.082 0-.123-.039-.123-.117zm5.555 0v-5.789c0-.078.041-.117.123-.117h.697c.078 0 .117.039.117.117v.662c.129-.246.342-.457.639-.633a1.79 1.79 0 01.932-.269c.398 0 .716.078.955.234.238.156.424.402.556.738.176-.289.414-.523.715-.703a1.85 1.85 0 01.967-.269c.559 0 .969.15 1.23.451.262.3.393.767.393 1.4v4.178c0 .078-.041.117-.123.117h-.697c-.078 0-.117-.039-.117-.117v-4.014c0-.75-.321-1.125-.961-1.125h-.012c-.383 0-.693.192-.932.574-.234.379-.351.883-.351 1.512v3.053c0 .078-.041.117-.123.117h-.692c-.078 0-.119-.039-.123-.117v-4.014c0-.75-.32-1.125-.961-1.125h-.011c-.383 0-.694.192-.932.574-.234.379-.352.883-.352 1.512v3.053c0 .078-.039.117-.117.117h-.697c-.082 0-.123-.039-.123-.117zM147.6 186.986c-.684-.757-1.026-1.82-1.026-3.187 0-1.367.344-2.428 1.031-3.182.692-.758 1.528-1.137 2.508-1.137.801 0 1.473.219 2.016.657.547.433.9 1.07 1.06 1.91 0 .078-.044.119-.134.123h-.768c-.07 0-.117-.041-.141-.123-.289-1.07-.966-1.606-2.033-1.606-.726 0-1.322.295-1.787.885-.461.586-.691 1.41-.691 2.473 0 1.078.232 1.908.697 2.49.469.582 1.104.873 1.904.873.993 0 1.668-.377 2.028-1.131v-1.342h-2.028c-.078 0-.119-.041-.123-.123v-.72c0-.078.041-.117.123-.117h2.918c.078 0 .117.039.117.117v2.174a.95.95 0 01-.117.457c-.265.48-.658.875-1.177 1.183-.52.305-1.1.457-1.741.457-1.07 0-1.949-.377-2.636-1.131zm7.072.897v-8.162c0-.078.039-.119.117-.123h.768c.078 0 .119.041.123.123v3.539l3.035-3.539c.07-.078.135-.119.193-.123h.985c.046 0 .076.021.087.064.012.039-.001.074-.041.106l-2.496 2.941 3.024 5.121a.206.206 0 01.023.088c0 .055-.031.082-.094.082h-1.007c-.071 0-.143-.061-.217-.182l-2.473-4.283-1.019 1.19v3.158c0 .078-.041.117-.123.117h-.768c-.078 0-.117-.039-.117-.117zm6.785 0v-8.162c0-.078.039-.119.117-.123h4.283c.079 0 .12.041.123.123v.72c0 .079-.041.118-.123.118h-3.392v2.543h3.023c.078 0 .117.041.117.123v.72c0 .078-.039.117-.117.117h-3.023v2.977h3.48c.078 0 .117.041.117.123v.721c0 .078-.039.117-.117.117h-4.371c-.078 0-.117-.039-.117-.117zM146.105 211.883c0-.024.004-.049.012-.076l2.549-8.086c.023-.078.063-.119.117-.123h.985c.054 0 .095.041.123.123l2.543 8.086a.258.258 0 01.011.076c0 .078-.045.117-.134.117h-.791c-.071 0-.118-.039-.141-.117l-.686-2.321h-2.836l-.679 2.321c-.024.078-.073.117-.147.117h-.791c-.09 0-.135-.039-.135-.117zm2.045-3.281h2.256l-1.131-3.715-1.125 3.715zm4.723 3.281v-.651c0-.054.025-.115.076-.181l3.211-4.19h-3.012c-.078 0-.117-.039-.117-.117v-.65c0-.078.039-.117.117-.117h3.997c.078 0 .119.039.123.117v.65a.437.437 0 01-.1.252l-3.152 4.113h3.357c.078 0 .119.041.123.123v.651c0 .078-.041.117-.123.117h-4.377c-.082 0-.123-.039-.123-.117zm5.777-1.717v-4.072c0-.078.041-.117.123-.117h.692c.078 0 .119.039.123.117v3.855c0 .406.098.723.293.949.195.223.48.334.855.334.442 0 .825-.193 1.149-.58.324-.39.486-.892.486-1.506v-3.052c0-.078.039-.117.117-.117h.698c.078 0 .119.039.123.117v5.789c0 .078-.041.117-.123.117h-.698c-.078 0-.117-.039-.117-.117v-.721a2.374 2.374 0 01-.809.686 2.301 2.301 0 01-1.089.269h-.012c-1.207 0-1.811-.65-1.811-1.951zm6.34 1.717v-5.789c0-.078.041-.117.123-.117h.698c.078 0 .117.039.117.117v.662c.441-.602 1.029-.902 1.763-.902.801 0 1.37.353 1.705 1.06a.186.186 0 01.024.082.121.121 0 01-.07.117l-.604.399a.149.149 0 01-.082.023c-.047 0-.078-.019-.094-.058-.168-.274-.34-.463-.515-.569-.176-.109-.405-.164-.686-.164-.441 0-.793.215-1.055.645-.257.425-.386.943-.386 1.552v2.942c0 .078-.039.117-.117.117h-.698c-.082 0-.123-.039-.123-.117zm5.209-2.895c0-.894.266-1.64.797-2.238.531-.598 1.221-.896 2.068-.896.872 0 1.551.302 2.04.908.492.605.738 1.347.738 2.226v.17c0 .078-.041.117-.123.117h-4.512c.047.594.229 1.069.545 1.424.316.356.754.533 1.312.533.434 0 .78-.087 1.038-.263.261-.176.464-.455.609-.838.023-.07.08-.108.17-.111h.779c.055 0 .082.027.082.082a.465.465 0 01-.023.123c-.434 1.261-1.315 1.892-2.643 1.892h-.012c-.902 0-1.605-.291-2.109-.873-.504-.582-.756-1.334-.756-2.256zm1.055-.597h3.574c-.098-.496-.308-.895-.633-1.196a1.6 1.6 0 00-1.131-.451c-.457 0-.849.149-1.177.445-.325.297-.535.698-.633 1.202z" fill="#F7F8F8"/></g><rect x="134.5" y="72.5" width="210" height="151" rx="5.5" stroke="#fff" stroke-opacity=".1"/><g filter="url(#filter0_d)"><path d="M134 38a4 4 0 014-4h203a4 4 0 014 4v24a4 4 0 01-4 4H138a4 4 0 01-4-4V38z" fill="#1DE9B6"/><path d="M145.914 53.883V45.72c0-.078.039-.12.117-.123h2.473c.863 0 1.525.21 1.986.633.461.417.692.988.692 1.71 0 .72-.231 1.29-.692 1.711-.461.418-1.123.627-1.986.627h-1.582v3.604c0 .078-.041.117-.123.117h-.768c-.078 0-.117-.04-.117-.117zm1.008-4.565h1.764c.96 0 1.441-.459 1.441-1.377 0-.922-.481-1.382-1.441-1.382h-1.764v2.76zm5.221 2.848v-4.072c0-.078.041-.117.123-.117h.691c.078 0 .119.039.123.117v3.855c0 .407.098.723.293.95.195.222.481.333.856.333.441 0 .824-.193 1.148-.58.324-.39.486-.892.486-1.505v-3.053c0-.078.039-.117.117-.117h.698c.078 0 .119.039.123.117v5.789c0 .078-.041.117-.123.117h-.698c-.078 0-.117-.04-.117-.117v-.72a2.371 2.371 0 01-.808.685c-.34.18-.703.27-1.09.27h-.012c-1.207 0-1.81-.651-1.81-1.952zm5.935 0c0-.078.039-.12.117-.123h.768c.07 0 .111.041.123.123.047.344.187.607.422.791.238.184.553.275.943.275.36 0 .67-.076.932-.228.262-.152.392-.37.392-.65a.67.67 0 00-.099-.364.822.822 0 00-.211-.252 1.212 1.212 0 00-.381-.17 3.31 3.31 0 00-.439-.117l-.551-.105c-.664-.114-1.143-.307-1.436-.58-.293-.278-.439-.676-.439-1.196 0-.543.209-.965.627-1.265.422-.301.914-.452 1.476-.452.672 0 1.211.159 1.617.475.411.316.616.734.616 1.254 0 .078-.041.12-.123.123h-.674c-.055 0-.094-.04-.117-.123-.137-.559-.573-.838-1.307-.838-.336 0-.617.072-.844.217a.688.688 0 00-.334.61c0 .245.108.452.323.62.218.164.615.293 1.189.387.672.113 1.187.29 1.547.527.359.235.539.612.539 1.131 0 .567-.225 1.022-.674 1.366-.445.343-1 .515-1.664.515-.687 0-1.25-.183-1.687-.55a1.754 1.754 0 01-.651-1.401zm5.877 1.717V45.72c0-.078.041-.12.123-.123h.697c.079 0 .118.04.118.123v3.117c.183-.305.449-.545.796-.72a2.46 2.46 0 011.125-.265c.657 0 1.139.169 1.448.504.312.336.468.84.468 1.512v4.014c0 .078-.039.117-.117.117h-.697c-.078 0-.117-.04-.117-.117v-3.797c0-.895-.401-1.342-1.201-1.342-.45 0-.846.196-1.19.586-.344.387-.515.887-.515 1.5v3.053c0 .078-.039.117-.118.117h-.697c-.082 0-.123-.04-.123-.117zm8.572 1.582c0-.078.034-.12.1-.123.031 0 .131.043.299.129.168.09.355.135.562.135a.84.84 0 00.715-.376c.18-.246.346-.648.498-1.207l-2.109-5.853a.366.366 0 01-.024-.1c0-.062.032-.093.094-.093h.861c.079 0 .131.039.159.117l1.488 4.576 1.418-4.576c.023-.078.074-.117.152-.117h.832c.063 0 .094.027.094.082 0 .03-.004.06-.012.088l-2.127 6.439c-.238.727-.511 1.227-.82 1.5-.309.273-.697.41-1.166.41-.312 0-.609-.064-.891-.193a.23.23 0 01-.123-.194v-.644zm6.586-2.21c-.547-.573-.82-1.33-.82-2.267 0-.937.273-1.693.82-2.267.551-.578 1.254-.867 2.11-.867.855 0 1.556.289 2.103.867.547.574.82 1.33.82 2.267 0 .938-.273 1.694-.82 2.268-.547.574-1.248.861-2.103.861-.856 0-1.559-.287-2.11-.861zm.703-3.878c-.359.418-.539.955-.539 1.611 0 .657.18 1.196.539 1.617.36.418.827.627 1.401.627.578 0 1.047-.209 1.406-.627.359-.421.539-.96.539-1.617 0-.656-.18-1.193-.539-1.611-.359-.422-.828-.633-1.406-.633-.574 0-1.041.211-1.401.633zm5.596 2.789v-4.072c0-.078.041-.117.123-.117h.692c.078 0 .119.039.123.117v3.855c0 .407.097.723.293.95.195.222.48.333.855.333.441 0 .824-.193 1.148-.58.325-.39.487-.892.487-1.505v-3.053c0-.078.039-.117.117-.117h.697c.078 0 .119.039.123.117v5.789c0 .078-.041.117-.123.117h-.697c-.078 0-.117-.04-.117-.117v-.72a2.375 2.375 0 01-.809.685c-.34.18-.703.27-1.09.27h-.011c-1.207 0-1.811-.651-1.811-1.952zm6.34 1.717v-5.79c0-.077.041-.116.123-.116h.697c.078 0 .117.039.117.117v.662c.442-.602 1.03-.903 1.764-.903.801 0 1.369.354 1.705 1.061a.185.185 0 01.024.082.122.122 0 01-.071.117l-.603.399a.146.146 0 01-.082.023c-.047 0-.078-.02-.094-.058-.168-.274-.34-.463-.516-.569-.175-.11-.404-.164-.685-.164-.442 0-.793.215-1.055.645-.258.425-.387.943-.387 1.552v2.942c0 .078-.039.117-.117.117h-.697c-.082 0-.123-.04-.123-.117zm8.836-.61c-.465-.562-.697-1.324-.697-2.285 0-.96.234-1.722.703-2.285.468-.566 1.094-.85 1.875-.85a2.5 2.5 0 011.043.223c.328.149.601.344.82.586v-2.941c0-.078.039-.12.117-.123h.697c.079 0 .118.04.118.123v8.162c0 .078-.039.117-.118.117h-.697c-.078 0-.117-.04-.117-.117v-.569c-.414.536-1.035.803-1.863.803-.785 0-1.412-.281-1.881-.844zm.767-3.89c-.32.422-.48.957-.48 1.605 0 .649.16 1.186.48 1.612.321.422.756.632 1.307.632.551 0 .983-.209 1.295-.627.313-.421.469-.96.469-1.617 0-.656-.156-1.193-.469-1.611-.312-.422-.744-.633-1.295-.633-.551 0-.986.213-1.307.639zm6.059 3.873c-.547-.574-.82-1.33-.82-2.268 0-.937.273-1.693.82-2.267.551-.578 1.254-.867 2.109-.867.856 0 1.557.289 2.104.867.547.574.82 1.33.82 2.267 0 .938-.273 1.694-.82 2.268-.547.574-1.248.861-2.104.861-.855 0-1.558-.287-2.109-.861zm.703-3.879c-.359.418-.539.955-.539 1.611 0 .657.18 1.196.539 1.617.36.418.826.627 1.401.627.578 0 1.046-.209 1.406-.627.359-.421.539-.96.539-1.617 0-.656-.18-1.193-.539-1.611-.36-.422-.828-.633-1.406-.633-.575 0-1.041.211-1.401.633zm6.106 3.861c-.524-.59-.785-1.34-.785-2.25 0-.914.261-1.664.785-2.25.523-.59 1.226-.885 2.109-.885.688 0 1.248.178 1.682.534.437.351.736.841.896 1.47a.513.513 0 01.012.123c0 .047-.027.07-.082.07h-.733c-.097 0-.154-.034-.169-.105a1.685 1.685 0 00-.598-.873 1.592 1.592 0 00-1.008-.328c-.566 0-1.027.211-1.383.633-.351.418-.527.955-.527 1.611 0 .657.176 1.196.527 1.617.352.418.813.627 1.383.627.391 0 .727-.107 1.008-.322.285-.219.484-.512.598-.879.015-.07.072-.105.169-.105h.733c.055 0 .082.023.082.07a.482.482 0 01-.012.117c-.16.633-.459 1.125-.896 1.477-.434.351-.994.527-1.682.527-.879 0-1.582-.293-2.109-.879zm6.017.645V45.72c0-.078.041-.12.123-.123h.698c.078 0 .117.04.117.123v4.892l2.607-2.531c.07-.07.133-.105.188-.105h.996c.062 0 .095.027.099.082 0 .03-.017.064-.052.1l-2.086 2.038 2.256 3.621a.16.16 0 01.023.088c0 .063-.035.094-.105.094h-.856c-.09 0-.152-.035-.187-.105l-1.875-3-1.008.955v2.033c0 .078-.039.117-.117.117h-.698c-.082 0-.123-.04-.123-.117zm5.643-2.895c0-.894.265-1.64.797-2.238.531-.598 1.22-.897 2.068-.897.871 0 1.551.303 2.039.909.492.605.738 1.347.738 2.226v.17c0 .078-.041.117-.123.117h-4.511c.047.594.228 1.069.545 1.424.316.356.753.533 1.312.533.434 0 .779-.087 1.037-.263.262-.176.465-.455.61-.838.023-.07.08-.108.169-.111h.78c.054 0 .082.027.082.082a.433.433 0 01-.024.123c-.433 1.261-1.314 1.892-2.642 1.892h-.012c-.902 0-1.605-.29-2.109-.873-.504-.582-.756-1.334-.756-2.256zm1.055-.597h3.574c-.098-.496-.309-.895-.633-1.196-.32-.3-.697-.45-1.131-.45-.457 0-.85.148-1.178.445-.324.296-.535.697-.632 1.2zm5.923 3.492v-5.79c0-.077.041-.116.123-.116h.698c.078 0 .117.039.117.117v.662c.441-.602 1.029-.903 1.763-.903.801 0 1.37.354 1.706 1.061a.196.196 0 01.023.082c0 .055-.023.094-.07.117l-.604.399a.144.144 0 01-.082.023c-.047 0-.078-.02-.094-.058-.168-.274-.339-.463-.515-.569-.176-.11-.405-.164-.686-.164-.441 0-.793.215-1.054.645-.258.425-.387.943-.387 1.552v2.942c0 .078-.039.117-.117.117h-.698c-.082 0-.123-.04-.123-.117zm7.957 0v-.65c0-.079.041-.12.123-.124h1.594v-4.271h-1.295c-.078 0-.119-.04-.123-.117v-.627c0-.078.041-.117.123-.117h2.11c.078 0 .119.039.123.117v5.015h1.652c.078 0 .119.041.123.123v.65c0 .079-.041.118-.123.118h-4.184c-.082 0-.123-.04-.123-.117zm1.477-7.014v-1.031c0-.078.041-.117.123-.117h1.031c.078 0 .117.039.117.117v1.031c0 .078-.039.12-.117.123h-1.031c-.082-.004-.123-.045-.123-.123zm4.101 7.014v-5.79c0-.077.042-.116.124-.116h.697c.078 0 .117.039.117.117v.662c.129-.246.342-.457.639-.633.3-.18.611-.27.931-.27.399 0 .717.079.955.235.239.156.424.402.557.738.176-.289.414-.523.715-.703.301-.18.623-.27.967-.27.558 0 .968.15 1.23.452.262.3.393.767.393 1.4v4.178c0 .078-.041.117-.123.117h-.698c-.078 0-.117-.04-.117-.117v-4.014c0-.75-.32-1.125-.961-1.125h-.011c-.383 0-.694.191-.932.574-.234.38-.352.883-.352 1.512v3.053c0 .078-.041.117-.123.117h-.691c-.078 0-.119-.04-.123-.117v-4.014c0-.75-.32-1.125-.961-1.125h-.012c-.383 0-.693.191-.931.574-.235.38-.352.883-.352 1.512v3.053c0 .078-.039.117-.117.117h-.697c-.082 0-.124-.04-.124-.117zm8.42-1.67c0-.64.233-1.135.698-1.483.465-.347 1.052-.521 1.763-.521.528 0 1.051.084 1.571.252v-.299c0-.945-.485-1.418-1.453-1.418-.657 0-1.104.305-1.342.914-.024.07-.08.106-.17.106h-.768c-.054 0-.082-.024-.082-.07 0-.051.004-.092.012-.124a2.32 2.32 0 01.803-1.218c.41-.332.925-.498 1.547-.498.695 0 1.267.193 1.716.58.45.382.674.879.674 1.488v2.924c0 .441.069.787.205 1.037a.112.112 0 01.024.058c0 .04-.037.059-.112.059h-.931c-.078 0-.119-.04-.123-.117v-.627c-.414.574-1.026.861-1.834.861-.61 0-1.129-.162-1.559-.486-.426-.328-.639-.8-.639-1.418zm.985 0c0 .312.113.56.34.744.23.184.552.275.966.275.481 0 .891-.17 1.231-.51.34-.34.51-.798.51-1.376a4.762 4.762 0 00-1.559-.252c-.434 0-.791.097-1.072.293-.278.191-.416.466-.416.826zm4.892-.023c0-.641.364-1.125 1.09-1.454a2.17 2.17 0 01-.158-.826c0-.64.197-1.142.592-1.506.398-.367.894-.55 1.488-.55a2.1 2.1 0 011.172.34l.809-.721c.031-.032.062-.047.093-.047.024 0 .055.02.094.058l.457.48c.031.032.047.063.047.095 0 .03-.02.068-.059.11l-.767.733c.16.297.24.633.24 1.008 0 .64-.201 1.14-.603 1.5-.399.36-.893.54-1.483.54-.586 0-1.066-.173-1.441-.516-.426.183-.639.45-.639.802 0 .192.064.348.193.47.129.12.301.18.516.18.129 0 .373-.036.732-.11.36-.079.688-.118.985-.118 1.648 0 2.472.627 2.472 1.881 0 .602-.236 1.078-.709 1.43-.472.351-1.125.527-1.957.527-.894 0-1.582-.166-2.062-.498-.481-.332-.721-.795-.721-1.389 0-.414.11-.77.328-1.066-.472-.316-.709-.768-.709-1.353zm1.366 2.337c0 .72.599 1.078 1.798 1.078.551 0 .969-.093 1.254-.28a.89.89 0 00.428-.786c0-.312-.143-.557-.428-.732-.281-.176-.699-.264-1.254-.264-.222 0-.488.035-.796.105-.309.067-.536.1-.68.1-.215.184-.322.443-.322.78zm.55-4.617c0 .375.1.66.299.856.203.195.469.293.797.293.336 0 .604-.098.803-.293.199-.196.299-.48.299-.856 0-.383-.1-.672-.299-.867-.199-.2-.467-.299-.803-.299-.328 0-.594.1-.797.299-.199.195-.299.484-.299.867zm4.594 1.078c0-.894.266-1.64.797-2.238.531-.598 1.221-.897 2.068-.897.871 0 1.551.303 2.039.909.493.605.739 1.347.739 2.226v.17c0 .078-.041.117-.123.117h-4.512c.047.594.228 1.069.545 1.424.316.356.754.533 1.312.533.434 0 .78-.087 1.037-.263.262-.176.465-.455.61-.838.023-.07.08-.108.17-.111h.779c.055 0 .082.027.082.082a.462.462 0 01-.023.123c-.434 1.261-1.315 1.892-2.643 1.892h-.012c-.902 0-1.605-.29-2.109-.873-.504-.582-.756-1.334-.756-2.256zm1.055-.597h3.574c-.098-.496-.309-.895-.633-1.196-.32-.3-.697-.45-1.131-.45-.457 0-.849.148-1.177.445-.325.296-.536.697-.633 1.2zm8.232-1.647v-.65c0-.078.039-.117.117-.117h1.084v-1.729c0-.078.039-.117.118-.117h.697c.078 0 .117.039.117.117v1.729h2.297c.078 0 .117.039.117.117v.65c0 .078-.039.117-.117.117h-2.297v2.813c0 1.039.393 1.558 1.178 1.558.375 0 .65-.1.826-.298.176-.2.293-.512.352-.938.007-.07.05-.105.128-.105h.745a.06.06 0 01.029.011c.015.008.025.02.029.035a.241.241 0 01.006.06c0 .593-.186 1.095-.557 1.505-.367.41-.886.615-1.558.615-.688 0-1.211-.205-1.571-.615-.359-.41-.539-1.016-.539-1.817v-2.824h-1.084c-.078 0-.117-.039-.117-.117zm7.026 4.512c-.547-.574-.821-1.33-.821-2.268 0-.937.274-1.693.821-2.267.55-.578 1.254-.867 2.109-.867s1.557.289 2.104.867c.546.574.82 1.33.82 2.267 0 .938-.274 1.694-.82 2.268-.547.574-1.249.861-2.104.861s-1.559-.287-2.109-.861zm.703-3.879c-.36.418-.539.955-.539 1.611 0 .657.179 1.196.539 1.617.359.418.826.627 1.4.627.578 0 1.047-.209 1.406-.627.36-.421.539-.96.539-1.617 0-.656-.179-1.193-.539-1.611-.359-.422-.828-.633-1.406-.633-.574 0-1.041.211-1.4.633zm5.631 4.506v-.985c0-.078.041-.119.123-.123h.984c.078 0 .117.041.117.123v.985c0 .078-.039.117-.117.117h-.984c-.082 0-.123-.04-.123-.117zm2.871 0v-.985c0-.078.041-.119.123-.123h.984c.078 0 .117.041.117.123v.985c0 .078-.039.117-.117.117h-.984c-.082 0-.123-.04-.123-.117zm2.871 0v-.985c0-.078.041-.119.123-.123h.984c.078 0 .117.041.117.123v.985c0 .078-.039.117-.117.117h-.984c-.082 0-.123-.04-.123-.117z" fill="#060606"/><path fill-rule="evenodd" clip-rule="evenodd" d="M324.234 47.834a.8.8 0 011.132 0L328 50.47l2.634-2.635a.8.8 0 011.132 1.132l-3.2 3.2a.8.8 0 01-1.132 0l-3.2-3.2a.8.8 0 010-1.132z" fill="#060606"/></g><path d="M31 50.25L63.5 34 96 50.25 63.5 66.5 31 50.25z" fill="#A5F6E2"/><path d="M31 86V50.25L63.5 66.5v35.75L31 86z" fill="#1DE9B6"/><path d="M63.5 66.5v35.75L96 86V50.25L63.5 66.5z" fill="#61F0CC"/><path d="M63.566 39.281l-1.5.016-1.489.078 2.989-.094zm2.989.162l-1.489-.113-1.5-.049 2.989.162zm-2.99-.162l-2.988.094-2.885.348 5.874-.442zm5.879.591l-2.89-.429-2.988-.162 5.878.591zm-8.867-.497l-1.462.142-1.423.206 2.885-.348zm8.867.497l-1.426-.249-1.463-.18 2.889.43zm-11.752-.149l-1.37.272-1.303.34 2.673-.612zm5.874-.442l-5.874.442-4.976 1.488 10.85-1.93zm8.52 1.298l-1.268-.385-1.374-.322 2.642.707zm2.068.913l-4.71-1.62-5.878-.59 10.588 2.21zm-16.462-1.769l-2.673.611-2.303.877 4.976-1.488zm16.462 1.77l-2.068-.914-2.642-.707 4.71 1.62zM55.02 40.333l-1.22.41-1.083.467 2.303-.877zm19.135 1.158l-.954-.479-1.114-.434 2.068.913zm-21.438-.28l-.904.507-.721.544 1.625-1.052zm22.839 1.355l-.613-.555-.788-.52 1.4 1.075zm-11.99-3.286l-10.849 1.93-1.688 4.713 12.538-6.643zm-10.849 1.93l-1.626 1.052-.866 1.173 2.492-2.225zm22.172 5.061l-.734-4.78-10.588-2.21 11.322 6.99zm1.322-2.513l-.655-1.192-1.4-1.075 2.055 2.267zm-25.12-1.496l-.531.575-.335.598.867-1.173zm25.12 1.496l-.229-.608-.426-.584.655 1.192z" fill="#C7FAED"/><path d="M50.325 49.042l.113 2.43.087.71-.2-3.14z" fill="#61F0CC"/><path d="M52.716 41.211l-2.493 2.225.805 2.488 1.688-4.713z" fill="#C7FAED"/><path d="M50.412 49.725l-.086-.683.2 3.14-.114-2.457zm-.201-3.156l.115 2.473.086.683-.201-3.156zm25.785 2.835l-.204.691.09 1.753.114-2.444zm-.204.691l-.114 2.47.204-.717-.09-1.753zm-25.38-.37l.114 2.456.304.712-.418-3.168z" fill="#61F0CC"/><path d="M63.565 39.281l-12.537 6.643 23.86.348-11.323-6.99zm11.323 6.991l1.322-2.513-2.056-2.267.734 4.78z" fill="#C7FAED"/><path d="M50.296 47.225l-.085-.656.2 3.156-.115-2.5zm-.203-3.173l.117 2.517.086.656-.203-3.173zm26.018 2.865l-.204.662.089 1.825.115-2.487z" fill="#61F0CC"/><path d="M50.223 43.436l-.13.616.085.626.045-1.242z" fill="#C7FAED"/><path d="M75.907 47.58l-.116 2.515.205-.69-.09-1.826zm-25.19 2.83l-.305-.685.418 3.168-.113-2.483zm-.421-3.185l.116 2.5.305.685-.421-3.185zm25.495 2.87l-.437.69.324 1.78.113-2.47zm-.437.69l-.11 2.498.434-.717-.324-1.78zm-25.176-6.107l-.084-.626.202 3.173-.118-2.547z" fill="#61F0CC"/><path d="M76.024 45.017l.205-.633-.019-.624-.186 1.257z" fill="#C7FAED"/><path d="M50.718 50.41l.112 2.483.53.7-.642-3.184zm25.511-6.026l-.205.633.087 1.9.118-2.533zm-.205.633l-.117 2.562.204-.662-.087-1.9zm-25.42 2.864l-.308-.657.422 3.186-.115-2.53zm-.426-3.203l.118 2.547.307.656-.425-3.203zm25.729 2.901l-.44.662.325 1.854.115-2.516z" fill="#61F0CC"/><path d="M50.223 43.436l-.045 1.242.85 1.246-.805-2.488z" fill="#C7FAED"/><path d="M51.252 51.085l-.535-.675.644 3.184-.11-2.51zm24.215-2.844l-.113 2.544.438-.69-.325-1.854zm-24.864-.36l.114 2.529.535.675-.649-3.204zm24.751 2.904l-.684.68.573 1.818.111-2.498zm-.684.68l-.106 2.524.68-.706-.574-1.819zm-24.184-6.16l-.308-.627.425 3.203-.117-2.576zm.766 5.78l.109 2.51.765.679-.874-3.19z" fill="#61F0CC"/><path d="M74.888 46.272l1.136-1.255.186-1.258-1.322 2.513z" fill="#C7FAED"/><path d="M76.024 45.017l-.442.633.325 1.93.117-2.563zm-24.883 3.511l-.538-.647.649 3.203-.111-2.556zm24.44-2.878l-.114 2.591.44-.662-.325-1.93zm-25.095-.345l.117 2.576.538.647-.655-3.223zm24.98 2.936l-.688.652.576 1.892.113-2.544z" fill="#61F0CC"/><path d="M50.178 44.678l.309.627.54.619-.849-1.246z" fill="#C7FAED"/><path d="M52.023 51.739l-.771-.654.874 3.188-.103-2.535zm22.755-2.846l-.108 2.571.684-.679-.576-1.892zm-23.637-.365l.11 2.556.772.654-.882-3.21zm23.529 2.936l-.944.656.838 1.869.106-2.525zm-.944.656l-.099 2.55.937-.681-.838-1.869zm-21.703-.381l.103 2.535 1.006.644-1.11-3.18zm-.995-5.815l-.542-.619.655 3.223-.113-2.604z" fill="#61F0CC"/><path d="M74.888 46.272l.694-.622.442-.633-1.136 1.255z" fill="#C7FAED"/><path d="M75.582 45.65l-.694.622.579 1.97.115-2.593zm-23.665 3.506l-.776-.628.882 3.21-.106-2.582zm22.97-2.884l-.11 2.62.69-.65-.58-1.97zm-23.86-.348l.114 2.604.776.628-.89-3.232zm2.01 6.435l-1.014-.62 1.11 3.179-.096-2.559zm21.74-3.467l-.95.63.843 1.942.108-2.572zm-.95.63l-.101 2.598.944-.656-.844-1.942zm-21.91-.366l.106 2.582 1.014.621-1.12-3.203zm21.809 2.964l-1.176.6 1.077 1.95.099-2.55zm-1.176.6l-.088 2.574 1.165-.624-1.077-1.95zm-19.513-.361l.095 2.559 1.253.596-1.348-3.155zm-1.227-5.835l-.782-.6.89 3.232-.108-2.632zm1.13 3.227l-1.023-.595 1.12 3.203-.096-2.608zm21.948-3.479l-.96.602.85 2.018.11-2.62zm-.96.602l-.102 2.648.952-.63-.85-2.018zm-19.627 6.059l-1.264-.574 1.348 3.155-.084-2.581zm-2.49-6.41l.106 2.633 1.023.595-1.13-3.227zm22.015 2.999l-1.186.576 1.086 2.022.1-2.598zm-1.186.576l-.09 2.623 1.176-.601-1.086-2.022zm-19.7-.347l.097 2.608 1.264.574-1.36-3.182z" fill="#61F0CC"/><path d="M51.028 45.924l.782.6 1.032.57-1.814-1.17z" fill="#C7FAED"/><path d="M72.55 52.72l-1.356.519 1.268 2.055.088-2.573zm-1.356.519l-.076 2.592 1.344-.537-1.268-2.055zM54.3 52.933l.084 2.581 1.454.517-1.538-3.098zm-1.459-5.84l-1.032-.57 1.13 3.228-.098-2.658zm1.373 3.21l-1.274-.552 1.36 3.182-.086-2.63zm1.553 3.128l-1.467-.498 1.538 3.098-.07-2.6z" fill="#61F0CC"/><path d="M72.732 47.425l1.196-.551.96-.602-2.156 1.153z" fill="#C7FAED"/><path d="M73.928 46.874l-1.196.551 1.094 2.097.102-2.648zm-4.245 6.793l-.063 2.61 1.497-.446-1.434-2.164zm3.05-6.242L72.64 50.1l1.186-.577-1.094-2.096zm-1.54 5.814l-1.51.428 1.434 2.164.077-2.592zm-15.425.192l.071 2.6 1.589.413-1.66-3.013zm-2.926-6.337l.098 2.657 1.275.552-1.373-3.21zm19.798 3.005l-1.368.497 1.278 2.125.09-2.622zm-1.368.497l-.078 2.643 1.356-.518-1.278-2.125zm-17.057-.293l.086 2.63 1.467.498-1.553-3.128z" fill="#61F0CC"/><path d="M51.028 45.924l1.814 1.17 2.78.983-4.594-2.153zm0 0l11.649 3.037 12.21-2.689-23.86-.348z" fill="#C7FAED"/><path d="M57.372 53.828l-1.604-.397 1.66 3.013-.056-2.616zm10.672.173l-.046 2.622 1.622-.347-1.576-2.275zm-10.672-.172l.056 2.614 1.693.306-1.749-2.92zm-3.244-6.209l-1.286-.526 1.373 3.209-.087-2.682zm15.555 6.047l-1.639.334 1.576 2.275.063-2.609zM55.696 50.78l-1.48-.477 1.552 3.128-.072-2.65z" fill="#61F0CC"/><path d="M69.811 48.295l2.921-.87 2.156-1.153-5.077 2.023z" fill="#C7FAED"/><path d="M69.746 51.007l-.063 2.66 1.511-.428-1.448-2.232zm1.526-.411l-1.526.411 1.448 2.232.078-2.643zm-15.575.184l.072 2.65 1.603.398-1.675-3.048zm17.035-3.355l-1.38.476L72.64 50.1l.093-2.673zm-1.38.476l-.08 2.695 1.368-.497-1.289-2.198zm-17.224-.28l.088 2.681 1.48.478-1.568-3.16zm12.183 6.614l-.03 2.631 1.717-.243-1.687-2.387zm-7.23-.112l.04 2.626 1.766.195-1.805-2.821zm0 0l-1.709-.295 1.75 2.92-.04-2.625zM68.046 54l-1.734.235 1.687 2.387.047-2.622z" fill="#61F0CC"/><path d="M52.842 47.093l1.286.527 1.495.457-2.781-.983z" fill="#C7FAED"/><path d="M64.513 54.367l-.013 2.635 1.78-.136-1.767-2.5zm-3.649-.056l.023 2.633 1.804.085-1.827-2.718z" fill="#61F0CC"/><path d="M51.028 45.924l4.595 2.153 7.054.884-11.65-3.037z" fill="#C7FAED"/><path d="M62.687 54.392l.004 2.636 1.81-.026-1.814-2.61zm-5.371-3.23l-1.62-.382 1.676 3.048-.056-2.666zm10.777.166L68.045 54l1.638-.334-1.59-2.34zm-7.228 2.983l-1.783-.189 1.805 2.822-.022-2.633zm5.446-.076l-1.797.131 1.767 2.5.03-2.63zm-8.996-3.073l.057 2.666 1.71.294-1.767-2.96zm12.431-.155l-1.653.32 1.59 2.34.063-2.66zm-14.123-2.93l-1.495-.457 1.569 3.16-.074-2.703zm7.064 6.315l-1.822-.081 1.826 2.717-.004-2.636zm1.827-.026l-1.827.026 1.814 2.61.013-2.636z" fill="#61F0CC"/><path d="M62.677 48.96l7.134-.665 5.077-2.023-12.211 2.689z" fill="#C7FAED"/><path d="M69.811 48.294l-.065 2.713 1.526-.411-1.46-2.302z" fill="#61F0CC"/><path d="M69.811 48.295l1.54-.394 1.381-.476-2.92.87z" fill="#C7FAED"/><path d="M71.351 47.901l-1.54.394 1.46 2.3.08-2.694zm-15.728.176l.073 2.703 1.62.382-1.693-3.084zm10.719 3.476l-.031 2.683L68.045 54l-1.703-2.448zm-7.3-.108l.04 2.678 1.782.188-1.823-2.866zm0 0l-1.727-.283 1.767 2.96-.04-2.677zm9.05-.117l-1.75.225 1.703 2.448.048-2.673zm-3.565.351l-.014 2.688 1.798-.131-1.784-2.557zm-3.685-.053l.022 2.685 1.822.081-1.844-2.766zm1.84.078l.004 2.688 1.827-.025-1.831-2.663zm-5.425-3.261l-1.634-.365 1.692 3.084-.058-2.72zm10.885.159l-.05 2.726 1.654-.32-1.604-2.407zm-7.3 3.024l-1.8-.181 1.822 2.866-.022-2.685zm5.5-.073l-1.815.126 1.784 2.556.03-2.682zm-9.085-3.11l.058 2.72 1.726.282-1.784-3.002zm12.554-.148l-1.67.306 1.605 2.406.065-2.712zm-7.13 3.409l-1.84-.078 1.845 2.766-.004-2.688zm1.846-.025l-1.845.025 1.831 2.663.014-2.688z" fill="#61F0CC"/><path d="M55.623 48.077l1.634.366 1.743.27-3.377-.636z" fill="#C7FAED"/><path d="M66.373 48.817l-.031 2.736 1.75-.225-1.719-2.511zM59 48.713l.041 2.731 1.8.181L59 48.713zm0 0l-1.743-.27 1.784 3.002L59 48.712zm9.141-.112l-1.768.216 1.72 2.51.048-2.726zm-3.6.336l-.014 2.742 1.815-.126-1.802-2.616z" fill="#61F0CC"/><path d="M66.374 48.817l1.768-.216 1.67-.306-3.438.522zm-10.751-.74l3.377.636 3.677.248-7.054-.884z" fill="#C7FAED"/><path d="M60.818 48.886l.023 2.74 1.84.077-1.863-2.817zm1.859.075l.005 2.742 1.845-.024-1.85-2.718zm-1.859-.075L59 48.713l1.841 2.912-.023-2.739z" fill="#61F0CC"/><path d="M62.677 48.96l3.697-.144 3.438-.522-7.135.667z" fill="#C7FAED"/><path d="M66.374 48.817l-1.834.12 1.802 2.616.032-2.736zm-3.697.144l-1.859-.075 1.864 2.818-.005-2.743zm1.863-.023l-1.863.023 1.85 2.718.013-2.742z" fill="#61F0CC"/><path d="M59 48.713l1.818.173 1.859.075L59 48.713zm3.677.248l1.863-.024 1.833-.12-3.696.144z" fill="#C7FAED"/><rect x="63.292" y="-22" width="1" height="60" rx=".5" fill="#61F0CC"/></g><rect x=".5" y=".5" width="391" height="251" rx="5.5" stroke="#fff" stroke-opacity=".2"/><defs><clipPath id="clip0"><rect width="392" height="252" rx="6" fill="#fff"/></clipPath><clipPath id="clip1"><rect x="134" y="72" width="211" height="152" rx="6" fill="#fff"/></clipPath><filter id="filter0_d" x="132" y="33" width="215" height="36" filterUnits="userSpaceOnUse" color-interpolation-filters="sRGB"><feFlood flood-opacity="0" result="BackgroundImageFix"/><feColorMatrix in="SourceAlpha" values="0 0 0 0 0 0 0 0 0 0 0 0 0 0 0 0 0 0 127 0"/><feOffset dy="1"/><feGaussianBlur stdDeviation="1"/><feColorMatrix values="0 0 0 0 0 0 0 0 0 0 0 0 0 0 0 0 0 0 0.05 0"/><feBlend in2="BackgroundImageFix" result="effect1_dropShadow"/><feBlend in="SourceGraphic" in2="effect1_dropShadow" result="shape"/></filter></defs></svg>
