<svg width="24" height="24" fill="none" xmlns="http://www.w3.org/2000/svg"><g clip-path="url(#clip0)"><path fill-rule="evenodd" clip-rule="evenodd" d="M11.723 23.54L6.37 21.62v-7.84l5.351 1.822v7.939zm.974 0l5.352-1.92v-7.84l-5.351 1.824v7.937zM6.923 13.19l5.4-1.524 5.021 1.62-5.022 1.705-5.4-1.8zm-1.57-.6L0 10.666V2.812l5.351 1.823.003 7.956zm.98 0l5.352-1.92V2.813L6.332 4.644l.002 7.947zM.56 2.24l5.4-1.532 5.022 1.62-5.022 1.705-5.4-1.792zm17.289 10.35l-5.351-1.92V2.813l5.35 1.823v7.956zm.975 0l5.351-1.92V2.813l-5.351 1.823v7.956zM13.048 2.24l5.4-1.524 5.022 1.62-5.022 1.705-5.4-1.8z" fill="#F90"/></g><defs><clipPath id="clip0"><path fill="#fff" d="M0 0h24v24H0z"/></clipPath></defs>
</svg>
